<?xml version="1.0" encoding="utf-8"?>
<!-- Generator: Adobe Illustrator 26.1.0, SVG Export Plug-In . SVG Version: 6.00 Build 0)  -->
<svg version="1.1" id="Layer_1" xmlns="http://www.w3.org/2000/svg" xmlns:xlink="http://www.w3.org/1999/xlink" x="0px" y="0px"
	 viewBox="0 0 1507 1274" style="enable-background:new 0 0 1507 1274;" xml:space="preserve">
<style type="text/css">
	.st0{fill:#5189DD;}
	.st1{fill:#F0F0F0;}
	.st2{opacity:0.1;}
	.st3{opacity:0.1;enable-background:new    ;}
	.st4{fill:#37474F;}
	.st5{fill:#FFFFFF;}
	.st6{fill:#455A64;}
	.st7{opacity:0.15;enable-background:new    ;}
	.st8{fill:#FAFAFA;}
	.st9{fill:#F5F5F5;}
	.st10{fill:#EBEBEB;}
	.st11{fill:#E0E0E0;}
	.st12{opacity:0.3;enable-background:new    ;}
	.st13{opacity:0.3;}
	.st14{opacity:0.2;enable-background:new    ;}
	.st15{opacity:0.3;fill:#5189DD;enable-background:new    ;}
	.st16{fill:#263238;}
	.st17{opacity:0.15;fill:#5189DD;enable-background:new    ;}
	.st18{opacity:0.3;fill:#FFFFFF;enable-background:new    ;}
	.st19{opacity:0.5;}
	.st20{fill:#FFA8A7;}
	.st21{fill:#FFC4C3;}
	.st22{fill:#F28F8F;}
	.st23{opacity:0.4;fill:#FFFFFF;enable-background:new    ;}
</style>
<path class="st0" d="M551,362.7c21.4-63.5,94.1-93.3,153.9-63l426.4,215.6c84.1,42.5,79.3,164.2-7.9,200L544.4,952.4
	c-87.2,35.7-176-47.6-145.9-136.9L551,362.7z"/>
<g>
	<path class="st1" d="M870.2,670.9c103.8,0,187.9-48.9,187.9-109.3c0-60.3-84.1-109.3-187.9-109.3s-187.9,48.9-187.9,109.3
		C682.3,622,766.4,670.9,870.2,670.9z"/>
	<g class="st2">
		<path d="M874.8,643.7l-100.2-58.3l150.3-87.4l100.2,58.3L874.8,643.7z"/>
		<path d="M999.9,614.3c21.2,0,38.4-10,38.4-22.3c0-12.3-17.2-22.3-38.4-22.3c-21.2,0-38.4,10-38.4,22.3
			C961.5,604.3,978.7,614.3,999.9,614.3z"/>
	</g>
	<path class="st3" d="M728.2,587l-31.7-18.4l205.9-119.7l31.7,18.4L728.2,587z"/>
	<path class="st4" d="M717.4,552.2c0,0-0.3-11.5-5.2-20.8c-4.9-9.3-12.2-15.5-19.4-16.7c-7.2-1.2-13.6,5-6.2,10.3
		c7.3,5.2,20.7,11.1,25.6,28.8L717.4,552.2z"/>
	<path class="st5" d="M715.6,549.1L715.6,549.1c0.2,0,0.3-0.1,0.3-0.2c0-0.1,0.1-0.2,0-0.3c-6.1-19.5-19.9-28.7-26.4-30.8
		c0,0-0.1,0-0.1,0c-0.1,0-0.1,0-0.1,0c0,0-0.1,0.1-0.1,0.1c0,0-0.1,0.1-0.1,0.1s0,0.1,0,0.2c0,0.1,0,0.1,0,0.1c0,0,0.1,0.1,0.1,0.1
		c0,0,0.1,0.1,0.1,0.1c6.3,2,19.9,11,25.9,30.2c0,0.1,0.1,0.2,0.2,0.2C715.4,549.1,715.5,549.1,715.6,549.1z"/>
	<path class="st6" d="M680.2,542.6c0.5,1.5,1.9,2.3,3.3,3c1.4,0.7,2.8,1.5,3.5,2.9c1.3,2.8-1.6,6.3-0.2,9.1c0.3,0.6,0.8,1,1.3,1.4
		c0.5,0.4,1.1,0.6,1.8,0.8c1,0.2,2.1,0.4,3.2,0.6c0.5,0,1,0,1.5,0c1.5-0.2,3,0.1,4.4,0.9c2,1.4,2.4,4.1,3.5,6.3
		c0.7,1.3,1.6,2.4,2.8,3.3c1.2,0.9,2.5,1.5,3.9,1.8c2.4,0.5,6,0.3,6.7-0.7c0.6-0.8-0.6-3.3-0.6-4.3c0.1-2.4,0.1-4.8-0.2-7.2
		c-0.2-1.1-0.2-2.2-0.1-3.3c0.1-1.2,0.2-2.5,0.3-3.7c0.1-1.2,0.5-2.4,0.2-3.7c-0.4-1.3-1-2.6-1.7-3.7c-0.7-1.1-1.4-2.3-2.1-3.4
		c-0.8-1.4-1.8-2.6-2.9-3.8c-1-0.9-2.2-1.7-3.5-2.1c-1.3-0.5-2.7-0.7-4-0.6c-2.3,0.2-4.6,1.2-6.8,0.9c-2.3-0.3-4.3-1.1-6.6-1.2
		c-1.2-0.1-2.4,0.1-3.5,0.6c-1.1,0.5-2.1,1.2-2.9,2.1c-0.5,0.5-0.8,1.2-1,1.8C680,541.2,680,541.9,680.2,542.6z"/>
	<path class="st5" d="M714.3,565.9c0,0,0.1,0,0.1,0c0,0,0.1-0.1,0.1-0.1c0,0,0-0.1,0.1-0.1c0,0,0-0.1,0-0.1
		c-3.6-21.5-25.2-26.6-30.4-26.7c-0.1,0-0.2,0-0.2,0.1s-0.1,0.2-0.1,0.2c0,0.1,0,0.2,0.1,0.2c0.1,0.1,0.2,0.1,0.2,0.1
		c5,0.1,26.2,5.1,29.7,26.1c0,0.1,0.1,0.2,0.1,0.2C714.2,565.9,714.3,565.9,714.3,565.9z"/>
	<path class="st5" d="M691,553c0.1,0,0.1,0,0.2-0.1c2.2-1.6,4.7-2.6,7.3-3.1c2.6-0.5,5.4-0.4,8,0.3c0,0,0.1,0,0.1,0c0,0,0.1,0,0.1,0
		c0,0,0.1-0.1,0.1-0.1s0-0.1,0.1-0.1c0,0,0-0.1,0-0.1c0,0,0-0.1,0-0.1c0,0-0.1-0.1-0.1-0.1c0,0-0.1,0-0.1-0.1
		c-2.7-0.7-5.5-0.8-8.3-0.3c-2.7,0.5-5.4,1.6-7.6,3.3c-0.1,0.1-0.1,0.1-0.1,0.2c0,0.1,0,0.2,0.1,0.3c0,0,0.1,0.1,0.1,0.1
		C690.9,553,691,553,691,553z"/>
	<path class="st0" d="M801.5,373.4H799v3.3h2.5V373.4z"/>
	<path class="st7" d="M801.5,373.4H799v3.3h2.5V373.4z"/>
	<path class="st0" d="M715.2,428.5l199.2-115.9v148L715.2,576.5V428.5z"/>
	<path class="st7" d="M715.2,428.5l199.2-115.9v148L715.2,576.5V428.5z"/>
	<path class="st5" d="M814.8,373.6l3.1,1.8c3.8,2.2,18.6,1.7,28.3-4l79.1-46l-13.8-8L814.8,373.6z"/>
	<path class="st8" d="M925.3,325.4l-79.1,46c-9.8,5.7-24.6,6.2-28.3,4l-3.1-1.8v141.6l3.1,1.8c3.8,2.2,18.6,1.7,28.3-4l79.1-46h0
		L925.3,325.4z"/>
	<path class="st9" d="M925.3,325.4l-79.1,46c-9.8,5.7-24.6,6.2-28.3,4l-3.1-1.8v141.6l3.1,1.8c3.8,2.2,18.6,1.7,28.3-4l79.1-46
		L925.3,325.4z"/>
	<path class="st10" d="M845.3,371.9c-9.7,5.2-23.8,5.7-27.5,3.5l-3.1-1.9v141.6l3.1,1.8c3.7,2.2,17.7,1.7,27.5-3.5L845.3,371.9z"/>
	<path class="st11" d="M829.2,376.5c-5.2,0.5-9.5,0-11.4-1l-3.1-1.8v141.6l3.1,1.8c1.8,1.1,6.2,1.5,11.4,1L829.2,376.5z"/>
	<path class="st5" d="M817.6,375.3c3.8,2.3,2.9,11.1-6.8,16.8L732,438.3l-14.2-8.3l97-56.4L817.6,375.3z"/>
	<path class="st11" d="M717.8,430l14.2,8.3v141.6l-14.2-8.3V430z"/>
	<path class="st9" d="M810.8,392.1l-3.5,2.1L732,438.3v141.6l78.8-46.2c7.2-4.2,8.9-7.8,8.9-11.1V379
		C819.7,384.2,816.6,388.4,810.8,392.1z"/>
	<path class="st0" d="M712.3,426.8l2.9,1.7v148l-2.9-1.7V426.8z"/>
	<path class="st12" d="M712.3,426.8l2.9,1.7v148l-2.9-1.7V426.8z"/>
	<path class="st0" d="M712.3,426.8l199.2-115.9l2.9,1.7L715.2,428.5L712.3,426.8z"/>
	<path class="st0" d="M822,361.6c-0.6-0.3-1.3-0.5-2-0.5c-0.7,0-1.4,0.2-2,0.5l-18.1,10.5c-1.1,0.6-1.1,1.7,0,2.4l4,2.3l22.2-12.9
		L822,361.6z"/>
	<g class="st13">
		<path d="M741.6,448.3l65.7-38.2l1.8-1.1c0.4-0.3,0.8-0.6,1.1-1.1c0.3-0.4,0.5-0.9,0.5-1.4c0-0.8-0.7-1.1-1.6-0.5l-1.8,1.1
			l-65.7,38.2c-0.5,0.3-0.8,0.6-1.1,1c-0.3,0.4-0.5,0.9-0.6,1.4C740,448.6,740.7,448.9,741.6,448.3z"/>
		<path d="M741.6,455.6l65.7-38.2l1.8-1.1c0.4-0.3,0.8-0.6,1.1-1c0.3-0.4,0.5-0.9,0.5-1.4c0-0.8-0.7-1.1-1.6-0.5l-1.8,1.1
			l-65.7,38.2c-0.5,0.3-0.8,0.6-1.1,1c-0.3,0.4-0.5,0.9-0.6,1.4C740,455.9,740.7,456.1,741.6,455.6z"/>
		<path d="M741.6,462.8l65.7-38.2l1.8-1.1c0.4-0.3,0.8-0.6,1.1-1c0.3-0.4,0.5-0.9,0.5-1.4c0-0.8-0.7-1.1-1.6-0.5l-1.8,1.1
			l-65.7,38.2c-0.5,0.3-0.8,0.6-1.1,1c-0.3,0.4-0.5,0.9-0.6,1.4C740,463.1,740.7,463.4,741.6,462.8z"/>
		<path d="M741.6,470l65.7-38.2l1.8-1.1c0.4-0.3,0.8-0.6,1.1-1c0.3-0.4,0.5-0.9,0.5-1.4c0-0.8-0.7-1.1-1.6-0.5l-1.8,1.1L741.6,467
			c-0.5,0.3-0.8,0.6-1.1,1c-0.3,0.4-0.5,0.9-0.6,1.4C740,470.4,740.7,470.6,741.6,470z"/>
		<path d="M741.6,477.3l65.7-38.2l1.8-1.1c0.4-0.3,0.8-0.6,1.1-1.1c0.3-0.4,0.5-0.9,0.5-1.4c0-0.8-0.7-1.1-1.6-0.5l-1.8,1.1
			l-65.7,38.2c-0.5,0.3-0.8,0.6-1.1,1c-0.3,0.4-0.5,0.9-0.6,1.4C740,477.6,740.7,477.8,741.6,477.3z"/>
		<path d="M741.6,484.5l65.7-38.2l1.8-1.1c0.4-0.3,0.8-0.6,1.1-1.1c0.3-0.4,0.5-0.9,0.5-1.4c0-0.8-0.7-1.1-1.6-0.5l-1.8,1.1
			l-65.7,38.2c-0.5,0.3-0.8,0.6-1.1,1c-0.3,0.4-0.5,0.9-0.6,1.4C740,484.8,740.7,485.1,741.6,484.5z"/>
		<path d="M741.6,491.8l65.7-38.2l1.8-1.1c0.4-0.3,0.8-0.6,1.1-1.1c0.3-0.4,0.5-0.9,0.5-1.4c0-0.8-0.7-1.1-1.6-0.5l-1.8,1.1
			l-65.7,38.2c-0.5,0.3-0.8,0.6-1.1,1c-0.3,0.4-0.5,0.9-0.6,1.4C740,492.1,740.7,492.3,741.6,491.8z"/>
		<path d="M741.6,499l65.7-38.2l1.8-1.1c0.4-0.3,0.8-0.6,1.1-1.1c0.3-0.4,0.5-0.9,0.5-1.4c0-0.8-0.7-1.1-1.6-0.5l-1.8,1.1L741.6,496
			c-0.5,0.3-0.8,0.6-1.1,1c-0.3,0.4-0.5,0.9-0.6,1.4C740,499.3,740.7,499.5,741.6,499z"/>
		<path d="M741.6,506.2l65.7-38.2l1.8-1.1c0.4-0.3,0.8-0.6,1.1-1.1c0.3-0.4,0.5-0.9,0.5-1.4c0-0.8-0.7-1.1-1.6-0.5l-1.8,1.1
			l-65.7,38.2c-0.5,0.3-0.8,0.6-1.1,1c-0.3,0.4-0.5,0.9-0.6,1.4C740,506.5,740.7,506.8,741.6,506.2z"/>
		<path d="M741.6,513.5l65.7-38.2l1.8-1.1c0.4-0.3,0.8-0.6,1.1-1.1c0.3-0.4,0.5-0.9,0.5-1.4c0-0.8-0.7-1.1-1.6-0.5l-1.8,1.1
			l-65.7,38.2c-0.5,0.3-0.8,0.6-1.1,1c-0.3,0.4-0.5,0.9-0.6,1.4C740,513.8,740.7,514,741.6,513.5z"/>
		<path d="M741.6,520.7l65.7-38.2l1.8-1.1c0.4-0.3,0.8-0.6,1.1-1.1c0.3-0.4,0.5-0.9,0.5-1.4c0-0.8-0.7-1.1-1.6-0.5l-1.8,1.1
			l-65.7,38.2c-0.4,0.3-0.8,0.6-1.1,1c-0.3,0.4-0.5,0.9-0.5,1.4C740,521,740.7,521.3,741.6,520.7z"/>
		<path d="M741.6,527.9l65.7-38.2l1.8-1.1c0.4-0.3,0.8-0.6,1.1-1.1c0.3-0.4,0.5-0.9,0.5-1.4c0-0.8-0.7-1.1-1.6-0.5l-1.8,1.1
			l-65.7,38.2c-0.5,0.3-0.8,0.6-1.1,1c-0.3,0.4-0.5,0.9-0.6,1.4C740,528.2,740.7,528.5,741.6,527.9z"/>
		<path d="M741.6,535.2l65.7-38.2l1.8-1.1c0.4-0.3,0.8-0.6,1.1-1c0.3-0.4,0.5-0.9,0.5-1.4c0-0.8-0.7-1.1-1.6-0.5l-1.8,1.1
			l-65.7,38.2c-0.5,0.3-0.8,0.6-1.1,1c-0.3,0.4-0.5,0.9-0.6,1.4C740,535.5,740.7,535.7,741.6,535.2z"/>
		<path d="M741.6,542.4l65.7-38.2l1.8-1.1c0.4-0.3,0.8-0.6,1.1-1.1c0.3-0.4,0.5-0.9,0.5-1.4c0-0.8-0.7-1.1-1.6-0.5l-1.8,1.1
			l-65.7,38.2c-0.5,0.3-0.8,0.6-1.1,1c-0.3,0.4-0.5,0.9-0.6,1.4C740,542.7,740.7,543,741.6,542.4z"/>
		<path d="M741.6,549.7l65.7-38.2l1.8-1.1c0.4-0.3,0.8-0.6,1.1-1.1c0.3-0.4,0.5-0.9,0.5-1.4c0-0.8-0.7-1.1-1.6-0.5l-1.8,1.1
			l-65.7,38.2c-0.4,0.3-0.8,0.6-1.1,1c-0.3,0.4-0.5,0.9-0.5,1.4C740,550,740.7,550.2,741.6,549.7z"/>
		<path d="M741.6,556.9l65.7-38.2l1.8-1.1c0.4-0.3,0.8-0.6,1.1-1.1c0.3-0.4,0.5-0.9,0.5-1.4c0-0.8-0.7-1.1-1.6-0.5l-1.8,1.1
			l-65.7,38.2c-0.5,0.3-0.8,0.6-1.1,1c-0.3,0.4-0.5,0.9-0.6,1.4C740,557.2,740.7,557.4,741.6,556.9z"/>
		<path d="M741.6,564.1l65.7-38.2l1.8-1.1c0.4-0.3,0.8-0.6,1.1-1c0.3-0.4,0.5-0.9,0.5-1.4c0-0.8-0.7-1.1-1.6-0.5l-1.8,1.1
			l-65.7,38.2c-0.5,0.3-0.8,0.6-1.1,1c-0.3,0.4-0.5,0.9-0.6,1.4C740,564.4,740.7,564.7,741.6,564.1z"/>
	</g>
	<g class="st13">
		<path d="M835.9,388.6c-1.1,0.2-1.9,1.1-1.9,1.9c0,0.8,0.8,1.3,1.9,1.1c3.6-0.8,7.1-2.1,10.3-3.9l69.2-40.3c0.4-0.3,0.8-0.6,1.1-1
			c0.3-0.4,0.5-0.9,0.5-1.4c0-0.8-0.8-1-1.6-0.5l-69.2,40.3C843,386.5,839.5,387.8,835.9,388.6z"/>
		<path d="M835.9,395.9c-1.1,0.2-1.9,1.1-1.9,1.9c0,0.8,0.8,1.3,1.9,1.1c3.6-0.8,7.1-2.1,10.3-3.9l69.2-40.3c0.4-0.3,0.8-0.6,1.1-1
			c0.3-0.4,0.5-0.9,0.5-1.4c0-0.8-0.8-1-1.6-0.5l-69.2,40.3C843,393.7,839.5,395.1,835.9,395.9z"/>
		<path d="M835.9,403.1c-0.5,0.1-0.9,0.3-1.3,0.6c-0.3,0.3-0.6,0.8-0.7,1.3c0,0.8,0.8,1.3,1.9,1.1c3.6-0.8,7.1-2.1,10.3-3.9
			l69.2-40.3c0.4-0.3,0.8-0.6,1.1-1c0.3-0.4,0.5-0.9,0.5-1.4c0-0.8-0.8-1-1.6-0.5l-69.2,40.3C843,401,839.5,402.3,835.9,403.1z"/>
		<path d="M835.9,410.4c-1.1,0.2-1.9,1.1-1.9,1.9c0,0.8,0.8,1.3,1.9,1.1c3.6-0.8,7.1-2.1,10.3-3.9l69.2-40.3c0.4-0.3,0.8-0.6,1.1-1
			c0.3-0.4,0.5-0.9,0.5-1.4c0-0.8-0.8-1-1.6-0.5l-69.2,40.3C843,408.2,839.5,409.5,835.9,410.4z"/>
		<path d="M835.9,417.6c-0.5,0.1-0.9,0.3-1.3,0.6c-0.3,0.3-0.6,0.8-0.7,1.3c0,0.8,0.8,1.3,1.9,1.1c3.6-0.8,7.1-2.1,10.3-3.9
			l69.2-40.3c0.4-0.3,0.8-0.6,1.1-1c0.3-0.4,0.5-0.9,0.5-1.4c0-0.8-0.8-1-1.6-0.5l-69.2,40.3C843,415.4,839.5,416.8,835.9,417.6z"/>
		<path d="M835.9,424.8c-1.1,0.2-1.9,1.1-1.9,1.9c0,0.8,0.8,1.3,1.9,1.1c3.6-0.8,7.1-2.1,10.3-3.9l69.2-40.3c0.4-0.3,0.8-0.6,1.1-1
			c0.3-0.4,0.5-0.9,0.5-1.4c0-0.8-0.8-1-1.6-0.5l-69.2,40.3C843,422.7,839.5,424,835.9,424.8z"/>
		<path d="M835.9,432.1c-0.5,0.1-0.9,0.3-1.3,0.6c-0.3,0.3-0.6,0.8-0.7,1.3c0,0.8,0.8,1.3,1.9,1.1c3.6-0.8,7.1-2.1,10.3-3.9
			l69.2-40.3c0.4-0.3,0.8-0.6,1.1-1c0.3-0.4,0.5-0.9,0.5-1.4c0-0.8-0.8-1-1.6-0.5l-69.2,40.3C843,429.9,839.5,431.3,835.9,432.1z"/>
		<path d="M835.9,439.3c-1.1,0.2-1.9,1.1-1.9,1.9c0,0.8,0.8,1.3,1.9,1.1c3.6-0.8,7.1-2.1,10.3-3.9l69.2-40.3c0.4-0.3,0.8-0.6,1.1-1
			c0.3-0.4,0.5-0.9,0.5-1.4c0-0.8-0.8-1-1.6-0.5l-69.2,40.3C843,437.2,839.5,438.5,835.9,439.3z"/>
		<path d="M835.9,446.6c-0.5,0.1-0.9,0.3-1.3,0.6c-0.3,0.3-0.6,0.8-0.7,1.3c0,0.8,0.8,1.3,1.9,1.1c3.6-0.8,7.1-2.1,10.3-3.9
			l69.2-40.3c0.4-0.3,0.8-0.6,1.1-1c0.3-0.4,0.5-0.9,0.5-1.4c0-0.8-0.8-1-1.6-0.5l-69.2,40.3C843,444.4,839.5,445.7,835.9,446.6z"/>
		<path d="M835.9,453.8c-1.1,0.2-1.9,1.1-1.9,1.9c0,0.8,0.8,1.3,1.9,1.1c3.6-0.8,7.1-2.1,10.3-3.9l69.2-40.3c0.4-0.3,0.8-0.6,1.1-1
			c0.3-0.4,0.5-0.9,0.5-1.4c0-0.8-0.8-1-1.6-0.5l-69.2,40.3C843,451.7,839.5,453,835.9,453.8z"/>
		<path d="M835.9,461c-0.5,0.1-0.9,0.3-1.3,0.6c-0.3,0.3-0.6,0.8-0.7,1.3c0,0.8,0.8,1.3,1.9,1.1c3.6-0.8,7.1-2.1,10.3-3.9l69.2-40.3
			c0.4-0.3,0.8-0.6,1.1-1c0.3-0.4,0.5-0.9,0.5-1.4c0-0.8-0.8-1-1.6-0.5l-69.2,40.3C843,458.9,839.5,460.2,835.9,461z"/>
		<path d="M835.9,468.3c-1.1,0.2-1.9,1.1-1.9,1.9c0,0.8,0.8,1.3,1.9,1.1c3.6-0.8,7.1-2.1,10.3-3.9l69.2-40.3c0.4-0.3,0.8-0.6,1.1-1
			c0.3-0.4,0.5-0.9,0.5-1.4c0-0.8-0.8-1-1.6-0.5l-69.2,40.3C843,466.1,839.5,467.5,835.9,468.3z"/>
		<path d="M835.9,475.5c-1.1,0.2-1.9,1.1-1.9,1.9c0,0.8,0.8,1.3,1.9,1.1c3.6-0.8,7.1-2.1,10.3-3.9l69.2-40.3c0.4-0.3,0.8-0.6,1.1-1
			c0.3-0.4,0.5-0.9,0.5-1.4c0-0.8-0.8-1-1.6-0.5l-69.2,40.3C843,473.4,839.5,474.7,835.9,475.5z"/>
		<path d="M835.9,482.8c-1.1,0.2-1.9,1.1-1.9,1.9c0,0.8,0.8,1.3,1.9,1.1c3.6-0.8,7.1-2.1,10.3-3.9l69.2-40.3
			c0.4-0.3,0.8-0.6,1.1-1.1c0.3-0.4,0.5-0.9,0.5-1.4c0-0.8-0.8-1-1.6-0.5l-69.2,40.3C843,480.6,839.5,482,835.9,482.8z"/>
		<path d="M835.9,490c-1.1,0.2-1.9,1.1-1.9,1.9c0,0.8,0.8,1.3,1.9,1.1c3.6-0.8,7.1-2.1,10.3-3.9l69.2-40.3c0.4-0.3,0.8-0.6,1.1-1
			c0.3-0.4,0.5-0.9,0.5-1.4c0-0.8-0.8-1-1.6-0.5L846.2,486C843,487.9,839.5,489.2,835.9,490z"/>
		<path d="M835.9,497.2c-1.1,0.2-1.9,1.1-1.9,1.9c0,0.8,0.8,1.3,1.9,1.1c3.6-0.8,7.1-2.1,10.3-3.9l69.2-40.3c0.4-0.3,0.8-0.6,1.1-1
			c0.3-0.4,0.5-0.9,0.5-1.4c0-0.8-0.8-1-1.6-0.5l-69.2,40.3C843,495.1,839.5,496.4,835.9,497.2z"/>
		<path d="M835.9,504.5c-1.1,0.2-1.9,1.1-1.9,1.9c0,0.8,0.8,1.3,1.9,1.1c3.6-0.8,7.1-2.1,10.3-3.9l69.2-40.3c0.4-0.3,0.8-0.6,1.1-1
			c0.3-0.4,0.5-0.9,0.5-1.4c0-0.8-0.8-1-1.6-0.5l-69.2,40.3C843,502.3,839.5,503.7,835.9,504.5z"/>
	</g>
	<path class="st14" d="M728.9,436.5l11.3-7.5l-12.3,6.8v14L728.9,436.5z"/>
	<path class="st14" d="M721.8,432.3l22.1-12.9l-21.1,13.5l-1,28.4V432.3z"/>
	<path class="st14" d="M728.9,578.1l-0.4-21.9l-1.1,21L728.9,578.1z"/>
	<path class="st14" d="M723.3,574.8l-0.8-32.6l-0.5,31.9L723.3,574.8z"/>
	<path class="st14" d="M904.9,332.9l15.9-10.1l1.2,0.7L904.9,332.9z"/>
	<path class="st14" d="M916.6,320.3l-27.2,16.3l28.1-15.8L916.6,320.3z"/>
	<path class="st15" d="M737.7,511.5v5.5l76-44.2v-5.5L737.7,511.5z"/>
	<path class="st15" d="M737.7,518.6v5.5l76-44.2v-5.5L737.7,518.6z"/>
	<path class="st15" d="M737.7,526.1v5.5l76-44.2v-5.5L737.7,526.1z"/>
	<path class="st15" d="M737.7,533.4v5.5l41.9-24.6v-5.5L737.7,533.4z"/>
	<path class="st15" d="M858,441.5l60.2-35v5.5L858,447.5V441.5z"/>
	<path class="st15" d="M845.3,456.2l72.8-42.3v5.5l-72.8,42.8c-3.7,2.3-8.1,3.3-12.9,3.9v-5.9C837,459.8,841.4,458.5,845.3,456.2z"
		/>
	<path class="st15" d="M845.3,463.2l72.8-42.3v5.5l-72.8,42.8c-3.7,2.3-8.1,3.3-12.9,3.9v-5.9C837,466.8,841.4,465.5,845.3,463.2z"
		/>
	<path class="st15" d="M845.3,470.2l72.8-42.3v5.5l-72.8,42.8c-3.7,2.3-8.1,3.3-12.9,3.9v-6C837,473.8,841.4,472.4,845.3,470.2z"/>
	<path class="st15" d="M737.7,446.4v5.5l76-44.2v-5.5L737.7,446.4z"/>
	<path class="st15" d="M737.7,453.6v5.5l76-44.2v-5.5L737.7,453.6z"/>
	<path class="st3" d="M881,371.1V425l44.3-25.8v-53.8L881,371.1z"/>
	<path class="st6" d="M936.4,396.2c0,0-2.2,3.7-9.9,8.2l-39,22.7l-4.7-46.8l44.3-25.8l2.9,31.9C930.4,390.9,932.1,395.5,936.4,396.2
		z"/>
	<path class="st4" d="M927.1,354.6l-44.3,25.8l0-8.3l44.3-25.8V354.6z"/>
	<path class="st8" d="M922.5,370.3c-0.6,0.7-1.8,1.5-2.6,0.6l0-0.1c0.5-0.9,0.7-2,0.5-3.1c-0.1-0.2-0.5-0.7-0.8-0.4
		c-0.4,0.4-0.7,0.9-0.8,1.5c-0.1,0.6-0.1,1.2,0.1,1.7c-0.5,0.8-1,1.4-1.7,2c-0.5,0.6-1.3,1-2.1,1.1c-1,0-0.8-1.6-0.8-2.2
		c0-0.3-0.6-1-0.8-0.5c-0.6,1.1-1.3,2.2-2.1,3.2c-0.4,0.6-0.9,1.2-1.5,1.7c-0.2,0.2-0.3,0.3-0.6,0.4c0-0.1,0-0.2,0-0.2
		c0-0.4-0.6-0.9-0.9-0.4c-0.5,1.1-1.3,3.7-2.7,4c-0.4,0.1-0.8-0.3-1.2-0.3c-0.2,0-0.3,0-0.5,0.1c-0.2,0.1-0.3,0.2-0.4,0.3
		c-0.5,0.6-1,1.3-1.4,2c-0.2,0.2-0.5,0.8-0.8,0.9c-0.5,0.1-0.5-0.7-0.5-1.1c-0.1-0.4-0.4-0.7-0.7-0.5c-0.6,0.5-1,1.1-1.3,1.8
		c-0.2-0.4-0.3-0.8-0.3-1.2c0-0.3-0.5-0.8-0.7-0.4c-0.8,1.2-1.7,2.2-2.7,3.2c-0.7,0.6-2.6,2.5-3.5,1.4c-0.3-0.4-0.5-1-0.5-1.5
		c0.9-0.6,1.6-1.3,2.1-2.2c1-1.5,1.6-3.3,1.8-5.1c0-0.2-0.2-0.5-0.4-0.5c-1.3,0-2.2,1.8-2.7,2.7c-0.8,1.5-1.4,3.1-1.6,4.8v0.1
		c-0.4,0.2-0.9,0.2-1.3,0.2c-0.2,0-0.2,0.4,0,0.4c0.4,0.1,0.9,0.1,1.3-0.1c0,0.5,0.1,1,0.4,1.4c0.2,0.4,0.6,0.7,1,1
		c1.2,0.5,2.5-0.6,3.4-1.3c1-0.9,1.9-1.8,2.7-2.9c0.2,0.5,0.4,1,0.8,1.3c0.2,0.2,0.5,0.3,0.6-0.1c0.2-0.6,0.5-1.1,0.8-1.6
		c0.2,0.7,0.7,1.5,1.5,1.2c0.9-0.3,1.5-1.7,2-2.4c0.3-0.4,0.5-1,1.1-1c0.5,0,0.9,0.5,1.6,0.2c1.3-0.6,2-2.1,2.6-3.4
		c0.1,0.1,0.3,0.2,0.5,0.2c0.6,0.1,1.2-0.6,1.6-1c1-1,1.8-2.1,2.5-3.3c0.1,0.3,0.2,0.6,0.3,0.9c0.2,0.3,0.4,0.5,0.7,0.6
		c0.9,0.5,1.9,0.1,2.6-0.4c0.9-0.6,1.7-1.5,2.4-2.4c1.2,1.3,2.8,0.6,3.8-0.5C923.6,370.6,922.9,369.9,922.5,370.3z M892,381
		c0.3-0.8,0.7-1.6,1.2-2.3c0.3-0.5,0.7-1,1.2-1.3c-0.2,1.5-0.8,2.9-1.5,4.1c-0.4,0.8-1,1.5-1.6,2.1C891.3,382.7,891.6,381.8,892,381
		L892,381z"/>
	<path class="st8" d="M904.6,403.2c4-2.5,7.1-6.5,9.4-10.6c2.3-4.1,4.2-9.2,3.3-13.9c-0.1-0.3-0.6-0.6-0.7-0.2
		c-0.2,4.7-1.6,9.3-3.9,13.4c-1.9,3.5-4.4,6.5-7.4,9l0.3-0.9c0.3-0.8,0.5-1.5,0.6-2.3c0.1-0.4,0.1-0.7,0.2-1.1c0-0.4,0-0.8-0.1-1.2
		c0-0.1,0-0.2-0.1-0.2c-0.1-0.1-0.1-0.1-0.2-0.1c-0.2,0-0.2,0.2-0.3,0.3c-0.2,0.3-0.3,0.7-0.4,1.1c-0.1,0.3-0.2,0.7-0.3,1
		c-0.2,0.7-0.5,1.4-0.7,2.1c-0.5,1.4-1.2,2.8-1.8,4.1c-0.2,0.5,0.3,1,0.7,1c1.6,0,3.1-0.3,4.5-0.9c0.7-0.3,1.4-0.6,2-0.9
		c0.7-0.3,1.3-0.6,2-1c0.6-0.4-0.3-1.2-0.8-1.1c-1.3,0.4-2.5,1.2-3.7,1.7c-0.9,0.4-1.9,0.7-2.9,0.8v-0.1
		C904.4,403.2,904.5,403.2,904.6,403.2z"/>
	<path class="st0" d="M848.5,539.7v-1.9l69.8-38.7c0.5-0.3,1.1-0.4,1.6-0.4c0.6,0,1.1,0.1,1.6,0.4l96.8,55v1.8
		c0,0.2-0.1,0.4-0.2,0.6c-0.1,0.2-0.3,0.3-0.5,0.4l-69.8,40.6L848.5,539.7z"/>
	<path class="st3" d="M1018.4,556v-1.8l-1.2-0.7l-69.3,42.2v1.9l69.8-40.6c0.2-0.1,0.4-0.2,0.5-0.4S1018.4,556.2,1018.4,556z"/>
	<path class="st0" d="M848.5,537.9l69.8-40.6c0.5-0.3,1.1-0.4,1.6-0.4c0.6,0,1.1,0.1,1.6,0.4l96.2,55.9c0.2,0.1,0.4,0.2,0.5,0.4
		c0.1,0.2,0.2,0.4,0.2,0.6c0,0.2-0.1,0.4-0.2,0.6c-0.1,0.2-0.3,0.3-0.5,0.4l-69.8,40.6L848.5,537.9z"/>
	<path class="st14" d="M947.9,597.6v-1.9l-99.4-57.8v1.9L947.9,597.6z"/>
	<path class="st0" d="M850.1,540.6l-70.6,37.4l-1.4,2.3v1.9c0,0.5,0.2,0.9,0.4,1.3c0.3,0.4,0.6,0.7,1,0.9l93,54.1
		c0.7,0.4,1.6,0.6,2.4,0.6s1.7-0.2,2.4-0.6l69-40.1v-1.9L850.1,540.6z"/>
	<path class="st3" d="M850.1,540.6l-70.6,37.4l-1.4,2.3v1.9c0,0.5,0.2,0.9,0.4,1.3c0.3,0.4,0.6,0.7,1,0.9l93,54.1
		c0.7,0.4,1.6,0.6,2.4,0.6s1.7-0.2,2.4-0.6l69-40.1v-1.9L850.1,540.6z"/>
	<path class="st0" d="M874.9,637.3c-0.9,0-1.7-0.2-2.5-0.6l-93-54.1c-0.4-0.2-0.8-0.5-1.1-0.9c-0.3-0.4-0.4-0.9-0.4-1.4
		s0.1-1,0.4-1.4c0.3-0.4,0.6-0.7,1.1-0.9l67.5-39.2l99.4,57.8l-69,40.1C876.6,637.1,875.8,637.4,874.9,637.3z"/>
	<path class="st10" d="M850.7,530.3v8.2l96.4,56l67.5-39.3c0.2-0.2,0.4-0.4,0.6-0.6s0.2-0.5,0.2-0.8v-5.2c0-0.3-0.1-0.6-0.2-0.8
		s-0.3-0.5-0.6-0.6l-94.8-54.9c-0.5-0.3-1.1-0.4-1.6-0.4c-0.6,0-1.1,0.2-1.6,0.4L850.7,530.3z"/>
	<path class="st11" d="M850.7,530.3l96.4,56v8.1l-96.4-56V530.3z"/>
	<path class="st8" d="M1014.6,547C1014.6,547,1014.6,547,1014.6,547l-94.9-55c-0.5-0.3-1.1-0.4-1.6-0.4c-0.6,0-1.1,0.2-1.6,0.4
		l-65.5,38.1l-0.2,0.2l96.3,56.1L1014.6,547z"/>
	<path class="st10" d="M847.6,533l-66.7,38.8l-0.7,1v7.2c0,0.2,0.1,0.4,0.2,0.6c0.1,0.2,0.3,0.3,0.5,0.4l93,54.1
		c0.5,0.3,1.1,0.4,1.6,0.4c0.6,0,1.1-0.1,1.6-0.4l66.7-38.8V589L847.6,533z"/>
	<path class="st1" d="M943.9,589l-0.8,0.5l-10.9,6.3l-2,1.2l-53,30.8c-0.5,0.3-1.1,0.4-1.6,0.4c-0.6,0-1.1-0.1-1.6-0.4l-93.1-54.1
		c-0.2-0.1-0.4-0.2-0.5-0.4c-0.1-0.2-0.2-0.4-0.2-0.6c0-0.2,0.1-0.4,0.2-0.6c0.1-0.2,0.3-0.3,0.5-0.4l0.9-0.5l65.8-38.3l95.5,55.5
		l0.2,0.1L943.9,589z"/>
	<path class="st11" d="M875.6,628.2v7.2c-0.6,0-1.1-0.1-1.6-0.4l-93.1-54.1c-0.2-0.1-0.3-0.2-0.5-0.4c-0.1-0.2-0.2-0.4-0.2-0.6v-7.2
		c0,0.2,0.1,0.4,0.2,0.6c0.1,0.2,0.3,0.3,0.5,0.4l93,54.1C874.4,628.1,875,628.2,875.6,628.2z"/>
	<path class="st8" d="M943.9,588l-12,7l-1.9,1.1l-52.8,30.7c-0.5,0.3-1.1,0.4-1.6,0.4c-0.6,0-1.1-0.1-1.6-0.4l-83.3-48.4
		c-0.8-0.4-1.4-0.8-2.1-1.2c-3.4-2.1-5.4-3.9-6.7-5.9l-0.2-0.2c-0.1-0.2-0.2-0.3-0.2-0.5c-0.1-0.4,0-0.8,0.2-1.1
		c0.2-0.3,0.5-0.5,0.9-0.6c2.2-0.6,4.3-1.5,6.3-2.6l0.1,0l58.6-34.1L943.9,588z"/>
	<path class="st11" d="M873,531.9c-0.7,0-1.3-0.2-1.9-0.5l-3.6-2.1c-0.2-0.1-0.4-0.3-0.6-0.5c-0.2-0.2-0.3-0.5-0.3-0.7
		c0-0.2,0.1-0.4,0.2-0.6c0.1-0.2,0.3-0.3,0.5-0.4l49.8-29c0.5-0.2,1.1-0.4,1.7-0.3c0.6,0,1.2,0.2,1.7,0.5l3.6,2.1
		c0.2,0.1,0.4,0.3,0.6,0.5c0.2,0.2,0.2,0.5,0.3,0.7c0,0.2-0.1,0.4-0.2,0.6c-0.1,0.2-0.3,0.3-0.4,0.4l-49.8,29
		C874.1,531.8,873.5,531.9,873,531.9z M918.6,498.1c-0.5,0-0.9,0.1-1.3,0.3l-49.8,29c-0.1,0.1-0.2,0.2-0.3,0.3
		c-0.1,0.1-0.1,0.3-0.1,0.4c0,0.2,0.1,0.4,0.2,0.6c0.1,0.2,0.3,0.3,0.5,0.4l3.6,2.1c0.5,0.3,1,0.4,1.5,0.4c0.5,0,1.1-0.1,1.6-0.3
		l49.8-29c0.1-0.1,0.3-0.2,0.3-0.3c0.1-0.1,0.1-0.3,0.1-0.4c0-0.2-0.1-0.4-0.2-0.6c-0.1-0.2-0.3-0.3-0.5-0.4l-3.6-2
		C919.8,498.3,919.2,498.2,918.6,498.1z"/>
	<path class="st11" d="M922.2,499.3l-52.8,30.7l0.2,0.3l52.8-30.7L922.2,499.3z"/>
	<path class="st11" d="M951,577.1c-0.6,0-1.2-0.1-1.7-0.4l-71.1-41.2c-0.2-0.1-0.4-0.2-0.5-0.4c-0.1-0.2-0.2-0.4-0.2-0.7
		c0-0.2,0.1-0.5,0.2-0.7c0.1-0.2,0.3-0.3,0.5-0.4l49.6-28.8c0.5-0.3,1.1-0.4,1.7-0.4s1.2,0.1,1.7,0.4l71.1,41.2
		c0.2,0.1,0.4,0.2,0.5,0.4c0.1,0.2,0.2,0.4,0.2,0.7c0,0.2-0.1,0.5-0.2,0.7c-0.1,0.2-0.3,0.3-0.5,0.4l-49.6,28.8
		C952.1,577,951.5,577.1,951,577.1z M929.4,504.4c-0.5,0-1.1,0.1-1.5,0.4l-49.6,28.9c-0.2,0-0.3,0.1-0.4,0.3
		c-0.1,0.1-0.2,0.3-0.2,0.5c0,0.2,0.1,0.4,0.2,0.5c0.1,0.1,0.3,0.2,0.4,0.3l71.1,41.3c0.5,0.2,1,0.4,1.5,0.4c0.5,0,1.1-0.1,1.5-0.4
		l49.6-28.9c0.2,0,0.3-0.1,0.5-0.3c0.1-0.1,0.2-0.3,0.2-0.5c0-0.2-0.1-0.4-0.2-0.5c-0.1-0.1-0.3-0.2-0.5-0.3L931,504.8
		C930.5,504.5,930,504.4,929.4,504.4z"/>
	<path class="st11" d="M932.9,505.5l-52.8,30.8l0.2,0.3l52.8-30.8L932.9,505.5z"/>
	<path class="st11" d="M936.4,507.6l-52.8,30.8l0.2,0.3l52.8-30.8L936.4,507.6z"/>
	<path class="st11" d="M940,509.7l-52.8,30.8l0.2,0.3l52.8-30.8L940,509.7z"/>
	<path class="st11" d="M943.5,511.7l-52.8,30.8l0.2,0.3l52.8-30.8L943.5,511.7z"/>
	<path class="st11" d="M947.1,513.8l-52.8,30.8l0.2,0.3l52.8-30.8L947.1,513.8z"/>
	<path class="st11" d="M950.6,515.8l-52.8,30.8l0.2,0.3l52.8-30.8L950.6,515.8z"/>
	<path class="st11" d="M954.1,517.9l-52.8,30.8l0.2,0.3l52.8-30.8L954.1,517.9z"/>
	<path class="st11" d="M957.7,519.9l-52.8,30.8l0.2,0.3l52.8-30.8L957.7,519.9z"/>
	<path class="st11" d="M961.2,522l-52.8,30.8l0.2,0.3l52.8-30.8L961.2,522z"/>
	<path class="st11" d="M964.8,524L912,554.8l0.2,0.3l52.8-30.8L964.8,524z"/>
	<path class="st11" d="M968.3,526.1l-52.8,30.8l0.2,0.3l52.8-30.8L968.3,526.1z"/>
	<path class="st11" d="M971.9,528.2l-52.8,30.8l0.2,0.3l52.8-30.8L971.9,528.2z"/>
	<path class="st11" d="M975.4,530.2L922.6,561l0.2,0.3l52.8-30.8L975.4,530.2z"/>
	<path class="st11" d="M978.9,532.3L926.2,563l0.2,0.3l52.8-30.8L978.9,532.3z"/>
	<path class="st11" d="M982.5,534.3l-52.8,30.8l0.2,0.3l52.8-30.8L982.5,534.3z"/>
	<path class="st11" d="M986,536.4l-52.8,30.8l0.2,0.3l52.8-30.8L986,536.4z"/>
	<path class="st11" d="M989.6,538.4l-52.8,30.8l0.2,0.3l52.8-30.8L989.6,538.4z"/>
	<path class="st11" d="M993.1,540.5l-52.8,30.8l0.2,0.3l52.8-30.8L993.1,540.5z"/>
	<path class="st11" d="M996.7,542.5l-52.8,30.8l0.2,0.3l52.8-30.8L996.7,542.5z"/>
	<path class="st11" d="M1000.2,544.6l-52.8,30.8l0.2,0.3l52.8-30.8L1000.2,544.6z"/>
	<path class="st11" d="M797.4,576c-0.7,0-1.3-0.2-1.9-0.5l-3.6-2.1c-0.2-0.1-0.4-0.3-0.6-0.5c-0.2-0.2-0.3-0.5-0.3-0.7
		c0-0.2,0.1-0.4,0.2-0.6c0.1-0.2,0.3-0.3,0.4-0.4l49.8-29c0.5-0.2,1.1-0.4,1.7-0.3c0.6,0,1.2,0.2,1.7,0.5l3.6,2.1
		c0.2,0.1,0.4,0.3,0.6,0.5c0.2,0.2,0.2,0.5,0.3,0.7c0,0.2-0.1,0.4-0.2,0.6c-0.1,0.2-0.3,0.3-0.5,0.4l-49.8,29
		C798.5,575.9,797.9,576,797.4,576z M843,542.2c-0.5,0-0.9,0.1-1.3,0.3l-49.8,29c-0.1,0.1-0.2,0.2-0.3,0.3c-0.1,0.1-0.1,0.3-0.1,0.4
		c0,0.2,0.1,0.4,0.2,0.6s0.3,0.3,0.5,0.4l3.6,2.1c0.5,0.3,1,0.4,1.5,0.4c0.5,0,1.1-0.1,1.6-0.3l49.8-29c0.1-0.1,0.2-0.2,0.3-0.3
		c0.1-0.1,0.1-0.3,0.1-0.4c0-0.2-0.1-0.4-0.2-0.6c-0.1-0.2-0.3-0.3-0.5-0.4l-3.6-2.1C844.2,542.4,843.6,542.2,843,542.2z"/>
	<path class="st11" d="M846.6,543.4l-52.8,30.7l0.2,0.3l52.8-30.7L846.6,543.4z"/>
	<path class="st11" d="M875.4,621.2c-0.6,0-1.2-0.1-1.7-0.4l-71.1-41.2c-0.2-0.1-0.4-0.2-0.5-0.4c-0.1-0.2-0.2-0.4-0.2-0.7
		c0-0.2,0.1-0.5,0.2-0.7c0.1-0.2,0.3-0.3,0.5-0.4l49.6-28.9c0.5-0.3,1.1-0.4,1.7-0.4c0.6,0,1.2,0.1,1.7,0.4l71.1,41.2
		c0.2,0.1,0.4,0.2,0.5,0.4c0.1,0.2,0.2,0.4,0.2,0.7c0,0.2-0.1,0.5-0.2,0.7c-0.1,0.2-0.3,0.3-0.5,0.4l-49.6,28.9
		C876.5,621.1,876,621.2,875.4,621.2z M853.9,548.5c-0.5,0-1.1,0.1-1.5,0.4l-49.6,28.8c-0.2,0-0.3,0.1-0.5,0.3
		c-0.1,0.1-0.2,0.3-0.2,0.5s0.1,0.4,0.2,0.5c0.1,0.1,0.3,0.2,0.5,0.3l71.1,41.2c0.5,0.2,1,0.4,1.5,0.4c0.5,0,1.1-0.1,1.5-0.4
		l49.6-28.8c0.2-0.1,0.3-0.2,0.4-0.3c0.1-0.1,0.2-0.3,0.2-0.5c0-0.2-0.1-0.4-0.2-0.5c-0.1-0.1-0.2-0.3-0.4-0.3l-71.1-41.2
		C854.9,548.6,854.4,548.5,853.9,548.5z"/>
	<path class="st11" d="M857.3,549.6l-52.8,30.8l0.2,0.3l52.8-30.8L857.3,549.6z"/>
	<path class="st11" d="M860.8,551.7l-52.8,30.8l0.2,0.3L861,552L860.8,551.7z"/>
	<path class="st11" d="M864.4,553.8l-52.8,30.8l0.2,0.3l52.8-30.8L864.4,553.8z"/>
	<path class="st11" d="M867.9,555.8l-52.8,30.8l0.2,0.3l52.8-30.8L867.9,555.8z"/>
	<path class="st11" d="M871.5,557.9l-52.8,30.8l0.2,0.3l52.8-30.8L871.5,557.9z"/>
	<path class="st11" d="M875,559.9l-52.8,30.8l0.2,0.3l52.8-30.8L875,559.9z"/>
	<path class="st11" d="M878.5,562l-52.8,30.8l0.2,0.3l52.8-30.8L878.5,562z"/>
	<path class="st11" d="M882.1,564l-52.8,30.8l0.2,0.3l52.8-30.8L882.1,564z"/>
	<path class="st11" d="M885.6,566.1l-52.8,30.8l0.2,0.3l52.8-30.8L885.6,566.1z"/>
	<path class="st11" d="M889.2,568.1l-52.8,30.8l0.2,0.3l52.8-30.8L889.2,568.1z"/>
	<path class="st11" d="M892.7,570.2L839.9,601l0.2,0.3l52.8-30.8L892.7,570.2z"/>
	<path class="st11" d="M896.3,572.2L843.5,603l0.2,0.3l52.8-30.8L896.3,572.2z"/>
	<path class="st11" d="M899.8,574.3L847,605.1l0.2,0.3l52.8-30.8L899.8,574.3z"/>
	<path class="st11" d="M903.3,576.4l-52.8,30.8l0.2,0.3l52.8-30.8L903.3,576.4z"/>
	<path class="st11" d="M906.9,578.4l-52.8,30.8l0.2,0.3l52.8-30.8L906.9,578.4z"/>
	<path class="st11" d="M910.4,580.5l-52.8,30.8l0.2,0.3l52.8-30.8L910.4,580.5z"/>
	<path class="st11" d="M914,582.5l-52.8,30.8l0.2,0.3l52.8-30.8L914,582.5z"/>
	<path class="st11" d="M917.5,584.6l-52.8,30.8l0.2,0.3l52.8-30.8L917.5,584.6z"/>
	<path class="st11" d="M921.1,586.6l-52.8,30.8l0.2,0.3l52.8-30.8L921.1,586.6z"/>
	<path class="st11" d="M924.6,588.7l-52.8,30.8l0.2,0.3l52.8-30.8L924.6,588.7z"/>
	<path class="st3" d="M946.5,582.9c-0.1,0.1-0.2,0.2-0.4,0.3c-0.2,0.1-0.5,0.2-0.7,0.3c-0.8,0.2-1.7,0.1-2.5-0.3
		c-0.2-0.1-0.4-0.2-0.5-0.4s-0.2-0.4-0.2-0.6c0-0.2,0.1-0.4,0.2-0.6s0.3-0.3,0.5-0.4c0.2-0.1,0.3-0.2,0.5-0.2c0.7-0.2,1.4-0.2,2.1,0
		c0.2,0.1,0.4,0.1,0.6,0.2C946.9,581.8,947,582.4,946.5,582.9z"/>
	<path class="st3" d="M936.8,577.3c-0.1,0.1-0.2,0.2-0.4,0.3c-0.2,0.1-0.5,0.2-0.7,0.3c-0.8,0.2-1.7,0.1-2.5-0.3
		c-0.2-0.1-0.4-0.2-0.5-0.4c-0.1-0.2-0.2-0.4-0.2-0.6c0-0.2,0.1-0.4,0.2-0.6c0.1-0.2,0.3-0.3,0.5-0.4c0.2-0.1,0.4-0.2,0.5-0.2
		c0.7-0.2,1.4-0.2,2.1,0c0.2,0.1,0.4,0.1,0.6,0.2C937.2,576.1,937.3,576.8,936.8,577.3z"/>
	<path class="st3" d="M927.1,571.6c-0.1,0.1-0.2,0.2-0.4,0.3c-0.2,0.1-0.5,0.2-0.7,0.3c-0.8,0.2-1.7,0.1-2.5-0.3
		c-0.2-0.1-0.4-0.2-0.5-0.4c-0.1-0.2-0.2-0.4-0.2-0.6c0-0.2,0.1-0.4,0.2-0.6c0.1-0.2,0.3-0.3,0.5-0.4c0.2-0.1,0.4-0.2,0.5-0.2
		c0.7-0.2,1.4-0.2,2.1,0c0.2,0.1,0.4,0.1,0.6,0.2C927.5,570.4,927.6,571.1,927.1,571.6z"/>
	<path class="st3" d="M917.3,565.9c-0.1,0.1-0.2,0.2-0.4,0.3c-0.2,0.1-0.5,0.2-0.7,0.3c-0.8,0.2-1.7,0.1-2.5-0.3
		c-0.2-0.1-0.4-0.2-0.5-0.4c-0.1-0.2-0.2-0.4-0.2-0.6c0-0.2,0.1-0.4,0.2-0.6c0.1-0.2,0.3-0.3,0.5-0.4c0.2-0.1,0.4-0.2,0.5-0.2
		c0.7-0.2,1.4-0.2,2.1,0c0.2,0.1,0.4,0.1,0.6,0.2C917.7,564.8,917.8,565.4,917.3,565.9z"/>
	<path class="st3" d="M907.6,560.3c-0.1,0.1-0.2,0.2-0.4,0.3c-0.2,0.1-0.5,0.2-0.7,0.3c-0.8,0.2-1.7,0.1-2.5-0.3
		c-0.2-0.1-0.4-0.2-0.5-0.4c-0.1-0.2-0.2-0.4-0.2-0.6c0-0.2,0.1-0.4,0.2-0.6c0.1-0.2,0.3-0.3,0.5-0.4c0.2-0.1,0.4-0.2,0.6-0.2
		c0.7-0.2,1.4-0.2,2.1,0c0.2,0.1,0.4,0.1,0.6,0.2C908,559.1,908.1,559.8,907.6,560.3z"/>
	<path class="st3" d="M897.9,554.6c-0.1,0.1-0.2,0.2-0.4,0.3c-0.2,0.1-0.5,0.2-0.7,0.3c-0.8,0.2-1.7,0.1-2.5-0.3
		c-0.2-0.1-0.4-0.2-0.5-0.4c-0.1-0.2-0.2-0.4-0.2-0.6c0-0.2,0.1-0.4,0.2-0.6c0.1-0.2,0.3-0.3,0.5-0.4c0.2-0.1,0.3-0.2,0.5-0.2
		c0.7-0.2,1.4-0.2,2.1,0c0.2,0.1,0.4,0.1,0.6,0.2C898.2,553.4,898.4,554.1,897.9,554.6z"/>
	<path class="st3" d="M888.1,549c-0.1,0.1-0.2,0.2-0.4,0.3c-0.2,0.1-0.5,0.2-0.7,0.3c-0.8,0.2-1.7,0.1-2.5-0.3
		c-0.2-0.1-0.4-0.2-0.5-0.4c-0.1-0.2-0.2-0.4-0.2-0.6c0-0.2,0.1-0.4,0.2-0.6c0.1-0.2,0.3-0.3,0.5-0.4c0.2-0.1,0.3-0.2,0.5-0.2
		c0.7-0.2,1.4-0.2,2.1,0c0.2,0.1,0.4,0.1,0.6,0.2C888.5,547.8,888.6,548.4,888.1,549z"/>
	<path class="st3" d="M878.4,543.3c-0.1,0.1-0.2,0.2-0.4,0.3c-0.2,0.1-0.5,0.2-0.7,0.3c-0.8,0.2-1.7,0.1-2.5-0.3
		c-0.2-0.1-0.4-0.2-0.5-0.4c-0.1-0.2-0.2-0.4-0.2-0.6c0-0.2,0.1-0.4,0.2-0.6c0.1-0.2,0.3-0.3,0.5-0.4c0.2-0.1,0.4-0.2,0.5-0.2
		c0.7-0.2,1.4-0.2,2.1,0c0.2,0.1,0.4,0.1,0.6,0.2C878.8,542.1,878.9,542.8,878.4,543.3z"/>
	<path class="st3" d="M868.7,537.6c-0.1,0.1-0.2,0.2-0.4,0.3c-0.2,0.1-0.5,0.2-0.7,0.3c-0.8,0.2-1.7,0.1-2.5-0.3
		c-0.2-0.1-0.4-0.2-0.5-0.4c-0.1-0.2-0.2-0.4-0.2-0.6c0-0.2,0.1-0.4,0.2-0.6c0.1-0.2,0.3-0.3,0.5-0.4c0.2-0.1,0.3-0.2,0.5-0.2
		c0.7-0.2,1.4-0.2,2.1,0c0.2,0.1,0.4,0.1,0.6,0.2C869,536.5,869.2,537.1,868.7,537.6z"/>
	<path class="st3" d="M858.9,532c-0.1,0.1-0.2,0.2-0.4,0.3c-0.2,0.1-0.5,0.2-0.7,0.3c-0.8,0.2-1.7,0.1-2.5-0.3
		c-0.2-0.1-0.4-0.2-0.5-0.4s-0.2-0.4-0.2-0.6c0-0.2,0.1-0.4,0.2-0.6s0.3-0.3,0.5-0.4c0.2-0.1,0.4-0.2,0.6-0.2c0.7-0.2,1.4-0.2,2.1,0
		c0.2,0.1,0.4,0.1,0.6,0.2C859.3,530.8,859.4,531.5,858.9,532z"/>
	<path class="st3" d="M934.3,586.4c-0.2,0.1-0.4,0.2-0.5,0.4c-0.1,0.2-0.2,0.4-0.2,0.6c0,0.2,0.1,0.4,0.2,0.6
		c0.1,0.2,0.3,0.3,0.5,0.4c0.5,0.3,1.1,0.4,1.6,0.4c0.6,0,1.1-0.1,1.6-0.4c0.2-0.1,0.4-0.2,0.5-0.4c0.1-0.2,0.2-0.4,0.2-0.6
		s-0.1-0.4-0.2-0.6c-0.1-0.2-0.3-0.3-0.5-0.4c-0.5-0.3-1.1-0.4-1.6-0.4C935.3,586,934.8,586.1,934.3,586.4z"/>
	<path class="st16" d="M945.6,581.1c-0.3-0.3-0.6-0.6-1-0.8c-0.7-0.3-1.4-0.5-2.2-0.5c-0.8,0.1-1.5,0.3-2.1,0.8
		c-2,1.3-3.6,3.2-4.5,5.4c-0.4,0.8-0.7,1.6-0.9,2.5c0.1,0,0.1,0,0.2,0c0.1,0,0.3,0.1,0.4,0.1h0.4h0.2c0.2-0.9,0.6-1.7,1-2.5
		c0.8-1.9,2.2-3.4,3.9-4.5c0.6-0.4,1.3-0.6,2-0.6c0.2,0,0.4,0,0.6,0.1c0.2,0.1,0.4,0.1,0.6,0.2c0.4,0.2,0.7,0.6,0.9,0.9
		c0.2,0.4,0.4,0.8,0.5,1.2c0.3-0.1,0.5-0.1,0.7-0.3c0.1-0.1,0.3-0.2,0.4-0.3C946.3,582.2,946,581.6,945.6,581.1z"/>
	<path class="st3" d="M924.5,580.7c-0.2,0.1-0.4,0.2-0.5,0.4c-0.1,0.2-0.2,0.4-0.2,0.6c0,0.2,0.1,0.4,0.2,0.6
		c0.1,0.2,0.3,0.3,0.5,0.4c0.5,0.3,1.1,0.4,1.6,0.4c0.6,0,1.1-0.1,1.6-0.4c0.2-0.1,0.4-0.2,0.5-0.4c0.1-0.2,0.2-0.4,0.2-0.6
		c0-0.2-0.1-0.4-0.2-0.6c-0.1-0.2-0.3-0.3-0.5-0.4c-0.5-0.3-1.1-0.4-1.6-0.4C925.6,580.3,925,580.4,924.5,580.7z"/>
	<path class="st16" d="M935.8,575.4c-0.3-0.3-0.6-0.6-0.9-0.8c-1.2-0.7-2.8-0.6-4.3,0.3c-2,1.3-3.6,3.2-4.5,5.4
		c-0.4,0.8-0.7,1.6-0.9,2.5h0.1h0.2h0l0.3,0.1c0.1,0,0.3,0,0.4,0h0.2c0.2-0.9,0.6-1.7,1-2.5c0.8-1.9,2.2-3.4,3.9-4.5
		c0.6-0.4,1.3-0.6,2-0.6c0.2,0,0.4,0,0.6,0.1c0.2,0,0.4,0.1,0.5,0.2c0.4,0.2,0.7,0.6,0.9,0.9c0.2,0.4,0.4,0.8,0.5,1.2
		c0.2-0.1,0.5-0.1,0.7-0.3c0.1-0.1,0.3-0.2,0.4-0.3C936.6,576.5,936.3,575.9,935.8,575.4z"/>
	<path class="st3" d="M914.8,575c-0.2,0.1-0.4,0.2-0.5,0.4c-0.1,0.2-0.2,0.4-0.2,0.6c0,0.2,0.1,0.4,0.2,0.6c0.1,0.2,0.3,0.3,0.5,0.4
		c0.5,0.3,1.1,0.4,1.6,0.4c0.6,0,1.1-0.1,1.6-0.4c0.2-0.1,0.4-0.2,0.5-0.4c0.1-0.2,0.2-0.4,0.2-0.6s-0.1-0.4-0.2-0.6
		c-0.1-0.2-0.3-0.3-0.5-0.4c-0.5-0.3-1.1-0.4-1.6-0.4C915.8,574.6,915.3,574.8,914.8,575z"/>
	<path class="st16" d="M926.1,569.7c-0.3-0.3-0.6-0.6-0.9-0.8c-1.2-0.7-2.8-0.6-4.3,0.3c-2,1.3-3.6,3.2-4.5,5.4
		c-0.4,0.8-0.7,1.6-0.9,2.5c0.2,0.1,0.3,0.1,0.5,0.1c0.1,0,0.1,0,0.2,0h0.1c0.1,0,0.3,0,0.4,0c0.2-0.9,0.6-1.7,1-2.5
		c0.9-1.8,2.2-3.4,3.9-4.5c0.6-0.4,1.3-0.6,2-0.6c0.2,0,0.4,0,0.6,0.1c0.2,0,0.4,0.1,0.5,0.2c0.4,0.2,0.7,0.6,0.9,0.9
		c0.2,0.4,0.4,0.8,0.5,1.2c0.3-0.1,0.5-0.2,0.7-0.3c0.1-0.1,0.3-0.2,0.4-0.3C926.9,570.9,926.5,570.3,926.1,569.7z"/>
	<path class="st3" d="M905.1,569.4c-0.2,0.1-0.4,0.2-0.5,0.4c-0.1,0.2-0.2,0.4-0.2,0.6c0,0.2,0.1,0.4,0.2,0.6
		c0.1,0.2,0.3,0.3,0.5,0.4c0.5,0.3,1.1,0.4,1.6,0.4c0.6,0,1.1-0.1,1.6-0.4c0.2-0.1,0.4-0.2,0.5-0.4c0.1-0.2,0.2-0.4,0.2-0.6
		c0-0.2-0.1-0.4-0.2-0.6c-0.1-0.2-0.3-0.3-0.5-0.4c-0.5-0.3-1.1-0.4-1.6-0.4C906.1,569,905.6,569.1,905.1,569.4z"/>
	<path class="st16" d="M916.4,564.1c-0.3-0.3-0.6-0.6-0.9-0.8c-1.2-0.7-2.8-0.6-4.4,0.3c-2,1.3-3.6,3.2-4.5,5.4
		c-0.4,0.8-0.7,1.6-0.9,2.5c0.1,0,0.2,0,0.2,0.1c0.1,0,0.3,0.1,0.4,0.1c0.1,0,0.3,0,0.4,0h0.2c0.2-0.9,0.6-1.7,1-2.5
		c0.9-1.9,2.2-3.4,3.9-4.5c0.6-0.4,1.3-0.6,2-0.6c0.4,0,0.8,0.1,1.2,0.3c0.4,0.2,0.7,0.6,0.9,0.9c0.2,0.4,0.4,0.8,0.5,1.2
		c0.3-0.1,0.5-0.2,0.7-0.3c0.1-0.1,0.3-0.2,0.4-0.3C917.2,565.2,916.8,564.6,916.4,564.1z"/>
	<path class="st3" d="M895.3,563.7c-0.2,0.1-0.4,0.2-0.5,0.4c-0.1,0.2-0.2,0.4-0.2,0.6c0,0.2,0.1,0.4,0.2,0.6
		c0.1,0.2,0.3,0.3,0.5,0.4c0.5,0.3,1.1,0.4,1.6,0.4s1.1-0.1,1.6-0.4c0.2-0.1,0.4-0.2,0.5-0.4c0.1-0.2,0.2-0.4,0.2-0.6
		c0-0.2-0.1-0.4-0.2-0.6c-0.1-0.2-0.3-0.3-0.5-0.4c-0.5-0.3-1.1-0.4-1.6-0.4S895.8,563.5,895.3,563.7z"/>
	<path class="st16" d="M906.6,558.4c-0.3-0.3-0.6-0.6-1-0.8c-0.7-0.3-1.4-0.5-2.2-0.4c-0.8,0.1-1.5,0.3-2.1,0.8
		c-2,1.3-3.6,3.2-4.5,5.4c-0.4,0.8-0.7,1.6-0.9,2.5l0.2,0.1l0.4,0.1c0.1,0,0.3,0,0.4,0h0.2c0.2-0.9,0.6-1.7,1-2.5
		c0.9-1.9,2.2-3.4,3.9-4.5c0.6-0.4,1.3-0.6,2-0.6c0.2,0,0.4,0,0.6,0.1c0.2,0.1,0.4,0.1,0.5,0.2c0.4,0.2,0.7,0.6,0.9,0.9
		c0.2,0.4,0.4,0.8,0.5,1.2c0.3-0.1,0.5-0.2,0.7-0.3c0.1-0.1,0.3-0.2,0.4-0.3C907.4,559.6,907.1,559,906.6,558.4z"/>
	<path class="st3" d="M885.6,558.1c-0.2,0.1-0.4,0.2-0.5,0.4c-0.1,0.2-0.2,0.4-0.2,0.6c0,0.2,0.1,0.4,0.2,0.6
		c0.1,0.2,0.3,0.3,0.5,0.4c0.5,0.3,1.1,0.4,1.6,0.4c0.6,0,1.1-0.1,1.6-0.4c0.2-0.1,0.4-0.2,0.5-0.4c0.1-0.2,0.2-0.4,0.2-0.6
		s-0.1-0.4-0.2-0.6c-0.1-0.2-0.3-0.3-0.5-0.4c-0.5-0.3-1.1-0.4-1.6-0.4C886.6,557.7,886.1,557.8,885.6,558.1z"/>
	<path class="st16" d="M896.9,552.8c-0.3-0.3-0.6-0.6-1-0.8c-0.7-0.3-1.4-0.5-2.2-0.4c-0.8,0.1-1.5,0.3-2.1,0.8
		c-2,1.3-3.6,3.2-4.5,5.4c-0.4,0.8-0.7,1.6-0.9,2.5l0.2,0.1c0.1,0,0.3,0.1,0.4,0.1h0.4h0.2c0.2-0.9,0.6-1.7,1-2.5
		c0.9-1.8,2.2-3.4,3.9-4.5c0.6-0.4,1.3-0.6,2-0.6c0.2,0,0.4,0,0.6,0.1c0.2,0,0.4,0.1,0.5,0.2c0.4,0.2,0.7,0.6,0.9,0.9
		c0.2,0.4,0.4,0.8,0.5,1.2c0.2-0.1,0.5-0.2,0.7-0.3c0.1-0.1,0.3-0.2,0.4-0.3C897.7,553.9,897.3,553.3,896.9,552.8z"/>
	<path class="st3" d="M875.8,552.4c-0.2,0.1-0.4,0.2-0.5,0.4c-0.1,0.2-0.2,0.4-0.2,0.6c0,0.2,0.1,0.4,0.2,0.6
		c0.1,0.2,0.3,0.3,0.5,0.4c0.5,0.3,1.1,0.4,1.6,0.4c0.6,0,1.1-0.1,1.6-0.4c0.2-0.1,0.4-0.2,0.5-0.4c0.1-0.2,0.2-0.4,0.2-0.6
		c0-0.2-0.1-0.4-0.2-0.6c-0.1-0.2-0.3-0.3-0.5-0.4c-0.5-0.3-1.1-0.4-1.6-0.4C876.9,552,876.3,552.1,875.8,552.4z"/>
	<path class="st16" d="M887.2,547.1c-0.3-0.3-0.6-0.6-1-0.8c-1.2-0.7-2.8-0.6-4.3,0.3c-2,1.3-3.6,3.2-4.5,5.4
		c-0.4,0.8-0.7,1.6-0.9,2.5l0.2,0.1c0.1,0,0.2,0,0.4,0.1c0.1,0,0.3,0,0.4,0h0.2c0.2-0.9,0.6-1.7,1-2.5c0.9-1.8,2.2-3.4,3.9-4.5
		c0.6-0.4,1.3-0.6,2-0.6c0.2,0,0.4,0,0.6,0.1c0.2,0,0.4,0.1,0.5,0.2c0.4,0.2,0.7,0.6,0.9,0.9c0.2,0.4,0.4,0.8,0.5,1.2
		c0.3-0.1,0.5-0.2,0.7-0.3c0.1-0.1,0.3-0.2,0.4-0.3C887.9,548.2,887.6,547.6,887.2,547.1z"/>
	<path class="st3" d="M866.1,546.7c-0.2,0.1-0.4,0.2-0.5,0.4c-0.1,0.2-0.2,0.4-0.2,0.6c0,0.2,0.1,0.4,0.2,0.6
		c0.1,0.2,0.3,0.3,0.5,0.4c0.5,0.3,1.1,0.4,1.6,0.4s1.1-0.1,1.6-0.4c0.2-0.1,0.4-0.2,0.5-0.4c0.1-0.2,0.2-0.4,0.2-0.6
		c0-0.2-0.1-0.4-0.2-0.6c-0.1-0.2-0.3-0.3-0.5-0.4c-0.5-0.3-1-0.4-1.6-0.4C867.2,546.3,866.6,546.5,866.1,546.7z"/>
	<path class="st16" d="M877.4,541.4c-0.3-0.3-0.6-0.6-0.9-0.8c-0.7-0.3-1.5-0.5-2.2-0.4c-0.8,0.1-1.5,0.3-2.1,0.8
		c-2,1.3-3.6,3.2-4.5,5.4c-0.4,0.8-0.7,1.6-0.9,2.5l0.2,0.1l0.2,0c0.1,0,0.1,0,0.2,0h0.1c0.1,0,0.3,0,0.4,0c0.2-0.9,0.6-1.7,1-2.5
		c0.9-1.8,2.2-3.4,3.9-4.5c0.6-0.4,1.3-0.6,2-0.6c0.2,0,0.4,0,0.6,0.1c0.2,0,0.4,0.1,0.5,0.2c0.4,0.2,0.7,0.6,0.9,0.9
		c0.2,0.4,0.4,0.8,0.5,1.2c0.3-0.1,0.5-0.1,0.7-0.3c0.1-0.1,0.3-0.2,0.4-0.3C878.2,542.6,877.9,542,877.4,541.4z"/>
	<path class="st3" d="M856.4,541.1c-0.2,0.1-0.4,0.2-0.5,0.4s-0.2,0.4-0.2,0.6c0,0.2,0.1,0.4,0.2,0.6s0.3,0.3,0.5,0.4
		c0.5,0.3,1.1,0.4,1.6,0.4c0.6,0,1.1-0.1,1.6-0.4c0.2-0.1,0.4-0.2,0.5-0.4c0.1-0.2,0.2-0.4,0.2-0.6c0-0.2-0.1-0.4-0.2-0.6
		c-0.1-0.2-0.3-0.3-0.5-0.4c-0.5-0.3-1.1-0.4-1.6-0.4C857.4,540.7,856.9,540.8,856.4,541.1z"/>
	<path class="st16" d="M867.7,535.8c-0.3-0.3-0.6-0.6-1-0.8c-0.7-0.3-1.4-0.5-2.2-0.4c-0.8,0.1-1.5,0.3-2.1,0.8
		c-2,1.3-3.6,3.2-4.5,5.4c-0.4,0.8-0.7,1.6-0.9,2.5l0.2,0.1c0.1,0,0.2,0.1,0.4,0.1c0.1,0,0.3,0,0.4,0h0.2c0.2-0.9,0.6-1.7,1-2.5
		c0.9-1.9,2.2-3.4,3.9-4.5c0.6-0.4,1.3-0.6,2-0.6c0.2,0,0.4,0,0.6,0.1c0.2,0,0.4,0.1,0.5,0.2c0.4,0.2,0.7,0.6,0.9,0.9
		c0.2,0.4,0.4,0.8,0.5,1.2c0.3-0.1,0.5-0.2,0.7-0.3c0.1-0.1,0.3-0.2,0.4-0.3C868.5,536.9,868.2,536.3,867.7,535.8z"/>
	<path class="st3" d="M846.6,535.4c-0.2,0.1-0.4,0.2-0.5,0.4c-0.1,0.2-0.2,0.4-0.2,0.6c0,0.2,0.1,0.4,0.2,0.6
		c0.1,0.2,0.3,0.3,0.5,0.4c0.5,0.3,1.1,0.4,1.6,0.4s1.1-0.1,1.6-0.4c0.2-0.1,0.4-0.2,0.5-0.4c0.1-0.2,0.2-0.4,0.2-0.6
		c0-0.2-0.1-0.4-0.2-0.6c-0.1-0.2-0.3-0.3-0.5-0.4c-0.5-0.3-1.1-0.4-1.6-0.4S847.1,535.2,846.6,535.4z"/>
	<path class="st16" d="M858,530.1c-0.3-0.3-0.6-0.6-0.9-0.8c-0.7-0.3-1.5-0.5-2.2-0.4c-0.8,0.1-1.5,0.3-2.1,0.8
		c-2,1.3-3.6,3.2-4.5,5.4c-0.4,0.8-0.7,1.6-0.9,2.5l0.2,0.1c0.1,0,0.3,0.1,0.4,0.1h0c0.1,0,0.2,0,0.4,0h0.2c0.2-0.9,0.6-1.7,1-2.5
		c0.9-1.9,2.2-3.4,3.9-4.5c0.6-0.4,1.3-0.6,2-0.6c0.2,0,0.4,0,0.6,0.1c0.2,0.1,0.4,0.1,0.5,0.2c0.4,0.2,0.7,0.6,0.9,0.9
		c0.2,0.4,0.4,0.8,0.5,1.2c0.3,0,0.5-0.1,0.7-0.3c0.1-0.1,0.3-0.2,0.4-0.3C858.7,531.2,858.4,530.6,858,530.1z"/>
	<path class="st3" d="M794.1,573.2l44.3-25.8l47.5,27.6l-44.3,25.8L794.1,573.2z"/>
	<path class="st0" d="M801.6,576.3l-7.1-4.4l44.5-25.9l7.1,4.4L801.6,576.3z"/>
	<path class="st17" d="M801.6,576.3l-7.1-4.4l44.5-25.9l7.1,4.4L801.6,576.3z"/>
	<path class="st0" d="M877.1,565.8L846,550.4l-44.4,25.9l39.4,19.2l38.5-22.4c2.4-1.4,4.6-3.7,4.5-6.7
		C882.6,567,880.4,567.3,877.1,565.8z"/>
	<path class="st18" d="M877.1,565.8L846,550.4l-44.4,25.9l39.4,19.2l38.5-22.4c2.4-1.4,4.6-3.7,4.5-6.7
		C882.6,567,880.4,567.3,877.1,565.8z"/>
	<path class="st6" d="M831.4,573.1c0.2,0,0.2-0.4,0.1-0.5c-0.2-0.3-0.5-0.4-0.8-0.5c-0.5-0.6-1-1.1-1.5-1.7
		c-0.6-0.5-1.1-1.1-1.6-1.7c-0.1-0.3-0.3-0.6-0.6-0.9c-0.4-0.3-0.6,0-0.5,0.4c0.1,0.2,0.3,0.5,0.4,0.7c0.5,1.4-0.1,4.3-1.6,3.3
		c-0.5-0.3-0.8-0.8-1.4-0.4c-0.2,0.2-0.4,0.4-0.5,0.6s-0.2,0.5-0.1,0.8c-0.2-0.2-0.4-0.3-0.6-0.3c-0.2,0-0.5,0-0.7,0.1
		c-0.3,0.2-0.5,0.4-0.7,0.7c-0.2,0.3-0.2,0.6-0.2,0.9c-0.4-0.4-1-0.8-1.5-0.3c-0.4,0.5-0.5,1.1-0.4,1.7c-0.5-0.9-1.3-1.6-2.2-2
		c-1.3-0.4-1.9,0.8-2.3,1.8c0,0.2,0.1,0.4,0.2,0.2c0.4-1,1-2,2.2-1.5c0.9,0.5,1.6,1.3,2.1,2.2c0.1,0.2,0.3,0.1,0.3-0.1
		c-0.1-0.6,0-1.1,0.2-1.7c0.4-0.7,1.1,0,1.5,0.4c0.1,0.1,0.3,0,0.3-0.2c-0.1-1.1,1-2.3,1.9-1.1c0.1,0.2,0.4,0.2,0.4-0.1
		c0-0.5-0.1-1.2,0.4-1.5c0.6-0.4,0.8,0.3,1.2,0.5c0.3,0.2,0.7,0.2,1.1,0.1c0.3-0.1,0.6-0.4,0.8-0.7c0.4-0.7,0.7-1.5,0.6-2.4
		c0.3,0.3,0.7,0.6,1,0.9c0.4,0.4,0.8,0.8,1.2,1.3c-0.3,0.2-0.6,0.5-0.8,0.9c-0.1,0.4-0.2,0.8-0.1,1.2c0.3,1,1.9,2.6,2.9,1.4
		C832.5,575,832,574,831.4,573.1z M830.8,575.3c-0.2-0.1-0.5-0.2-0.6-0.4c-0.2-0.2-0.3-0.4-0.3-0.7c0-0.1,0-0.2,0-0.4
		c0-0.1,0.1-0.2,0.1-0.3c0.1-0.1,0.2-0.2,0.3-0.2c0.1-0.1,0.2-0.1,0.3-0.1C830.8,573.5,832.1,575.5,830.8,575.3L830.8,575.3z"/>
	<path class="st6" d="M843.6,560.7c-0.2-0.3-0.6-0.3-0.5,0.1c0.2,1-0.7,1.1-1.4,0.9c-0.8-0.2-1.5-0.6-2-1.3
		c-0.1-0.1-0.2-0.3-0.4-0.4c-0.4-0.4-0.7,0.1-0.5,0.5c0.1,0.1,0.2,0.3,0.4,0.4c0.5,0.7,0.9,1.9,0.4,2.6c-0.8,1.1-1.8-0.5-2.2-1.2
		c-0.3-0.5-0.7-0.1-0.5,0.3c0.2,0.5,0.3,1,0.4,1.5c0.1,0.4,0.3,1.4,0,1.7c-0.6,0.7-1.8-1.2-2-1.8c0,0,0-0.1,0-0.1v-0.1
		c-0.1-0.4-0.7-0.5-0.7,0c0.2,0.9,0.1,1.8-0.3,2.6c-0.6,0.9-1.6,0.3-2.2-0.4c-0.1-0.2-0.2-0.4-0.4-0.6c-0.3-0.3-0.8-0.2-0.6,0.3
		c0.1,0.2,0.2,0.3,0.3,0.5c0.2,0.8,0.2,1.7-0.1,2.6c-0.2,0.4-0.5,0.5-0.6,0c0-0.3,0-0.7,0-1c0-0.4,0-1.1,0.6-0.8
		c0.1,0.1,0.2-0.2,0.1-0.3c-0.3-0.5-0.9-0.7-1.2-0.1c-0.2,0.5-0.3,1-0.3,1.5c0,0.8,0.3,2.2,1.4,1.9c0.8-0.2,1-1.4,1-2.1
		c0-0.3,0-0.6,0-0.8c0.7,0.5,1.6,0.8,2.3,0.2c0.5-0.5,0.8-1.2,0.8-2c0.7,0.9,1.6,1.6,2.3,1.1c0.5-0.4,0.4-1.3,0.4-1.9
		c0-0.3-0.1-0.5-0.1-0.8c0.7,0.6,1.5,1,2.2,0.2c0.2-0.3,0.4-0.7,0.4-1c0.1-0.4,0-0.8-0.1-1.1c0.6,0.4,1.2,0.6,1.9,0.6
		c0.2,0,0.5,0,0.7-0.1c0.2-0.1,0.4-0.2,0.6-0.4c0.1-0.2,0.2-0.5,0.2-0.8C843.9,561.2,843.8,560.9,843.6,560.7z"/>
	<path class="st6" d="M865.1,569.7c0.1-0.2-0.1-0.6-0.4-0.7h-0.1l-0.2-0.3c-1.2-1.6-2.7-3-4.3-4.3c-0.3-0.3-0.6,0.1-0.4,0.4
		c0.2,0.3,0.4,0.7,0.5,1.1c0,0.7-0.6,0.6-1,0.4c-0.3-0.1-0.5-0.3-0.8-0.5c-0.3-0.5-0.7-0.9-1.1-1.3c-0.3-0.3-0.6,0.1-0.4,0.5
		c0.3,0.4,0.6,0.8,1,1.2c0,0.1,0.1,0.2,0.1,0.3c0.1,0.6,0,1.2-0.2,1.8c-0.4,1.4-1.6-0.4-2.1-0.8c-0.1-0.1-0.3-0.2-0.4-0.2
		c-0.2,0-0.3,0-0.5,0c-0.2,0-0.3,0.1-0.4,0.2c-0.1,0.1-0.2,0.2-0.3,0.4c-0.2,0.5-0.2,1.1-0.1,1.7c-0.4-0.4-0.9-0.7-1.4-0.3
		c-0.5,0.4-0.4,1.3-0.4,2c-0.2-0.2-0.4-0.4-0.7-0.5c-0.3-0.1-0.5-0.2-0.8-0.2c-0.6,0.1-0.8,0.6-0.8,1.1c-0.8-0.8-1.9-1.9-2.5-0.6
		c-0.3,0.6,0.1,1.9-0.5,2.4c-0.4,0.3-0.8-0.1-1.2-0.6c-0.2-0.4-0.5-0.7-0.8-1c-0.5-0.3-0.6,0.3-0.3,0.6l0.5,0.6
		c0.2,0.6,0.3,1.3,0.1,1.9c-1.1-0.2-1.9-1.3-2.6-2.1c-0.3-0.4-0.5-0.7-0.8-1c-0.5-0.6-1.1-1.2-1.7-1.7c-0.5-0.3-0.7,0.4-0.3,0.7
		c0.6,0.5,1.2,1,1.8,1.7c0.2,0.2,0.4,0.5,0.6,0.7c0.5,0.7,0.8,1.6,0.9,2.5c0,2-2.3,0.5-3.1-0.1c-0.5-0.3-0.6,0.3-0.3,0.6
		c0.6,0.7,1.9,2.8-0.1,2.7c-1-0.1-2-0.9-2.8-1.4c-0.4-0.3-0.4,0.3-0.3,0.5c0.4,0.7,0.7,2.7-0.3,3.2c-0.1,0.1-0.1,0.4,0,0.4
		c1.1-0.2,1.2-1.8,1-2.9c1.1,0.8,2.6,1.7,3.7,0.7c0.3-0.3,0.4-0.7,0.5-1.1c0-0.4-0.1-0.8-0.3-1.1c1.1,0.6,2.4,0.8,2.7-0.6
		c0.1-0.5,0.1-1,0-1.6c0.6,0.5,1.3,0.8,2.1,0.8c0,0,0.1,0,0.1,0c0,0,0.1,0,0.1-0.1c0,0,0.1-0.1,0.1-0.1c0,0,0-0.1,0-0.1
		c0-0.5,0-1.1,0-1.6c0.5,0.4,1.1,0.6,1.6,0c0.4-0.6,0.3-1.4,0.5-2.2c0.2-1.4,1.6,0.4,2.1,0.8c0.2,0.2,0.6,0.2,0.6-0.2
		c0-0.4,0-1.2,0.6-1.1c0.5,0.2,0.9,0.5,1.2,0.9c0.2,0.2,0.5,0.3,0.6-0.1c0-0.6,0-1.2,0-1.7c0.3-1,1,0.1,1.5,0.5
		c0.3,0.2,0.6-0.1,0.5-0.4c-0.2-0.6-0.3-1.2-0.2-1.9c0.3-1.2,1-0.1,1.4,0.3c0.4,0.4,1.5,1,2,0.4c0.4-0.7,0.6-1.6,0.5-2.5
		c0.3,0.2,0.6,0.3,0.9,0.4c0.3,0.1,0.5,0,0.8-0.1c0.2-0.1,0.4-0.3,0.5-0.6c0.1-0.2,0.1-0.5,0-0.7c0.8,0.7,1.6,1.5,2.3,2.3
		c0.2,0.2,0.4,0.5,0.6,0.7c-0.2,0-0.4,0-0.6,0.1c-0.2,0.1-0.3,0.2-0.5,0.3c-0.1,0.1-0.3,0.3-0.3,0.5c-0.1,0.2-0.1,0.4-0.1,0.6
		c0,0.5,0.1,1,0.4,1.5c0.2,0.5,0.6,0.9,1,1.2c0.6,0.5,1.4,0.7,1.8-0.2c0.2-0.5,0.2-1.1,0.1-1.7C865.7,570.7,865.5,570.2,865.1,569.7
		z M865,572.7c-0.6,0.6-1.4-0.7-1.6-1.1c-0.5-1.1,0.1-1.7,1.1-1.7c0.1,0.2,0.3,0.5,0.4,0.8C865.2,571.2,865.5,572.2,865,572.7z"/>
	<g class="st19">
		<path d="M894.7,574.9c0-0.2-0.2-0.2-0.3,0c0,0.2,0,0.3-0.1,0.5c-0.1,0.2-0.2,0.3-0.3,0.4c-0.1,0.1-0.3,0.2-0.4,0.3
			c-0.2,0.1-0.3,0.1-0.5,0.1c-0.5,0.1-1.1,0.1-1.6,0c0,0,0,0-0.1,0c0,0,0,0-0.1,0c0,0,0,0,0,0c0,0,0,0,0,0.1c-0.1,0.5-0.2,1-0.4,1.4
			c-0.4-0.3-0.8-0.6-1.1-0.1c-0.3,0.4-0.1,2.1-1,1.2c0,0,0,0-0.1-0.1c0,0,0,0-0.1,0c0,0-0.1,0-0.1,0s0,0-0.1,0.1
			c-0.5,0.8-1.1,0.8-1.5,0.3c-0.1-0.3-0.2-0.6-0.4-0.8c-0.1-0.2-0.3,0.1-0.3,0.2c0.1,0.2,0.1,0.5,0.2,0.7c0.1,0.3,0,0.7,0,1
			c-0.1,0.3-0.2,0.6-0.4,0.9c-0.9,0.6-1.9-0.8-2-1.6c0,0,0,0,0-0.1c-0.1-0.3-0.4-0.2-0.4,0.1v0.1c0.1,0.7,0,1.4-0.3,2.1
			c-0.5,0.8-1.1,0.4-1.6-0.2c-0.1-0.2-0.3,0.1-0.3,0.2c0,1-0.8,2.4-1.7,1.2c-0.1-0.2-0.3,0-0.3,0.1c-0.1,0.4-0.2,0.8-0.3,1.2
			c-0.1,0.3-0.1,0.6-0.3,0.8c0,0.4-0.2,0.5-0.4,0.1c-0.2-0.3-0.6-0.8-1-0.7c-0.6,0.1-0.7,0.9-0.7,1.6c-0.4-0.2-0.8-0.4-1.2-0.2
			c-0.3,0.3-0.5,0.8-0.5,1.3c-0.3-0.3-0.7-0.6-1.1-0.3c-0.4,0.2-0.5,1-0.6,1.4c-0.4-0.1-0.8-0.5-1-0.9c-0.1-0.2-0.2,0-0.2,0.1
			c0,0.5,0.1,1.3-0.1,1.7c-0.5,0.8-1.5-0.7-1.7-1.2c-0.1-0.3-0.4-0.2-0.4,0.1c0,0.9,0.3,3.6-1.1,3.4c-0.2,0-0.5-0.1-0.7-0.3
			c0.2-0.7,0.2-1.5-0.1-2.2c-0.3-0.7-0.9-1.2-1.6-1.5c0,0,0,0-0.1,0c0,0-0.1,0-0.1,0c0,0,0,0-0.1,0c0,0,0,0,0,0.1
			c-0.5,1.2,0.4,2.9,1.4,3.9c-0.1,0.2-0.2,0.4-0.4,0.5c-0.5,0.5-1.2,0.2-1.6,0.7c-0.3,0.3-0.1,0.4-0.5,0.7c-0.4,0.3-0.5,0.2-0.9-0.1
			c-0.2-0.2-0.3-0.3-0.4-0.5c-0.1-0.2-0.3,0-0.3,0.1c0,0.4-0.1,1.2-0.5,1.3c-0.5,0.1-0.9-0.3-1.1-0.6c-0.3-0.2-0.3,0-0.3,0.1
			c0,0.1-0.1,0.5-0.1,0.7c0,0.2,0,0.3-0.1,0.5c-0.1,0.4-0.7,1.1-1,0c-0.1-0.3-0.4-0.2-0.4,0.1c0,0.4,0,0.8-0.2,1.1
			c-0.1,0.4-0.3,0.7-0.6,1c-0.3,0.3-0.6,0.5-1,0.5c0.1-0.1,0.1-0.3,0.1-0.4c0-0.5-0.2-1.4-0.8-1.5c-0.6-0.1-0.9,0.3-1,0.8
			c-0.1,0.3,0,0.6,0.1,0.9c0.1,0.3,0.4,0.5,0.6,0.6h0.1c-0.4,0.2-0.8,0.4-1.2,0.6c-0.4,0.1-0.7,0.2-1,0.4c-0.1,0.1-0.2,0.4-0.3,0.4
			c-0.9,0.5-0.5-0.1-0.9-0.1c-0.3,0-0.7,0.1-0.9,0.3c-0.3,0.2-0.4,0.5-0.5,0.8c-0.7-0.7-1.4,0.4-1.6,1.2c-0.3-0.5-0.7-1.2-1.2-1.3
			c-0.5-0.1-1,0.4-1.4,0.7c0,0,0,0.1,0,0c0.5-0.4,1-0.8,1.6-0.3c0.4,0.4,0.7,0.8,1,1.3c0.1,0.1,0.1,0,0.2-0.1
			c0.1-0.6,0.7-2.1,1.5-1.1c0.1,0.1,0.2,0,0.2-0.1c0.2-0.9,0.6-1.1,1.5-0.9c0.3,0.1,0.4,0.2,0.7,0c0.3-0.2,0.3-0.4,0.5-0.6
			c0.1-0.1,0.3-0.1,0.4-0.2c0.4-0.1,0.8-0.3,1.2-0.5c0.2-0.1,0.5-0.3,0.7-0.5c1.3,0.3,2.2-1.1,2.5-2.3c0.1,0.1,0.1,0.1,0.2,0.2
			c0.1,0,0.2,0.1,0.3,0.1c0.1,0,0.2,0,0.3,0c0.1,0,0.2-0.1,0.3-0.2c0.4-0.3,0.4-1,0.4-1.6c0.4,0.3,0.9,0.7,1.4,0.4
			c0.2-0.1,0.3-0.3,0.4-0.5c0.1-0.2,0.1-0.5,0.1-0.7c0.5,0.6,1.2,1,1.8,0.4c0.4-0.5-0.4-0.4,0.9-0.9c0.2-0.1,0.4,0,0.6-0.1
			c0.4-0.2,0.7-0.5,0.9-0.9c0,0,0-0.1,0.1-0.2c0.2,0.1,0.3,0.2,0.5,0.3c1.9,0.8,2-1.5,2-3c0.4,0.6,0.9,1.2,1.5,1.1
			c0.9-0.1,0.7-1.3,0.6-2.2c0.3,0.3,0.6,0.6,1,0.7c0.1,0,0.2,0,0.2-0.1c0.1-0.3,0.1-0.7,0.2-1c0.3-0.7,0.8-0.5,1.2-0.1
			c0.1,0.1,0.2,0,0.2-0.1c0.1-0.4,0.1-1.1,0.5-1.3c0.4-0.2,0.9,0.3,1.1,0.5c0.1,0.1,0.2-0.1,0.2-0.2c0-0.5-0.2-1.7,0.8-1.2
			c0.3,0.2,0.5,0.6,0.8,0.7c0,0,0.1,0,0.1,0c0,0,0.1,0,0.1,0c0.4-0.7,0.6-1.5,0.7-2.3c1,1.1,2-0.1,2.1-1.4c0.5,0.5,1.2,1,1.8,0.3
			c0.4-0.5,0.6-1.1,0.6-1.7c0.5,0.8,1.3,1.5,2.1,1.1c0.3-0.2,0.6-0.5,0.8-0.9c0.1-0.4,0.2-0.8,0.1-1.1l0.2,0.1
			c0.7,0.2,1.1-0.3,1.3-0.8c0.2,0.1,0.3,0.2,0.5,0.4c0.2,0.1,0.1,0,0.1,0c0.3-0.2,0.5-0.6,0.5-1c0-0.2,0-0.4,0.1-0.6
			c0.3-0.4,0.6,0,0.9,0.3c0.1,0.1,0.2,0.1,0.2,0c0.5-0.5,0.3-0.9,0.5-1.5c0.1-0.4,0.1-0.3,0.6-0.2c0.3,0.1,0.6,0.1,0.9,0.1
			C894.4,577,894.9,576.2,894.7,574.9z M856.8,596.8c0-0.3,0.3-0.7,0.6-0.6c0.6,0.2,0.5,0.9,0.3,1.4
			C857.3,597.4,856.8,597.2,856.8,596.8z M866.6,588.2c0.5,0.3,0.9,0.7,1.1,1.2c0.2,0.5,0.3,1.1,0.2,1.6c-0.4-0.3-0.7-0.8-0.9-1.3
			C866.7,589.3,866.6,588.8,866.6,588.2z"/>
		<path d="M916.2,587.4C916.2,587.4,916.2,587.4,916.2,587.4C916.2,587.4,916.2,587.3,916.2,587.4c-0.1-0.1-0.1-0.1-0.1-0.1
			c0,0,0,0-0.1,0c0,0,0,0-0.1,0c0,0,0,0,0,0c0,0,0,0,0,0c0,0,0,0,0,0.1c0,0.2,0,0.3-0.1,0.5c-0.1,0.2-0.2,0.3-0.3,0.4
			c-0.1,0.1-0.3,0.2-0.4,0.3c-0.2,0.1-0.3,0.1-0.5,0.1c-0.5,0.1-1.1,0.1-1.6,0c-0.1,0-0.1,0.1-0.2,0.1c-0.1,0.5-0.2,1-0.4,1.4
			c-0.4-0.3-0.8-0.6-1.1-0.1c-0.3,0.4-0.1,2.1-1,1.2c0,0,0,0-0.1-0.1c0,0,0,0-0.1,0c0,0-0.1,0-0.1,0c0,0,0,0-0.1,0.1
			c-0.5,0.8-1.1,0.8-1.5,0.3c-0.1-0.3-0.2-0.6-0.4-0.8c-0.1-0.2-0.3,0.1-0.2,0.2c0.1,0.2,0.1,0.5,0.2,0.7c0.1,0.3,0,0.7,0,1
			c-0.1,0.3-0.2,0.6-0.4,0.9c-0.9,0.6-1.9-0.9-2-1.6c0,0,0,0,0-0.1c-0.1-0.3-0.4-0.1-0.4,0.1c0,0,0,0.1,0,0.1c0.1,0.7,0,1.4-0.3,2.1
			c-0.5,0.8-1.1,0.4-1.6-0.2c-0.2-0.2-0.3,0.1-0.3,0.2c0,1-0.8,2.4-1.7,1.2c-0.1-0.2-0.3,0-0.3,0.1c-0.1,0.4-0.2,0.8-0.3,1.2
			c-0.1,0.3-0.1,0.6-0.3,0.8c0,0.4-0.2,0.5-0.4,0.1c-0.2-0.3-0.6-0.8-1-0.7c-0.6,0.1-0.7,0.9-0.7,1.6c-0.4-0.2-0.8-0.4-1.2-0.2
			c-0.3,0.3-0.5,0.8-0.5,1.2c-0.3-0.3-0.7-0.6-1.1-0.3c-0.4,0.3-0.5,1-0.6,1.4c-0.5-0.1-0.8-0.5-1-0.9c-0.1-0.2-0.2,0-0.2,0.1
			c0,0.5,0.1,1.3-0.1,1.7c-0.5,0.8-1.5-0.7-1.7-1.2c-0.1-0.3-0.4-0.2-0.4,0.1c0,0.9,0.2,3.6-1.1,3.4c-0.2,0-0.5-0.1-0.7-0.3
			c0.2-0.7,0.2-1.5-0.1-2.2c-0.3-0.7-0.9-1.2-1.6-1.5c0,0,0,0-0.1,0c0,0-0.1,0-0.1,0c0,0,0,0-0.1,0c0,0,0,0,0,0.1
			c-0.5,1.2,0.4,2.9,1.4,3.9c-0.1,0.2-0.2,0.4-0.4,0.5c-0.5,0.5-1.2,0.2-1.6,0.7c-0.3,0.3-0.1,0.4-0.5,0.7c-0.4,0.3-0.5,0.2-0.9-0.1
			c-0.2-0.2-0.3-0.3-0.4-0.5c-0.1-0.2-0.3,0-0.3,0.1c0,0.4-0.1,1.2-0.5,1.3c-0.5,0.1-0.9-0.3-1.1-0.6c-0.1-0.1-0.3,0-0.3,0.1
			c0,0.2-0.1,0.5-0.1,0.7c0,0.2,0,0.3-0.1,0.5c-0.1,0.4-0.7,1.1-1,0c-0.1-0.3-0.4-0.2-0.4,0.1c0,0.8-0.2,1.5-0.7,2.1
			c-0.3,0.3-0.6,0.5-1,0.5c0.1-0.1,0.1-0.3,0.1-0.4c0-0.5-0.2-1.4-0.8-1.5c-0.2,0-0.5,0-0.7,0.2c-0.2,0.1-0.3,0.4-0.4,0.6
			c-0.1,0.3,0,0.6,0.1,0.9c0.1,0.3,0.4,0.5,0.6,0.6l0.1,0c-0.4,0.2-0.8,0.4-1.2,0.5c-0.4,0.1-0.7,0.2-1,0.4
			c-0.1,0.1-0.2,0.4-0.3,0.5c-0.9,0.5-0.5-0.1-0.9-0.1c-0.3,0-0.7,0.1-0.9,0.3c-0.3,0.2-0.4,0.5-0.5,0.9c-0.7-0.8-1.4,0.4-1.6,1.2
			c-0.3-0.5-0.7-1.2-1.2-1.3c-0.5-0.1-1,0.4-1.4,0.7c0.5-0.4,1-0.8,1.6-0.3c0.4,0.4,0.7,0.8,1,1.3c0.1,0.1,0.1,0,0.2-0.1
			c0.1-0.6,0.7-2.1,1.4-1.1c0.1,0.1,0.2,0,0.2-0.1c0.2-0.9,0.6-1.1,1.5-0.9c0.3,0.1,0.4,0.2,0.7,0c0.3-0.2,0.3-0.4,0.5-0.6
			c0.1-0.1,0.3-0.1,0.4-0.2c0.4-0.1,0.8-0.3,1.2-0.5c0.2-0.1,0.5-0.3,0.7-0.5c1.3,0.3,2.2-1.1,2.5-2.3c0.1,0.1,0.1,0.1,0.2,0.2
			c0.1,0,0.2,0.1,0.3,0.1c0.1,0,0.2,0,0.3,0c0.1,0,0.2-0.1,0.3-0.1c0.4-0.3,0.4-1,0.5-1.6c0.4,0.3,0.9,0.7,1.4,0.4
			c0.2-0.1,0.3-0.3,0.5-0.5c0.1-0.2,0.2-0.5,0.1-0.7c0.5,0.6,1.2,1,1.8,0.4c0.4-0.5-0.5-0.4,0.9-0.9c0.2-0.1,0.4,0,0.5-0.1
			c0.4-0.2,0.7-0.5,0.9-0.9c0-0.1,0.1-0.1,0.1-0.2c0.2,0.1,0.3,0.2,0.5,0.3c1.9,0.8,2-1.5,2-3c0.4,0.6,0.9,1.2,1.5,1.1
			c0.9-0.1,0.7-1.3,0.6-2.2c0.3,0.3,0.6,0.6,1,0.7c0.1,0,0.1,0,0.2-0.1c0.1-0.3,0.1-0.7,0.2-1c0.3-0.7,0.8-0.5,1.2-0.1
			c0.1,0.1,0.2,0,0.2-0.1c0.1-0.4,0.1-1.1,0.5-1.3c0.4-0.2,0.9,0.3,1.1,0.5c0.1,0.1,0.2-0.1,0.2-0.2c0-0.5-0.2-1.7,0.8-1.2
			c0.3,0.2,0.5,0.6,0.8,0.7c0,0,0.1,0,0.1,0c0,0,0.1,0,0.1-0.1c0.4-0.7,0.6-1.5,0.7-2.3c1,1.1,2-0.1,2.1-1.4c0.5,0.6,1.2,1,1.8,0.3
			c0.4-0.5,0.6-1.1,0.6-1.7c0.5,0.8,1.3,1.5,2.1,1.1c0.3-0.2,0.6-0.5,0.7-0.9c0.1-0.4,0.2-0.8,0.1-1.1c0.1,0,0.1,0.1,0.2,0.1
			c0.7,0.2,1.1-0.3,1.3-0.8c0.2,0.1,0.3,0.2,0.5,0.4c0,0,0,0,0.1,0c0,0,0.1,0,0.1,0c0.3-0.2,0.5-0.6,0.5-1c0-0.2,0-0.4,0.1-0.6
			c0.3-0.4,0.6,0,0.9,0.3c0,0,0.1,0,0.1,0c0,0,0.1,0,0.1,0c0.5-0.5,0.3-0.9,0.5-1.5c0.1-0.4,0.1-0.3,0.6-0.2
			c0.3,0.1,0.6,0.1,0.9,0.1C915.9,589.4,916.4,588.7,916.2,587.4z M878.3,609.3c0-0.3,0.3-0.7,0.6-0.6c0.6,0.2,0.5,0.9,0.3,1.4
			C878.8,609.9,878.3,609.7,878.3,609.3z M888,600.7c0.5,0.3,0.9,0.7,1.1,1.2c0.2,0.5,0.3,1.1,0.2,1.6c-0.4-0.3-0.7-0.8-0.9-1.3
			C888.1,601.8,888,601.2,888,600.7z"/>
		<path d="M866.3,603c-0.4,0-0.8,0.2-1.2,0.5c-0.5-0.4-1-0.9-1.4-1.4c-0.1-0.2-0.3,0.1-0.3,0.2c0,0.2-0.1,0.5-0.1,0.7
			c-0.1,0.2-0.2,0.4-0.4,0.6c-0.3,0.3-0.6,0.2-1,0.1c-0.4-0.1-0.6,0.1-0.6,0.5c-0.6-0.2-0.9,0.4-1.1,1c-0.1-0.1-0.3-0.2-0.4-0.2
			c-0.2,0-0.3,0-0.5,0.1c-0.3,0.3-0.6,0.7-0.7,1.1c-0.5-0.3-0.7-1.3-1.4-1.1c-0.6,0.1-1,1-1.2,1.5c0,0.1,0.1,0.2,0.1,0
			c0.1-0.5,0.7-1.5,1.4-1.2c0.5,0.2,0.6,0.9,1.1,1.2c0,0,0.1,0,0.1-0.1c0.3-0.7,0.7-1.5,1.4-0.8c0.1,0.1,0.2,0,0.2-0.1
			c0.1-0.5,0.4-1.3,1-0.8c0.1,0.1,0.2-0.1,0.2-0.2c-0.1-0.5,0.4-0.3,0.7-0.2c0.1,0,0.3,0,0.4,0c0.1,0,0.2-0.1,0.3-0.2
			c0.4-0.3,0.7-0.8,0.8-1.3c0.3,0.3,0.6,0.5,0.8,0.7l0.3,0.3c0,0.1,0,0.1-0.1,0.2c0,0.2-0.1,0.3,0,0.5c0,0.2,0.1,0.3,0.2,0.5
			c0.1,0.1,0.2,0.3,0.3,0.4c0.1,0.1,0.3,0.2,0.4,0.2c0.1,0,0.1,0,0.2-0.1c0.1-0.3,0.1-0.6,0-0.8s-0.2-0.5-0.4-0.7
			c0.3-0.2,0.6-0.2,0.9-0.4C866.5,603.4,866.6,603,866.3,603z M865.6,604.9c-0.1,0-0.2-0.1-0.2-0.1c-0.1-0.1-0.1-0.1-0.2-0.2
			c0-0.1-0.1-0.2-0.1-0.2c0-0.1,0-0.2,0-0.3C865.4,604.3,865.6,604.6,865.6,604.9L865.6,604.9z"/>
		<path d="M876.5,594.5C876.5,594.5,876.4,594.5,876.5,594.5c-0.1,0.3-0.1,0.7-0.4,0.8c-0.3,0.1-0.6-0.2-0.8-0.3
			c-0.1-0.1-0.1,0.1-0.2,0.2c0,0.1-0.1,0.8-0.3,0.9c-0.2,0.1-0.7-0.4-0.8-0.6c-0.2-0.2-0.2,0-0.2,0.1c0,0.5-0.2,1.6-0.9,1.5
			c-0.1,0-0.3-0.1-0.4-0.2c0-0.3,0-0.7-0.1-1c-0.1-0.3-0.3-0.6-0.6-0.8c-0.1-0.1-0.2,0.1-0.3,0.2c0,0.7,0.2,1.4,0.6,1.9
			c0,0.4-0.2,0.7-0.5,1c-0.4,0.3-0.7,0-1.1,0c-0.2,0-0.4,0.2-0.4,0.5c-0.5-0.3-0.8,0.2-1.1,0.7c-0.6-0.5-1.1,0.1-1.3,0.7
			c-0.3-0.2-0.6-0.4-1-0.4c-0.6,0-0.5,0.7-0.4,1.1c0,0.2,0.2,0,0.2-0.1c-0.1-0.9,0.9-0.2,1.2,0.1c0.1,0.1,0.3,0,0.3-0.2
			c0-0.6,0.4-1.2,0.9-0.7c0,0,0,0,0.1,0c0,0,0,0,0.1,0c0,0,0,0,0.1,0c0,0,0,0,0,0c0.2-0.4,0.4-1.1,0.8-0.7c0.1,0.1,0.2,0,0.2-0.1
			c0.1-0.8,0.6-0.3,1.1-0.3c0.2-0.1,0.4-0.2,0.6-0.3c0.2-0.2,0.3-0.4,0.3-0.6l0.1-0.3c0.2,0.1,0.4,0.2,0.6,0.2c0.8,0,1-0.9,1-1.7
			c0.2,0.3,0.5,0.6,0.8,0.4c0.3-0.1,0.4-0.7,0.4-1.1c0.3,0.2,0.7,0.4,1.1,0.2C876.6,595.4,876.6,594.9,876.5,594.5z"/>
		<path d="M877.7,594.5C877.7,594.5,877.7,594.5,877.7,594.5L877.7,594.5l-0.1,0.1h0h-0.1h-0.1c-0.1,0-0.2-0.1-0.2-0.1c0,0,0,0,0,0
			s0,0,0,0c0,0,0,0,0,0c0,0,0,0,0,0.1c0,0,0,0.1,0,0.1c0,0,0,0.1,0.1,0.1c0.1,0.1,0.1,0.1,0.2,0.1c0.1,0,0.2,0,0.3,0
			c0.1,0,0.2-0.1,0.2-0.1c0.1-0.1,0.1-0.1,0.1-0.2C877.8,594.5,877.8,594.5,877.7,594.5C877.8,594.5,877.7,594.5,877.7,594.5z"/>
		<path d="M879.1,593C879.1,593,879.1,593,879.1,593c0,0.2-0.1,0.3-0.1,0.4c-0.1,0.1-0.1,0.3-0.2,0.4c-0.3,0.1-0.5,0.2-0.8,0.2
			c-0.2,0.1-0.5,0.1-0.7,0.2c-0.2,0.1-0.1,0.3,0,0.3c0.4-0.1,0.8-0.2,1.2-0.3c0.1,0,0.3-0.1,0.4-0.2c0.1-0.1,0.2-0.3,0.3-0.4
			C879.1,593.5,879.1,593.2,879.1,593z"/>
		<path d="M899,581.2C899,581.2,899,581.2,899,581.2c-0.1-0.1-0.1-0.1-0.1-0.1c0,0,0,0-0.1,0c0,0,0,0,0,0.1c-0.3,0.9-1,0.8-1.4,0
			c-0.1-0.1-0.2,0-0.2,0.1c0,0.7-0.1,1.4-0.4,2c-0.4,0.7-0.7-0.1-1.2-0.1c-0.5,0-0.6,0.6-0.6,1c-0.4-0.3-0.8,0-1,0.6
			c-0.5-0.4-0.9-0.1-1.1,0.5c-0.3-0.2-0.6-0.7-0.9-0.6c-0.5,0.1-0.6,2.7-1.3,1.2c0-0.1-0.1-0.1-0.1-0.1c0-0.1,0-0.1,0-0.1
			s-0.1-0.1-0.1-0.1c-0.1-0.1-0.3-0.2-0.4-0.2c-0.2,0-0.3,0-0.5,0c-0.2,0-0.3,0.1-0.4,0.3c-0.1,0.1-0.2,0.3-0.3,0.4
			c-0.4,0.8-0.7,3.8-2,1.9c-0.1-0.1-0.3,0-0.3,0.1c0,0.6-0.1,1.5-0.8,0.8c-0.1-0.1-0.2,0.1-0.2,0.2c0,0.4,0,1.5-0.7,1
			c-0.3-0.3-0.6-0.7-0.7-1.1c0-0.2-0.3,0-0.2,0.1c0.1,0.8-0.1,1.6-0.5,2.3c-0.1,0.1,0,0.3,0.1,0.2c0.3-0.5,0.6-1.1,0.6-1.7
			c0.2,0.5,0.6,0.9,1,0.8c0.4-0.1,0.6-0.7,0.6-1.1c0.8,0.6,1,0,1-0.8c0.5,0.5,1.1,0.7,1.6-0.1c0.2-0.4,0.3-0.8,0.4-1.2
			c0,0.3,0.2,0.6,0.4,0.8c0.8,0.7,1.3-0.5,1.4-1.3c0.3,0.4,0.6,0.5,1,0c0.1-0.2,0.3-1.3,0.4-1.3c0.1,0,0.7,0.6,0.8,0.6
			c0.1,0.1,0.2,0,0.3-0.1c0-0.5,0.3-0.6,0.8-0.3c0.1,0.1,0.3,0,0.3-0.1c0-0.4,0.3-0.6,0.8-0.5c0.1,0.2,0.3,0.1,0.3-0.1
			c0-0.2,0-0.6,0.1-0.7c0.3-0.4,0.5,0,0.8,0.1c0.1,0.1,0.3,0.1,0.5,0c0.2-0.1,0.3-0.2,0.4-0.3c0.4-0.6,0.6-1.4,0.5-2.1
			c0.5,0.7,1.3,0.8,1.5-0.1c0.9,1,1.6,2.1,2,3.4c0.1,0.2,0.3,0,0.3-0.1C901.2,583.4,899.8,582.4,899,581.2z M889.8,587.6
			c-0.6,0.5-0.7-0.7-0.5-1.1c0.1-0.2,0.2-0.3,0.4-0.4c0.2-0.1,0.4-0.1,0.6-0.1c0,0.3,0,0.5-0.1,0.8
			C890.1,587.1,890,587.4,889.8,587.6z"/>
		<path d="M882.4,604.2c-0.4-1.7-1.2-3.3-2.4-4.6c-0.1-0.1-0.3-0.2-0.4,0c-0.2,0.6,0.1,2-0.6,2.2c-0.5,0.2-0.8-0.8-1.2-1
			c-0.1-0.1-0.2,0-0.2,0.1c-0.4,0.7-0.3,1.7-0.7,2.3c-0.2-0.2-0.4-0.5-0.7-0.3c-0.3,0.2-0.3,0.6-0.4,0.9c-0.6-0.4-0.9,0-1.1,0.7
			c-0.6-0.6-1.1-0.2-1.4,0.6c-0.1-0.1-0.2-0.3-0.4-0.4c-0.1-0.1-0.3-0.2-0.5-0.2c0,0-0.1,0-0.1,0c0,0-0.1,0-0.1,0.1
			c-0.1,0.4-0.2,0.7-0.3,1.1c-0.3,1-0.8,0-1-0.4c-0.1-0.1-0.2-0.2-0.3,0c-0.1,0.5-0.2,0.9-0.3,1.4c0,0.2-0.1,0.3-0.1,0.5
			c-0.1,0.1-0.2,0.2-0.4,0.2c-0.2,0-0.3,0-0.4-0.1c-0.3-0.1-0.4-0.7-0.5-1c0,0,0-0.1,0-0.1c0,0,0,0,0-0.1c0,0,0,0-0.1,0
			c0,0-0.1,0-0.1,0c0,0-0.1,0-0.1,0c0,0,0,0-0.1,0.1c0,0,0,0,0,0.1c0,0,0,0.1,0,0.1c0,0.8,0.2,2.5-0.8,2.9c-0.2,0.1-0.4,0.1-0.6,0
			c0.2-0.4,0.3-0.9,0.2-1.3c-0.2-0.8-1-0.7-1.1,0.1c0,0.4,0.1,0.9,0.3,1.3c-0.3,0.4-0.7,0.8-1.2,1c-0.2,0.1-0.1,0.5,0.1,0.4
			c0.6-0.3,1-0.6,1.4-1.1c0.1,0.1,0.3,0.2,0.5,0.2c0.2,0,0.4,0,0.5-0.1c0.8-0.4,1-1.5,1-2.5c0.3,0.4,0.7,0.8,1.1,0.6
			c0.7-0.3,0.7-1.3,0.8-2c0.2,0.5,0.6,1,1.1,0.7c0.3-0.2,0.3-0.6,0.4-0.8c0-0.1,0.1-0.6,0.2-0.7c0.1-0.1,0.6,0.5,0.7,0.6
			c0,0,0,0,0.1,0.1s0.1,0,0.1,0c0,0,0.1,0,0.1,0c0,0,0,0,0-0.1c0.2-0.6,0.6-1.3,1.2-0.5c0.1,0.1,0.3,0,0.3-0.1
			c0.1-0.3,0.2-1.3,0.9-0.6c0.1,0.1,0.3,0,0.3-0.1c0-0.2,0.1-1.2,0.6-0.5c0.1,0.1,0.2,0.2,0.3,0.1c0.6-0.6,0.5-1.6,0.8-2.3
			c0.4,0.4,0.6,1.3,1.3,1c0.8-0.3,0.7-1.2,0.8-2c0.9,1.2,1.5,2.5,1.9,3.9C882.1,604.7,882.5,604.6,882.4,604.2z"/>
		<path d="M890.8,594.7c-0.1,0.1-0.3,0.2-0.3,0.3c-0.1,0.1-0.1,0.3-0.1,0.4c-0.3-0.3-0.5-0.7-0.9-0.4c-0.1,0.1-0.2,0.2-0.2,0.3
			c-0.1,0.1-0.1,0.2-0.1,0.4c-0.3-0.3-0.7-0.5-1.1-0.2c-0.4,0.3-0.3,0.6-0.3,1c0-0.1-0.1-0.1-0.1-0.2c-0.1,0-0.1-0.1-0.2-0.1
			c-0.2,0-0.4,0.2-0.5,0.4c-0.2,0.4-0.3,0.8-0.4,1.2c-0.3-0.4-0.7-0.8-1.2-1c-0.7-0.2-0.9,0.7-1,1.2c0,0.3,0.3,0.5,0.4,0.1
			c0-0.4,0.2-1.1,0.7-0.8c0.4,0.3,0.8,0.6,1.1,1c0.1,0.1,0.2,0.1,0.3-0.1c0.1-0.4,0.2-0.7,0.3-1.1c0-0.1,0.1-0.4,0.2-0.5
			c0.1-0.1,0.3,0.2,0.4,0.4c0.1,0.1,0.2,0.1,0.3,0c0.1-0.3,0-0.7,0.1-1c0.1-0.1,0.2-0.2,0.3-0.2c0.1,0,0.2,0,0.4,0
			c0.2,0.1,0.4,0.3,0.5,0.5c0.1,0.2,0.3-0.1,0.2-0.2c0-0.1-0.1-0.9,0.3-0.8c0.3,0.1,0.4,0.5,0.7,0.6c0.1,0.1,0.2-0.2,0.2-0.2
			c0-0.3,0.1-0.6,0.2-0.9C890.9,594.8,890.9,594.7,890.8,594.7z"/>
		<path d="M908.9,582.5c-0.1-0.1-0.2,0-0.2,0.1c0,0.7,0,1.3-0.2,2c-0.1,0.4-0.3,0.7-0.7,0.8c-0.4,0-0.6-0.3-1-0.4
			c-1-0.4-1.3,0.8-1.3,1.6c-0.4-0.1-0.7-0.1-0.8,0.2c-0.6-0.5-1,0.1-1.1,0.8c-0.3-0.3-0.6-0.6-1-0.2s-0.3,0.9-0.4,1.4
			c-0.4-0.4-0.8-0.9-1.4-0.5c-0.6,0.4-0.5,1.1-0.6,1.7c-0.3-0.2-0.6-0.3-0.9-0.6c0,0-0.1,0-0.1,0c-0.1,0.2-0.2,0.3-0.3,0.5
			c0,0.1-0.1,0.2-0.1,0.3c-0.1,0.1-0.2,0.2-0.3,0.2c-0.3-0.1-0.6-0.4-0.8-0.6c0,0,0,0-0.1-0.1c0,0,0,0-0.1,0c0,0-0.1,0-0.1,0
			c0,0,0,0-0.1,0.1c-0.2,0.3-0.2,0.6-0.3,0.9c-0.3,0.6-0.6,0.4-1,0c-0.2-0.1-0.3,0-0.3,0.2c0,0.4-0.1,0.8-0.2,1.1
			c-0.4,1.1-1.4-0.1-1.6-0.6c-0.1-0.2-0.3-0.1-0.3,0.1c0,0.6,0.4,2.1-0.3,2.4c-0.2,0.1-0.1,0.4,0.1,0.4c0.7-0.2,0.7-1.2,0.7-2
			c0.4,0.5,0.9,1,1.5,0.7c0.6-0.3,0.6-0.9,0.6-1.5c0.3,0.2,0.7,0.4,1,0.2c0.3-0.4,0.5-0.8,0.5-1.3c0.3,0.2,0.6,0.4,0.9,0.6
			c0,0,0.1,0,0.1,0c0,0,0,0,0.1-0.1c0.1-0.2,0.2-0.5,0.3-0.7c0.3-0.6,0.6-0.1,1.1,0.1c0.1,0,0.1,0,0.2-0.1c0.1-0.5,0-1.5,0.6-1.7
			c0.6-0.2,0.9,0.4,1.2,0.7c0.1,0.1,0.2,0.1,0.3-0.1s0-0.5,0.1-0.8c0.1-0.2,0.6-0.7,0.8-0.6l0.3,0.3c0.2,0.1,0.2-0.1,0.2-0.2
			c-0.1-0.5,0.2-0.7,0.8-0.7c0.1,0.2,0.3,0,0.3-0.2c0.1-0.4,0.3-0.4,0.6-0.1c0.1,0.1,0.2,0,0.2-0.1c0-0.4,0.1-0.7,0.2-1.1
			c0-0.2,0.1-0.3,0.3-0.4c0.1-0.1,0.3-0.1,0.5-0.1c0.1,0,0.3,0.3,0.4,0.4c0.2,0.1,0.4,0.2,0.6,0.2c0.2,0,0.4-0.1,0.6-0.2
			c0.6-0.5,0.6-1.7,0.6-2.5c0.8,1,1.8,2,1.9,3.3c0,0.2,0.2,0.1,0.3,0C911.2,584.7,909.6,583.5,908.9,582.5z"/>
	</g>
	<g class="st19">
		<path d="M933.2,507.6c0-0.2-0.2-0.2-0.3,0c0,0.2,0,0.3-0.1,0.5c-0.1,0.2-0.2,0.3-0.3,0.4c-0.1,0.1-0.3,0.2-0.4,0.3
			c-0.2,0.1-0.3,0.1-0.5,0.1c-0.5,0.1-1.1,0.1-1.6,0c0,0-0.1,0-0.1,0c0,0-0.1,0.1-0.1,0.1c-0.1,0.5-0.2,1-0.4,1.4
			c-0.4-0.3-0.8-0.6-1.1-0.1c-0.3,0.4-0.1,2.1-1,1.2c0,0,0,0-0.1-0.1c0,0,0,0-0.1,0s-0.1,0-0.1,0c0,0,0,0-0.1,0.1
			c-0.5,0.8-1.1,0.8-1.5,0.3c-0.1-0.3-0.2-0.6-0.4-0.8c-0.1-0.2-0.3,0.1-0.3,0.2c0.1,0.2,0.1,0.5,0.2,0.7c0.1,0.3,0,0.7,0,1
			c-0.1,0.3-0.2,0.6-0.4,0.9c-0.9,0.6-1.9-0.9-2-1.6c0,0,0,0,0-0.1c-0.1-0.3-0.4-0.2-0.4,0.1v0.1c0.1,0.7,0,1.4-0.3,2.1
			c-0.5,0.8-1.1,0.4-1.6-0.2c-0.1-0.2-0.3,0.1-0.3,0.2c0,1-0.8,2.4-1.7,1.2c-0.1-0.2-0.3,0-0.3,0.1c-0.1,0.4-0.2,0.8-0.3,1.2
			c-0.1,0.3-0.1,0.6-0.3,0.8c0,0.4-0.2,0.5-0.4,0.1c-0.2-0.3-0.6-0.8-1-0.7c-0.6,0.1-0.7,0.9-0.7,1.6c-0.4-0.2-0.8-0.4-1.2-0.2
			c-0.3,0.3-0.5,0.8-0.5,1.2c-0.3-0.3-0.7-0.6-1.1-0.3c-0.4,0.2-0.5,1-0.6,1.4c-0.4-0.1-0.8-0.5-1-0.9c-0.1-0.2-0.2,0-0.2,0.1
			c0,0.5,0.1,1.3-0.1,1.7c-0.5,0.8-1.5-0.7-1.7-1.2c-0.1-0.3-0.4-0.2-0.4,0.1c0,0.9,0.3,3.6-1.1,3.4c-0.2,0-0.5-0.1-0.7-0.3
			c0.2-0.7,0.2-1.5-0.1-2.2c-0.3-0.7-0.9-1.2-1.6-1.5c0,0,0,0-0.1,0s-0.1,0-0.1,0c0,0,0,0-0.1,0c0,0,0,0,0,0.1
			c-0.5,1.2,0.4,2.9,1.4,3.9c-0.1,0.2-0.2,0.4-0.4,0.5c-0.5,0.5-1.2,0.2-1.6,0.7c-0.3,0.3-0.1,0.4-0.5,0.7c-0.4,0.3-0.5,0.2-0.9-0.1
			c-0.2-0.2-0.3-0.3-0.4-0.5c-0.1-0.2-0.3,0-0.3,0.1c0,0.4-0.1,1.2-0.5,1.3s-0.9-0.3-1.1-0.6s-0.3,0-0.3,0.1c0,0.2-0.1,0.5-0.1,0.7
			c0,0.2,0,0.3-0.1,0.5c-0.1,0.4-0.7,1.1-1,0c-0.1-0.3-0.4-0.2-0.4,0.1c0,0.4,0,0.7-0.2,1.1c-0.1,0.4-0.3,0.7-0.6,1
			c-0.3,0.3-0.6,0.5-1,0.5c0.1-0.1,0.1-0.3,0.1-0.4c0-0.5-0.2-1.4-0.8-1.5c-0.1,0-0.2,0-0.3,0c-0.1,0-0.2,0.1-0.3,0.1
			c-0.1,0.1-0.2,0.2-0.2,0.3c-0.1,0.1-0.1,0.2-0.1,0.3c-0.1,0.3,0,0.6,0.1,0.9c0.1,0.3,0.4,0.5,0.6,0.6h0.1
			c-0.4,0.2-0.8,0.4-1.2,0.5c-0.4,0.1-0.7,0.2-1,0.4c-0.1,0.1-0.2,0.4-0.3,0.4c-0.9,0.5-0.5-0.1-0.9-0.1c-0.3,0-0.7,0.1-0.9,0.3
			c-0.3,0.2-0.4,0.5-0.5,0.8c-0.7-0.7-1.4,0.4-1.6,1.2c-0.3-0.5-0.7-1.2-1.2-1.3c-0.5-0.1-1,0.4-1.4,0.7c0,0,0,0.1,0,0
			c0.5-0.4,1-0.8,1.6-0.3c0.4,0.4,0.7,0.8,1,1.3c0.1,0.1,0.1,0,0.2-0.1c0.1-0.5,0.7-2.1,1.5-1.1c0.1,0.1,0.2,0,0.2-0.1
			c0.2-0.9,0.6-1.1,1.5-0.9c0.3,0.1,0.4,0.2,0.7,0c0.3-0.2,0.3-0.4,0.5-0.6c0.1-0.1,0.3-0.1,0.4-0.2c0.4-0.1,0.8-0.3,1.2-0.5
			c0.2-0.1,0.5-0.3,0.7-0.5c1.3,0.3,2.2-1.1,2.5-2.3c0.1,0.2,0.3,0.2,0.5,0.3c0.2,0,0.4,0,0.6-0.2c0.4-0.3,0.4-1,0.4-1.6
			c0.4,0.3,0.9,0.7,1.4,0.4c0.2-0.1,0.3-0.3,0.4-0.5c0.1-0.2,0.2-0.5,0.1-0.7c0.5,0.6,1.2,1,1.8,0.4c0.4-0.5-0.4-0.4,0.9-0.9
			c0.2-0.1,0.4,0,0.6-0.1c0.4-0.2,0.7-0.5,0.9-0.9c0-0.1,0-0.1,0.1-0.2c0.2,0.1,0.3,0.2,0.5,0.3c1.9,0.8,2-1.5,2-3
			c0.4,0.6,0.9,1.2,1.5,1.1c0.9-0.1,0.7-1.3,0.6-2.2c0.3,0.3,0.6,0.6,1,0.7c0.1,0,0.2,0,0.2-0.1c0-0.3,0.1-0.7,0.2-1
			c0.3-0.7,0.8-0.5,1.2-0.1c0.1,0.1,0.2,0,0.2-0.1c0.1-0.4,0.1-1.1,0.5-1.3c0.4-0.2,0.9,0.3,1.1,0.5c0.1,0.1,0.2-0.1,0.2-0.2
			c0-0.5-0.2-1.7,0.8-1.2c0.3,0.2,0.5,0.6,0.8,0.7c0,0,0.1,0,0.1,0c0,0,0.1,0,0.1-0.1c0.4-0.7,0.6-1.5,0.7-2.3c1,1.1,2-0.1,2.1-1.4
			c0.5,0.5,1.2,1,1.8,0.3c0.4-0.5,0.6-1.1,0.6-1.7c0.5,0.8,1.3,1.5,2.1,1.1c0.3-0.2,0.6-0.5,0.8-0.9s0.2-0.8,0.1-1.1l0.2,0.1
			c0.7,0.2,1.1-0.3,1.3-0.8c0.2,0.1,0.3,0.2,0.5,0.4c0,0,0,0,0.1,0c0,0,0,0,0.1,0c0.3-0.2,0.5-0.6,0.5-1c0-0.2,0-0.4,0.1-0.6
			c0.3-0.4,0.6,0,0.9,0.3c0.1,0.1,0.2,0.1,0.2,0c0.5-0.5,0.3-0.9,0.5-1.5c0.1-0.4,0.1-0.3,0.6-0.2c0.3,0.1,0.6,0.1,0.9,0.1
			C932.9,509.6,933.4,508.9,933.2,507.6z M895.3,529.5c0-0.3,0.3-0.7,0.6-0.6c0.6,0.2,0.5,0.9,0.3,1.4
			C895.8,530.1,895.3,529.9,895.3,529.5z M905.1,520.9c0.5,0.3,0.9,0.7,1.1,1.2c0.2,0.5,0.3,1.1,0.2,1.6c-0.4-0.3-0.7-0.8-1-1.2
			C905.2,522,905,521.5,905.1,520.9L905.1,520.9z"/>
		<path d="M954.7,520.2C954.7,520.1,954.7,520.1,954.7,520.2c-0.1-0.1-0.1-0.1-0.1-0.1s-0.1,0-0.1,0c0,0,0,0.1,0,0.1
			c0,0.4-0.2,0.7-0.4,0.9c-0.3,0.2-0.6,0.4-0.9,0.3c-0.5,0.1-1.1,0.1-1.6,0c-0.1,0-0.1,0-0.2,0.1c-0.1,0.5-0.2,1-0.4,1.4
			c-0.4-0.3-0.8-0.6-1.1-0.1c-0.3,0.4-0.1,2.1-1,1.2c-0.1-0.1-0.2-0.1-0.3,0c-0.5,0.8-1.1,0.8-1.5,0.3c-0.1-0.3-0.2-0.6-0.4-0.8
			c-0.1-0.2-0.3,0.1-0.2,0.2c0.1,0.2,0.1,0.5,0.2,0.7c0.1,0.3,0,0.7,0,1c-0.1,0.3-0.2,0.6-0.4,0.9c-0.9,0.6-1.9-0.9-2-1.6
			c0,0,0,0,0-0.1c-0.1-0.3-0.4-0.2-0.4,0.1c0,0,0,0.1,0,0.1c0.1,0.7,0,1.4-0.3,2.1c-0.5,0.8-1.1,0.4-1.6-0.2c-0.2-0.2-0.3,0-0.3,0.2
			c0,1-0.8,2.4-1.7,1.2c-0.1-0.2-0.3,0-0.3,0.1c-0.1,0.4-0.2,0.8-0.3,1.2c-0.1,0.3-0.1,0.6-0.3,0.8c0,0.4-0.2,0.5-0.4,0.1
			c-0.2-0.3-0.6-0.8-1-0.7c-0.6,0.1-0.7,0.9-0.7,1.6c-0.4-0.2-0.8-0.4-1.2-0.2c-0.4,0.2-0.5,0.8-0.5,1.2c-0.3-0.3-0.7-0.6-1.1-0.3
			c-0.4,0.2-0.5,1-0.6,1.4c-0.5-0.1-0.8-0.5-1-0.9c-0.1-0.2-0.2,0-0.2,0.1c0,0.5,0.1,1.3-0.1,1.7c-0.5,0.8-1.5-0.7-1.7-1.2
			c-0.1-0.3-0.4-0.2-0.4,0.1c0,0.9,0.2,3.6-1.1,3.4c-0.2,0-0.5-0.1-0.7-0.3c0.2-0.7,0.2-1.5-0.1-2.2c-0.3-0.7-0.9-1.2-1.6-1.5
			c0,0,0,0-0.1,0c0,0-0.1,0-0.1,0c0,0,0,0-0.1,0c0,0,0,0,0,0.1c-0.5,1.2,0.4,2.9,1.4,3.9c-0.1,0.2-0.2,0.4-0.4,0.5
			c-0.5,0.5-1.2,0.2-1.6,0.7c-0.3,0.3-0.1,0.4-0.5,0.7c-0.4,0.3-0.6,0.2-0.9-0.1c-0.2-0.2-0.3-0.3-0.4-0.5c-0.1-0.2-0.3,0-0.3,0.1
			c0,0.4-0.1,1.2-0.5,1.3c-0.5,0.1-0.9-0.3-1.1-0.6c-0.1-0.1-0.3,0-0.3,0.1c0,0.2-0.1,0.5-0.1,0.7c0,0.2,0,0.3-0.1,0.5
			c-0.1,0.4-0.7,1.1-1,0c-0.1-0.3-0.4-0.2-0.4,0.1c0,0.8-0.2,1.5-0.7,2.1c-0.3,0.3-0.6,0.5-1,0.5c0.1-0.1,0.1-0.3,0.1-0.4
			c0-0.5-0.2-1.4-0.8-1.5s-0.9,0.3-1,0.8c-0.1,0.3,0,0.6,0.1,0.9c0.1,0.3,0.4,0.5,0.6,0.6h0.1c-0.4,0.2-0.8,0.4-1.2,0.6
			c-0.4,0.1-0.7,0.2-1,0.4c-0.1,0.1-0.2,0.4-0.3,0.4c-0.9,0.5-0.5-0.1-0.9-0.1c-0.3,0-0.7,0.1-0.9,0.3c-0.3,0.2-0.4,0.5-0.5,0.8
			c-0.7-0.7-1.4,0.4-1.6,1.2c-0.3-0.5-0.7-1.2-1.2-1.3c-0.5-0.1-1,0.4-1.4,0.7c0.5-0.4,1-0.8,1.6-0.3c0.4,0.4,0.7,0.8,1,1.3
			c0.1,0.1,0.1,0,0.2-0.1c0.1-0.6,0.7-2.1,1.4-1.1c0.1,0.1,0.2,0,0.2-0.1c0.2-0.9,0.6-1.1,1.5-0.9c0.3,0.1,0.4,0.2,0.7,0
			c0.3-0.2,0.3-0.4,0.5-0.6c0.1-0.1,0.3-0.1,0.4-0.2c0.4-0.1,0.8-0.3,1.2-0.5c0.2-0.1,0.5-0.3,0.7-0.5c1.3,0.3,2.2-1.1,2.5-2.3
			c0.1,0.1,0.1,0.1,0.2,0.2s0.2,0.1,0.3,0.1c0.1,0,0.2,0,0.3,0c0.1,0,0.2-0.1,0.3-0.2c0.4-0.3,0.4-1,0.5-1.6
			c0.4,0.3,0.9,0.7,1.4,0.4c0.2-0.1,0.3-0.3,0.4-0.5c0.1-0.2,0.2-0.5,0.1-0.7c0.5,0.6,1.2,1,1.8,0.4c0.4-0.5-0.5-0.4,0.9-0.9
			c0.2-0.1,0.4,0,0.5-0.1c0.4-0.2,0.7-0.5,0.9-0.9c0-0.1,0.1-0.1,0.1-0.2c0.2,0.1,0.3,0.2,0.5,0.3c1.9,0.8,2-1.5,2-3
			c0.4,0.6,0.9,1.2,1.5,1.1c0.9-0.1,0.7-1.3,0.6-2.2c0.3,0.3,0.6,0.6,1,0.7c0.1,0,0.1,0,0.2-0.1c0-0.3,0.1-0.7,0.2-1
			c0.3-0.7,0.8-0.5,1.2-0.1c0.1,0.1,0.2,0,0.2-0.1c0.1-0.4,0.1-1.1,0.5-1.3c0.4-0.2,0.9,0.3,1.1,0.5c0.1,0.1,0.2-0.1,0.2-0.2
			c0-0.5-0.2-1.7,0.8-1.2c0.3,0.2,0.5,0.6,0.8,0.7c0,0,0.1,0,0.1,0c0,0,0.1,0,0.1-0.1c0.4-0.7,0.6-1.5,0.7-2.3c1,1.1,2-0.1,2.1-1.4
			c0.5,0.5,1.2,1,1.8,0.3c0.4-0.5,0.6-1.1,0.6-1.7c0.5,0.8,1.3,1.5,2.1,1.1c0.3-0.2,0.6-0.5,0.7-0.9c0.1-0.4,0.2-0.8,0.1-1.1
			l0.2,0.1c0.7,0.2,1.1-0.3,1.3-0.8c0.2,0.1,0.3,0.2,0.5,0.4c0,0,0.1,0,0.1,0c0.3-0.2,0.5-0.6,0.5-1c0-0.2,0-0.4,0.1-0.6
			c0.3-0.4,0.6,0,0.8,0.3c0,0,0.1,0,0.1,0s0.1,0,0.1,0c0.5-0.5,0.3-0.9,0.5-1.5c0.1-0.4,0.1-0.3,0.6-0.2c0.3,0.1,0.6,0.1,0.9,0.1
			C954.4,522.1,954.9,521.4,954.7,520.2z M916.8,542c0-0.3,0.3-0.7,0.6-0.6c0.6,0.2,0.5,0.9,0.3,1.4
			C917.3,542.6,916.8,542.4,916.8,542L916.8,542z M926.5,533.4c0.5,0.3,0.9,0.7,1.1,1.2c0.2,0.5,0.3,1.1,0.2,1.6
			c-0.4-0.3-0.7-0.8-0.9-1.2C926.6,534.5,926.5,533.9,926.5,533.4z"/>
		<path d="M904.8,535.7c-0.4,0-0.8,0.2-1.2,0.5c-0.5-0.4-1-0.9-1.4-1.4c-0.1-0.2-0.3,0.1-0.3,0.2c0,0.2-0.1,0.5-0.1,0.7
			c-0.1,0.2-0.2,0.4-0.4,0.6c-0.3,0.3-0.6,0.2-1,0.1c-0.4-0.1-0.6,0.1-0.6,0.5c-0.6-0.2-0.9,0.4-1.1,1c-0.1-0.1-0.3-0.2-0.4-0.2
			c-0.2,0-0.3,0-0.5,0.1c-0.3,0.3-0.6,0.6-0.7,1.1c-0.5-0.3-0.7-1.3-1.4-1.1c-0.6,0.1-1,1-1.2,1.5c0,0.1,0.1,0.2,0.1,0
			c0.1-0.5,0.7-1.5,1.4-1.2c0.5,0.2,0.6,0.9,1.1,1.2c0,0,0,0,0,0s0,0,0,0c0,0,0,0,0,0c0,0,0,0,0,0c0.3-0.7,0.7-1.5,1.4-0.8
			c0.1,0.1,0.2,0,0.2-0.1c0.1-0.5,0.4-1.3,1-0.8c0.1,0.1,0.2-0.1,0.2-0.2c-0.1-0.5,0.4-0.3,0.7-0.2c0.1,0,0.2,0,0.4,0
			c0.1,0,0.2-0.1,0.3-0.2c0.4-0.3,0.7-0.8,0.8-1.3c0.3,0.3,0.5,0.5,0.8,0.7l0.3,0.3c0,0.1,0,0.1-0.1,0.2c0,0.2-0.1,0.3,0,0.5
			c0,0.2,0.1,0.3,0.2,0.5c0.1,0.1,0.2,0.3,0.3,0.4c0.1,0.1,0.3,0.2,0.4,0.2c0.1,0,0.1,0,0.2-0.1c0.1-0.3,0.1-0.6,0-0.8
			c-0.1-0.3-0.2-0.5-0.4-0.7c0.3-0.2,0.6-0.2,0.9-0.4C905,536,905.1,535.7,904.8,535.7z M904.1,537.6c-0.1,0-0.2-0.1-0.2-0.1
			c-0.1-0.1-0.1-0.1-0.2-0.2c0-0.1-0.1-0.2-0.1-0.2c0-0.1,0-0.2,0-0.3C903.9,537,904.1,537.3,904.1,537.6z"/>
		<path d="M915.1,527.2C915.1,527.2,915,527.2,915.1,527.2c-0.1,0.3-0.1,0.7-0.4,0.8c-0.3,0.1-0.6-0.2-0.8-0.3
			c-0.1,0-0.1,0.1-0.2,0.2c0,0.2-0.1,0.8-0.3,0.9c-0.2,0.1-0.7-0.4-0.8-0.5c-0.2-0.2-0.2,0-0.2,0.1c0,0.5-0.2,1.6-0.9,1.5
			c-0.1,0-0.3-0.1-0.4-0.2c0-0.3,0-0.7-0.1-1c-0.1-0.3-0.3-0.6-0.6-0.8c-0.1-0.1-0.2,0.1-0.3,0.2c0,0.7,0.2,1.4,0.6,1.9
			c0,0.4-0.2,0.8-0.5,1c-0.4,0.3-0.7,0-1.1,0c-0.2,0-0.4,0.2-0.4,0.5c-0.5-0.3-0.8,0.2-1.1,0.7c-0.6-0.5-1.1,0.1-1.3,0.7
			c-0.3-0.2-0.6-0.4-1-0.4c-0.6,0-0.5,0.7-0.4,1.1c0,0.2,0.2,0,0.2-0.1c-0.1-0.9,0.9-0.2,1.2,0.1c0.1,0.1,0.3,0,0.3-0.2
			c0-0.6,0.4-1.2,0.9-0.7c0,0,0,0,0.1,0c0,0,0,0,0.1,0c0,0,0,0,0.1,0c0,0,0,0,0,0c0.2-0.4,0.4-1.1,0.9-0.7c0.1,0.1,0.2,0,0.2-0.1
			c0.1-0.7,0.6-0.3,1.1-0.3c0.2-0.1,0.4-0.2,0.6-0.3c0.2-0.2,0.3-0.4,0.3-0.6c0-0.1,0.1-0.2,0.1-0.3c0.2,0.1,0.4,0.2,0.6,0.2
			c0.8,0,1-0.9,1-1.7c0.2,0.3,0.5,0.6,0.8,0.4c0.3-0.2,0.4-0.7,0.4-1.1c0.3,0.2,0.7,0.4,1.1,0.2
			C915.2,528.1,915.1,527.6,915.1,527.2z"/>
		<path d="M916.2,527.2C916.2,527.2,916.2,527.2,916.2,527.2L916.2,527.2l-0.1,0.1h0H916h-0.1h0c-0.1,0-0.2-0.1-0.2-0.1c0,0,0,0,0,0
			c0,0,0,0,0,0c0,0,0,0,0,0c0,0,0,0,0,0.1c0,0,0,0.1,0,0.1c0,0,0,0.1,0,0.1c0.1,0.1,0.1,0.1,0.2,0.1c0.1,0,0.2,0,0.3,0
			c0.1,0,0.2-0.1,0.2-0.1C916.3,527.4,916.3,527.3,916.2,527.2C916.3,527.2,916.3,527.2,916.2,527.2z"/>
		<path d="M917.6,525.7C917.6,525.6,917.6,525.7,917.6,525.7c0,0.2-0.1,0.3-0.1,0.4c-0.1,0.1-0.1,0.3-0.2,0.4
			c-0.3,0.1-0.5,0.2-0.8,0.2c-0.2,0-0.5,0.1-0.7,0.2c-0.1,0-0.1,0.3,0,0.3c0.4-0.1,0.8-0.2,1.2-0.3c0.1,0,0.3-0.1,0.4-0.2
			c0.1-0.1,0.2-0.3,0.3-0.4C917.6,526.1,917.7,525.9,917.6,525.7z"/>
		<path d="M937.5,513.9C937.5,513.9,937.5,513.9,937.5,513.9c-0.1-0.1-0.1-0.1-0.1-0.1c0,0,0,0-0.1,0c0,0,0,0,0,0.1
			c-0.3,0.9-1,0.8-1.4,0c-0.1-0.1-0.2,0-0.2,0.1c0,0.7-0.1,1.4-0.4,2c-0.4,0.7-0.7-0.1-1.2-0.1c-0.5,0-0.6,0.6-0.6,1
			c-0.4-0.3-0.8,0-1,0.6c-0.5-0.4-0.9-0.1-1.1,0.5c-0.3-0.2-0.6-0.6-0.9-0.6c-0.5,0.1-0.6,2.7-1.3,1.1c0-0.1-0.1-0.1-0.1-0.1
			c0-0.1,0-0.1,0-0.1s-0.1-0.1-0.1-0.1c-0.1-0.1-0.3-0.2-0.4-0.2c-0.2,0-0.3,0-0.5,0c-0.2,0-0.3,0.1-0.4,0.3
			c-0.1,0.1-0.2,0.3-0.3,0.4c-0.4,0.8-0.7,3.8-2,1.9c-0.1-0.1-0.3,0-0.3,0.1c0,0.6-0.1,1.5-0.8,0.8c-0.1-0.1-0.2,0.1-0.2,0.2
			c0,0.4,0,1.5-0.7,1c-0.3-0.3-0.6-0.7-0.7-1.1c0-0.2-0.3,0-0.2,0.1c0.1,0.8-0.1,1.6-0.5,2.3c-0.1,0.1,0,0.3,0.1,0.2
			c0.3-0.5,0.6-1.1,0.6-1.7c0.2,0.5,0.6,0.9,1,0.8c0.4-0.1,0.6-0.7,0.6-1.1c0.8,0.6,1,0,1-0.8c0.5,0.5,1.1,0.7,1.6-0.1
			c0.2-0.4,0.3-0.8,0.4-1.2c0,0.3,0.2,0.6,0.4,0.8c0.8,0.7,1.3-0.5,1.4-1.3c0.3,0.4,0.6,0.5,1,0c0.1-0.2,0.3-1.3,0.4-1.3
			c0.1,0,0.7,0.6,0.8,0.6c0.1,0.1,0.2,0,0.3-0.1c0-0.5,0.3-0.6,0.8-0.3c0.1,0.1,0.3,0,0.3-0.1c0-0.4,0.3-0.6,0.8-0.5
			c0.1,0.2,0.3,0.1,0.3-0.1s0-0.6,0.1-0.7c0.3-0.4,0.5,0,0.8,0.1c0.1,0.1,0.3,0.1,0.5,0c0.1-0.1,0.3-0.2,0.4-0.3
			c0.4-0.6,0.6-1.4,0.5-2.1c0.5,0.7,1.3,0.8,1.5-0.1c0.9,1,1.6,2.1,2,3.4c0.1,0.2,0.3,0,0.3-0.1
			C939.7,516.1,938.3,515.1,937.5,513.9z M928.3,520.3c-0.6,0.5-0.7-0.7-0.5-1.1c0.1-0.2,0.2-0.3,0.4-0.4c0.2-0.1,0.4-0.1,0.6-0.1
			c0,0,0,0,0,0C928.8,519.3,928.6,519.9,928.3,520.3z"/>
		<path d="M933.2,551.2c-0.4,0-0.8,0.2-1.2,0.5c-0.5-0.4-1-0.9-1.5-1.4c-0.1-0.2-0.3,0.1-0.3,0.2c0,0.5-0.2,1-0.6,1.3
			c-0.3,0.3-0.6,0.2-1,0.1c-0.4-0.1-0.6,0.1-0.6,0.5c-0.6-0.2-0.9,0.4-1.1,1c-0.1-0.1-0.3-0.2-0.4-0.2c-0.2,0-0.3,0-0.5,0.1
			c-0.3,0.3-0.6,0.6-0.7,1.1c-0.5-0.3-0.7-1.3-1.4-1.1c-0.6,0.1-1.1,1-1.2,1.5c0,0.1,0.1,0.2,0.1,0c0.1-0.5,0.7-1.5,1.4-1.2
			c0.5,0.2,0.6,0.9,1.1,1.2c0,0,0.1,0,0.1-0.1c0.3-0.7,0.6-1.5,1.4-0.8c0.1,0.1,0.2,0,0.2-0.1c0.1-0.5,0.4-1.3,1-0.8
			c0.1,0.1,0.2-0.1,0.2-0.2c-0.1-0.5,0.4-0.3,0.7-0.2c0.1,0,0.3,0,0.4,0c0.1,0,0.2-0.1,0.3-0.2c0.4-0.3,0.7-0.8,0.8-1.3
			c0.3,0.3,0.6,0.5,0.8,0.7l0.3,0.3c0,0.1-0.1,0.1-0.1,0.2c0,0.2-0.1,0.3,0,0.5c0,0.2,0.1,0.3,0.2,0.5c0.1,0.1,0.2,0.3,0.3,0.4
			c0.1,0.1,0.3,0.2,0.4,0.2c0.1,0,0.1,0,0.2-0.1c0.1-0.3,0.1-0.6,0-0.8c-0.1-0.3-0.2-0.5-0.4-0.7c0.3-0.2,0.6-0.2,0.9-0.3
			C933.4,551.6,933.4,551.2,933.2,551.2z M932.5,553.2c-0.1,0-0.2-0.1-0.2-0.1c-0.1-0.1-0.1-0.1-0.2-0.2c0-0.1-0.1-0.2-0.1-0.2
			c0-0.1,0-0.2,0-0.3C932.3,552.6,932.4,552.8,932.5,553.2z"/>
		<path d="M943.4,542.8C943.4,542.7,943.3,542.8,943.4,542.8c-0.1,0.3-0.1,0.7-0.4,0.8c-0.3,0.1-0.6-0.2-0.8-0.3
			c-0.2-0.1-0.2,0.1-0.2,0.2c0,0.2-0.1,0.8-0.3,0.9c-0.2,0.1-0.7-0.4-0.8-0.5c-0.2-0.2-0.2,0-0.2,0.1c0,0.5-0.2,1.6-0.9,1.5
			c-0.1,0-0.3-0.1-0.4-0.2c0-0.3,0-0.7-0.1-1c-0.1-0.3-0.3-0.6-0.6-0.8c-0.2-0.1-0.2,0.1-0.3,0.2c0,0.7,0.2,1.4,0.6,1.9
			c0,0.4-0.2,0.7-0.5,1c-0.4,0.3-0.7,0-1.1,0c-0.2,0-0.4,0.2-0.4,0.5c-0.5-0.3-0.8,0.2-1.1,0.7c-0.6-0.5-1.1,0.1-1.3,0.7
			c-0.3-0.2-0.6-0.4-1-0.4c-0.5,0-0.5,0.7-0.4,1.1c0,0.2,0.2,0,0.2-0.1c-0.1-0.9,0.9-0.2,1.2,0.1c0.1,0.1,0.3,0,0.3-0.2
			c0-0.6,0.4-1.2,0.9-0.7c0,0,0,0,0.1,0c0,0,0,0,0.1,0c0,0,0,0,0.1,0c0,0,0,0,0,0c0.2-0.4,0.4-1.1,0.9-0.7c0.1,0.1,0.2,0,0.2-0.1
			c0.1-0.7,0.6-0.3,1.1-0.3c0.5-0.1,0.7-0.5,0.9-0.9c0-0.1,0.1-0.2,0.1-0.3c0.2,0.1,0.4,0.2,0.6,0.2c0.8,0,1-0.9,1-1.7
			c0.2,0.3,0.5,0.6,0.8,0.4c0.3-0.2,0.4-0.7,0.4-1.1c0.3,0.2,0.7,0.4,1,0.2C943.5,543.6,943.5,543.1,943.4,542.8z"/>
		<path d="M946,541.2C946,541.1,946,541.2,946,541.2c0,0.2-0.1,0.3-0.1,0.4c-0.1,0.1-0.1,0.3-0.2,0.4c-0.3,0.1-0.5,0.2-0.8,0.2
			c-0.2,0-0.5,0.1-0.7,0.2c-0.1,0-0.1,0.3,0,0.3c0.4-0.1,0.8-0.2,1.2-0.3c0.1,0,0.3-0.1,0.4-0.2c0.1-0.1,0.2-0.3,0.3-0.4
			C946,541.6,946,541.4,946,541.2z"/>
		<path d="M965.9,529.4C965.9,529.4,965.8,529.4,965.9,529.4c-0.1-0.1-0.1-0.1-0.1-0.1c0,0,0,0-0.1,0c0,0,0,0,0,0.1
			c-0.3,0.9-1,0.8-1.4,0c-0.1-0.1-0.2,0-0.2,0.1c0.1,0.7-0.1,1.4-0.4,2c-0.4,0.7-0.7-0.1-1.2-0.1c-0.5,0-0.6,0.6-0.6,1
			c-0.4-0.3-0.8,0-1,0.6c-0.5-0.4-0.9-0.1-1.1,0.5c-0.3-0.2-0.6-0.6-0.9-0.6c-0.5,0.1-0.6,2.7-1.3,1.1c0-0.1-0.1-0.1-0.1-0.1
			c0-0.1,0-0.1,0-0.2c0,0-0.1-0.1-0.1-0.1c-0.1-0.1-0.3-0.2-0.4-0.2c-0.2,0-0.3,0-0.5,0c-0.2,0-0.3,0.1-0.4,0.3
			c-0.1,0.1-0.2,0.3-0.3,0.4c-0.4,0.8-0.7,3.8-2,1.9c-0.1-0.1-0.3,0-0.3,0.1c0,0.6-0.1,1.5-0.8,0.8c-0.1-0.1-0.2,0.1-0.2,0.2
			c0,0.4,0,1.5-0.7,1c-0.3-0.3-0.6-0.7-0.7-1.1c0-0.2-0.2,0-0.2,0.1c0.1,0.8-0.1,1.6-0.5,2.3c-0.1,0.1,0,0.3,0.1,0.2
			c0.3-0.5,0.6-1.1,0.6-1.7c0.2,0.5,0.6,0.9,1,0.8c0.4-0.1,0.6-0.7,0.6-1.1c0.8,0.6,1,0,1.1-0.8c0.5,0.5,1.1,0.7,1.6-0.1
			c0.2-0.4,0.3-0.8,0.4-1.2c0,0.3,0.2,0.6,0.4,0.8c0.8,0.7,1.3-0.5,1.4-1.4c0.3,0.4,0.7,0.5,1,0c0.1-0.2,0.3-1.3,0.5-1.3
			c0.1,0,0.7,0.6,0.8,0.6c0.1,0.1,0.2,0,0.3-0.1c0-0.5,0.3-0.6,0.8-0.3c0.1,0.1,0.3,0,0.3-0.1c0-0.4,0.3-0.6,0.8-0.5
			c0.1,0.2,0.3,0.1,0.3-0.1c0-0.2,0-0.6,0.1-0.7c0.3-0.4,0.5,0,0.7,0.1c0.1,0.1,0.3,0.1,0.5,0c0.1-0.1,0.3-0.2,0.4-0.3
			c0.4-0.6,0.6-1.4,0.5-2.1c0.5,0.7,1.3,0.8,1.5-0.1c0.9,1,1.6,2.1,2,3.4c0.1,0.2,0.3,0,0.3-0.1
			C968.1,531.6,966.7,530.6,965.9,529.4z M956.7,535.8c-0.6,0.5-0.7-0.7-0.5-1.1c0.1-0.2,0.2-0.3,0.4-0.4c0.2-0.1,0.4-0.1,0.6-0.1
			c0,0,0,0,0,0C957.2,534.8,957,535.4,956.7,535.8z"/>
		<path d="M920.9,536.9c-0.4-1.7-1.2-3.3-2.4-4.6c-0.1-0.1-0.3-0.2-0.4,0c-0.2,0.6,0.1,2-0.6,2.2c-0.5,0.2-0.8-0.8-1.2-1
			c0,0,0,0-0.1,0c0,0,0,0-0.1,0c0,0,0,0-0.1,0c0,0,0,0,0,0.1c-0.4,0.7-0.3,1.7-0.7,2.3c-0.2-0.2-0.4-0.5-0.7-0.3
			c-0.3,0.2-0.3,0.6-0.4,0.9c-0.6-0.4-0.9,0.1-1.1,0.7c-0.6-0.6-1.1-0.2-1.4,0.6c-0.1-0.1-0.2-0.3-0.4-0.4c-0.1-0.1-0.3-0.2-0.5-0.2
			c0,0-0.1,0-0.1,0c0,0-0.1,0-0.1,0.1c-0.1,0.4-0.2,0.7-0.3,1.1c-0.3,1-0.8,0-1-0.4c-0.1-0.1-0.2-0.2-0.3,0
			c-0.1,0.5-0.2,0.9-0.3,1.4c0,0.2-0.1,0.3-0.1,0.5c-0.1,0.1-0.2,0.2-0.4,0.2c-0.2,0-0.3,0-0.4-0.1c-0.3-0.1-0.4-0.7-0.5-1
			c0,0,0-0.1,0-0.1c0,0,0,0,0-0.1c0,0,0,0-0.1,0c0,0-0.1,0-0.1,0c0,0-0.1,0-0.1,0c0,0,0,0-0.1,0.1c0,0,0,0,0,0.1c0,0,0,0.1,0,0.1
			c0,0.8,0.2,2.5-0.8,2.9c-0.2,0.1-0.4,0.1-0.6,0c0.1-0.2,0.2-0.4,0.2-0.7c0-0.2,0-0.5,0-0.7c-0.2-0.8-1-0.7-1.1,0.1
			c0,0.4,0.1,0.9,0.3,1.3c-0.3,0.4-0.7,0.8-1.2,1c-0.2,0.1-0.1,0.5,0.1,0.4c0.6-0.3,1-0.6,1.4-1.1c0.1,0.1,0.3,0.2,0.5,0.2
			c0.2,0,0.4,0,0.5-0.1c0.8-0.4,1-1.5,1-2.5c0.3,0.4,0.6,0.8,1.1,0.6c0.7-0.3,0.7-1.3,0.8-2c0.2,0.5,0.6,1,1.1,0.7
			c0.3-0.2,0.3-0.6,0.4-0.9c0-0.1,0.1-0.6,0.2-0.7c0.1-0.1,0.6,0.5,0.7,0.6c0.1,0.1,0.2,0.1,0.3,0c0.2-0.6,0.6-1.3,1.2-0.5
			c0.1,0.1,0.3,0,0.3-0.1c0.1-0.3,0.2-1.3,0.9-0.6c0.1,0.1,0.3,0,0.3-0.1c0-0.1,0.1-1.2,0.6-0.6c0.1,0.1,0.2,0.2,0.3,0.1
			c0.6-0.6,0.5-1.6,0.8-2.3c0.4,0.4,0.6,1.3,1.3,1c0.8-0.3,0.7-1.2,0.8-2c0.9,1.2,1.5,2.5,1.9,3.9
			C920.6,537.4,921,537.3,920.9,536.9z"/>
		<path d="M929.3,527.4c-0.1,0.1-0.3,0.2-0.3,0.3c-0.1,0.1-0.1,0.3-0.1,0.4c-0.3-0.3-0.5-0.7-0.9-0.4c-0.1,0.1-0.2,0.2-0.2,0.3
			c-0.1,0.1-0.1,0.2-0.1,0.4c-0.3-0.3-0.6-0.5-1.1-0.2c-0.4,0.3-0.3,0.6-0.3,1c0-0.1-0.1-0.1-0.1-0.2c-0.1,0-0.1-0.1-0.2-0.1
			c-0.2,0-0.4,0.2-0.5,0.4c-0.2,0.4-0.3,0.8-0.4,1.2c-0.3-0.4-0.7-0.8-1.2-1c-0.7-0.2-0.9,0.7-1,1.2c0,0.3,0.3,0.5,0.4,0.1
			c0-0.4,0.2-1.1,0.7-0.8c0.4,0.3,0.8,0.6,1.1,1c0.1,0.1,0.2,0.1,0.3-0.1c0.1-0.4,0.2-0.7,0.3-1.1c0-0.1,0.1-0.4,0.2-0.5
			c0.1-0.1,0.3,0.3,0.4,0.4c0.1,0.1,0.2,0.1,0.3,0c0.1-0.3,0-0.7,0.1-1c0.1-0.1,0.2-0.2,0.3-0.2c0.1,0,0.2,0,0.4,0
			c0.2,0.1,0.4,0.3,0.5,0.5c0.1,0.2,0.3-0.1,0.2-0.2c0-0.2-0.1-0.9,0.3-0.8c0.3,0.1,0.4,0.5,0.7,0.6c0.1,0.1,0.2-0.2,0.2-0.2
			c0-0.3,0.1-0.6,0.2-0.9C929.4,527.5,929.4,527.3,929.3,527.4z"/>
		<path d="M947.4,515.2c-0.1-0.1-0.2,0-0.2,0.1c0,0.7,0,1.3-0.2,2c-0.1,0.4-0.3,0.7-0.7,0.8c-0.4,0-0.6-0.3-1-0.4
			c-1-0.4-1.3,0.8-1.3,1.6c-0.1,0-0.1-0.1-0.2-0.1c-0.1,0-0.2,0-0.2,0c-0.1,0-0.2,0.1-0.2,0.1c-0.1,0.1-0.1,0.1-0.1,0.2
			c-0.6-0.5-1,0.1-1.1,0.8c-0.3-0.3-0.6-0.6-1-0.2c-0.4,0.4-0.3,0.9-0.4,1.4c-0.4-0.4-0.8-0.9-1.4-0.5c-0.6,0.4-0.5,1.1-0.6,1.7
			c-0.3-0.2-0.6-0.3-0.9-0.6c0,0-0.1,0-0.1,0c-0.1,0.2-0.1,0.3-0.3,0.5c0,0.1-0.1,0.2-0.1,0.3c-0.1,0.1-0.2,0.2-0.3,0.2
			c-0.3-0.1-0.6-0.4-0.8-0.6c0,0,0,0-0.1-0.1c0,0,0,0-0.1,0c0,0-0.1,0-0.1,0c0,0,0,0-0.1,0.1c-0.2,0.3-0.2,0.6-0.3,0.9
			c-0.3,0.6-0.6,0.4-1,0c-0.2-0.1-0.3,0-0.3,0.1c0,0.4-0.1,0.8-0.2,1.1c-0.4,1.1-1.4-0.1-1.6-0.6c-0.1-0.2-0.3-0.1-0.3,0.1
			c0,0.6,0.4,2.1-0.3,2.4c-0.2,0-0.1,0.4,0.1,0.4c0.7-0.2,0.7-1.2,0.7-2c0.4,0.5,0.9,1,1.5,0.7c0.6-0.3,0.6-0.9,0.6-1.5
			c0.3,0.2,0.7,0.4,1,0.2c0.3-0.4,0.5-0.8,0.5-1.3c0.3,0.2,0.6,0.4,0.9,0.6c0,0,0.1,0,0.1,0c0,0,0,0,0.1-0.1
			c0.1-0.2,0.2-0.5,0.3-0.7c0.3-0.6,0.6-0.1,1.1,0.1c0.1,0,0.1,0,0.2-0.1c0.1-0.5,0-1.5,0.6-1.7c0.6-0.2,0.9,0.4,1.2,0.7
			c0.1,0.1,0.2,0.1,0.3-0.1c0-0.1,0-0.5,0.1-0.8c0.1-0.2,0.5-0.6,0.8-0.6l0.3,0.3c0.2,0.1,0.2-0.1,0.2-0.2c-0.1-0.5,0.2-0.7,0.8-0.7
			c0.1,0.2,0.3,0,0.3-0.2c0.1-0.4,0.3-0.4,0.6-0.1c0.1,0.1,0.2,0,0.2-0.1c0-0.4,0.1-0.7,0.2-1.1c0-0.2,0.2-0.3,0.3-0.4
			c0.2-0.1,0.3-0.1,0.5-0.1c0.1,0,0.3,0.3,0.4,0.4c0.2,0.1,0.4,0.2,0.6,0.2s0.4-0.1,0.6-0.2c0.6-0.5,0.6-1.7,0.6-2.5
			c0.8,1,1.8,2,1.9,3.3c0,0.2,0.2,0.1,0.3,0C949.7,517.4,948.2,516.2,947.4,515.2z"/>
		<path d="M932.7,545.8c-0.4-1.7-1.2-3.3-2.4-4.6c-0.1-0.1-0.3-0.2-0.4,0c-0.2,0.6,0.1,2-0.6,2.2c-0.5,0.2-0.8-0.8-1.2-1
			c0,0,0,0-0.1,0c0,0,0,0-0.1,0c0,0,0,0-0.1,0c0,0,0,0,0,0.1c-0.4,0.7-0.3,1.7-0.7,2.3c-0.2-0.2-0.4-0.5-0.7-0.3
			c-0.3,0.2-0.3,0.6-0.4,0.9c-0.6-0.4-0.9,0-1.1,0.7c-0.6-0.6-1.1-0.2-1.4,0.6c-0.1-0.1-0.2-0.3-0.4-0.4c-0.1-0.1-0.3-0.2-0.5-0.2
			c0,0-0.1,0-0.1,0c0,0-0.1,0-0.1,0.1c-0.1,0.4-0.2,0.7-0.3,1.1c-0.3,1-0.8,0-1-0.4c-0.1-0.1-0.2-0.2-0.3,0
			c-0.1,0.5-0.2,0.9-0.3,1.4c0,0.2-0.1,0.3-0.1,0.5c-0.1,0.1-0.2,0.2-0.4,0.2c-0.2,0-0.3,0-0.4-0.1c-0.3-0.1-0.4-0.7-0.5-1
			c-0.1-0.3-0.4-0.2-0.4,0c0,0.8,0.2,2.5-0.8,2.9c-0.2,0.1-0.4,0.1-0.6,0c0.1-0.2,0.2-0.4,0.2-0.7c0-0.2,0-0.5,0-0.7
			c-0.2-0.8-1-0.7-1.1,0.1c0,0.4,0.1,0.9,0.3,1.3c-0.3,0.4-0.7,0.8-1.2,1c-0.2,0.1-0.1,0.5,0.1,0.4c0.6-0.3,1-0.7,1.4-1.1
			c0.1,0.1,0.3,0.2,0.5,0.2c0.2,0,0.4,0,0.6-0.1c0.8-0.4,1-1.5,1-2.5c0.3,0.4,0.6,0.8,1.1,0.6c0.7-0.3,0.7-1.3,0.8-2
			c0.3,0.5,0.6,1,1.1,0.7c0.3-0.2,0.3-0.6,0.4-0.9c0-0.1,0.1-0.6,0.2-0.7c0.1-0.1,0.6,0.5,0.7,0.6c0,0,0,0,0.1,0.1c0,0,0.1,0,0.1,0
			c0,0,0.1,0,0.1,0c0,0,0,0,0-0.1c0.2-0.6,0.6-1.3,1.2-0.5c0.1,0.1,0.3,0,0.3-0.1c0.1-0.3,0.2-1.3,0.9-0.6c0.1,0.1,0.3,0,0.3-0.1
			c0-0.2,0.1-1.2,0.6-0.5c0.1,0.1,0.2,0.2,0.3,0.1c0.6-0.6,0.5-1.6,0.8-2.3c0.4,0.4,0.6,1.3,1.3,1c0.7-0.3,0.7-1.2,0.8-2
			c0.9,1.2,1.5,2.5,1.9,3.9C932.4,546.3,932.8,546.2,932.7,545.8z"/>
		<path d="M941.1,536.3c-0.1,0.1-0.3,0.2-0.3,0.3c-0.1,0.1-0.1,0.3-0.1,0.4c-0.3-0.2-0.5-0.7-0.9-0.4c-0.1,0.1-0.2,0.2-0.2,0.3
			c-0.1,0.1-0.1,0.2-0.1,0.4c-0.3-0.3-0.7-0.5-1.1-0.2c-0.4,0.3-0.3,0.7-0.3,1c-0.1-0.1-0.2-0.2-0.3-0.3c-0.2,0-0.4,0.2-0.5,0.4
			c-0.2,0.4-0.3,0.8-0.4,1.2c-0.3-0.4-0.7-0.8-1.2-1c-0.7-0.2-0.9,0.7-1,1.2c0,0.3,0.3,0.5,0.4,0.1s0.2-1.1,0.7-0.8
			c0.4,0.3,0.8,0.6,1.1,1c0.1,0.1,0.2,0.1,0.3-0.1c0.1-0.4,0.2-0.7,0.3-1.1c0-0.1,0.1-0.4,0.2-0.5c0.1-0.1,0.3,0.2,0.4,0.4
			c0,0.1,0.2,0.1,0.3-0.1c0.1-0.3,0-0.7,0.1-1c0.1-0.1,0.2-0.2,0.3-0.2c0.1,0,0.2,0,0.4,0c0.2,0.1,0.4,0.3,0.5,0.5
			c0.1,0.2,0.3-0.1,0.2-0.2c0-0.1-0.1-0.9,0.3-0.8c0.3,0.1,0.4,0.5,0.7,0.6c0.1,0.1,0.2-0.2,0.2-0.2c0-0.3,0.1-0.6,0.2-0.9
			C941.2,536.4,941.2,536.2,941.1,536.3z"/>
		<path d="M959.2,524.1c-0.1-0.1-0.2,0-0.2,0.1c0,0.7,0,1.3-0.2,2c-0.1,0.4-0.3,0.7-0.7,0.8c-0.4,0-0.6-0.3-1-0.4
			c-1-0.4-1.3,0.8-1.3,1.6c-0.4-0.1-0.7-0.1-0.8,0.2c-0.6-0.5-1,0.1-1.1,0.8c-0.3-0.3-0.6-0.6-1-0.2c-0.4,0.4-0.3,0.9-0.4,1.4
			c-0.4-0.4-0.8-0.9-1.4-0.5c-0.6,0.4-0.5,1.1-0.6,1.7c-0.3-0.2-0.6-0.3-0.9-0.6c0,0-0.1,0-0.1,0c-0.1,0.2-0.1,0.3-0.3,0.5
			c0,0.1-0.1,0.2-0.1,0.3c-0.1,0.1-0.2,0.2-0.3,0.2c-0.3-0.1-0.6-0.4-0.8-0.6c0,0,0,0-0.1-0.1c0,0,0,0-0.1,0c0,0-0.1,0-0.1,0
			c0,0,0,0-0.1,0.1c-0.2,0.3-0.2,0.6-0.3,0.9c-0.3,0.6-0.6,0.4-1,0c-0.2-0.1-0.3,0-0.3,0.2c0,0.4-0.1,0.8-0.2,1.1
			c-0.4,1.1-1.4-0.1-1.6-0.6c-0.1-0.2-0.3-0.1-0.3,0.1c0,0.6,0.4,2.1-0.3,2.4c-0.2,0.1-0.1,0.4,0.1,0.4c0.7-0.2,0.7-1.2,0.7-2
			c0.4,0.5,0.9,1,1.5,0.7c0.6-0.3,0.6-0.9,0.6-1.5c0.3,0.2,0.7,0.4,1,0.2c0.3-0.4,0.5-0.8,0.5-1.3c0.3,0.2,0.6,0.4,0.9,0.6
			c0.1,0,0.1,0,0.1,0c0.1-0.2,0.2-0.5,0.3-0.7c0.3-0.6,0.6-0.1,1.1,0.1c0.1,0,0.1,0,0.2-0.1c0.1-0.5,0-1.5,0.6-1.7
			c0.6-0.2,0.9,0.4,1.2,0.7c0,0,0,0,0.1,0c0,0,0.1,0,0.1,0c0,0,0.1,0,0.1,0c0,0,0,0,0-0.1c0.1-0.2,0-0.5,0.1-0.8
			c0.1-0.2,0.5-0.7,0.8-0.6l0.3,0.3c0.2,0.1,0.2-0.1,0.2-0.2c-0.1-0.5,0.2-0.7,0.8-0.7c0.1,0.2,0.3,0,0.3-0.2
			c0.1-0.4,0.3-0.4,0.6-0.1c0.1,0.1,0.2,0,0.2-0.1c0-0.4,0.1-0.7,0.2-1.1c0-0.2,0.1-0.3,0.3-0.4c0.1-0.1,0.3-0.1,0.5-0.1
			c0.1,0,0.3,0.3,0.4,0.4c0.2,0.1,0.4,0.2,0.6,0.2s0.4-0.1,0.6-0.2c0.6-0.5,0.6-1.7,0.6-2.5c0.8,1,1.8,2,1.9,3.2
			c0,0.2,0.2,0.1,0.3,0C961.5,526.4,960,525.1,959.2,524.1z"/>
	</g>
	<path class="st20" d="M958,545.4L940.9,557l-3.4,2.3c-0.2,0.1-0.4,0.2-0.6,0.2c-0.2,0-0.4-0.1-0.6-0.2c-0.2-0.1-0.3-0.3-0.4-0.5
		c-0.1-0.2-0.1-0.4,0-0.7l1.5-4.4l6.5-19.4l5.7,4.4L958,545.4z"/>
	<path class="st21" d="M949.5,538.8l-11.2,17.1l-2.1,3.3c-0.1-0.1-0.2-0.3-0.3-0.5c0-0.2,0-0.4,0-0.6l1.5-4.4l6.5-19.3L949.5,538.8z
		"/>
	<path class="st4" d="M940.9,557l-3.4,2.3c-0.2,0.1-0.4,0.2-0.6,0.2s-0.4-0.1-0.6-0.2c-0.2-0.1-0.3-0.3-0.4-0.5
		c-0.1-0.2-0.1-0.4,0-0.7l1.5-4.4c0.1,0.8,0.4,1.6,0.9,2.2c0.3,0.4,0.7,0.6,1.2,0.8C940,556.9,940.5,557,940.9,557z"/>
	<path class="st16" d="M1017.6,436.2l-1.5,1.9l-1.7,2.3l-70.6,93.9c0.3,2.9,1.7,5.6,3.9,7.5c3.2,3,7.6,4.6,10.3,3.6l70.2-93.3
		l3.3-4.4C1029.2,450.4,1015.3,439,1017.6,436.2z"/>
	<path class="st4" d="M1016.2,438.1l-1.7,2.3l-70.6,93.9c0.3,2.9,1.7,5.6,3.9,7.5l72.2-97L1016.2,438.1z"/>
	<path class="st1" d="M1012.2,443.4l-3.2,4.2c-1,1.2,1,4,3.8,6.5c3.7,3.4,8.8,6.5,10.1,4.9l3.2-4.3c-1.3,1.6-6.5-1.4-10.2-4.8
		c-2.7-2.5-4.6-5.1-3.9-6.4C1012.1,443.5,1012.1,443.5,1012.2,443.4z"/>
	<path class="st8" d="M1016,450c-2.7-2.5-4.6-5.1-3.9-6.4c0-0.1,0-0.1,0.1-0.1l-3.2,4.2c-1,1.2,1,4,3.8,6.5L1016,450L1016,450z"/>
	<path class="st0" d="M1011.4,444.5c-2.2,2.8,11.7,14.2,13.9,11.4l3.2-4.2c-2.2,2.8-16.2-8.6-13.9-11.4L1011.4,444.5z"/>
	<path class="st1" d="M1017.6,436.2l-3.2,4.2c-2.2,2.7,11.1,13.9,13.7,11.7c0.1,0,0.1-0.1,0.1-0.1l3.2-4.2
		C1029.2,450.4,1015.3,439,1017.6,436.2z"/>
	<path class="st22" d="M1031.1,418.5l-13.4,17.8c-1,1.2,1,3.9,3.8,6.5c3.7,3.4,8.8,6.5,10.1,5l12.9-17.1c3.3-3.7-2.9-11.2-8.2-13
		C1034.2,416.9,1032.3,417.1,1031.1,418.5z"/>
	<path class="st20" d="M1031.1,418.5l-13.4,17.8c-1,1.2,1,3.9,3.8,6.5l13.7-17.3c0,0-3.6-3.6-3.3-5.7c0.3-2.1,2.1-2.5,4.3-2.1
		C1034.2,416.9,1032.3,417.1,1031.1,418.5z"/>
	<path class="st23" d="M1014.6,440.3l-3.2,4.2c-1,1.2,1,4,3.8,6.5l3.2-4.3C1015.6,444.2,1013.6,441.5,1014.6,440.3z"/>
	<path class="st8" d="M1017.6,436.2l-3.2,4.2c-1,1.2,1,4,3.8,6.5l3.2-4.2C1018.6,440.2,1016.7,437.4,1017.6,436.2z"/>
	<path class="st20" d="M1014.7,463.4c3.3-0.1,6.5,1.3,8.2,6.8c2,6.1,5.5,19.2,4.2,23.6c-1,3.5-15.8,5.1-15.8,5.1l-1.8-7.6l9-1.9
		l-1.3-7.1L1014.7,463.4z"/>
	<path class="st0" d="M1014.4,463c5.8-0.4,7.4,3,8.6,6.6c1.4,4.1,2.6,8.3,3.5,12.5c0,0-1.5,5-8.3,4.1l-0.9-3.2L1014.4,463z"/>
	<path class="st6" d="M979.4,603.3c-0.3,1.5,0.2,2.3,2.2,3.5c2,1.1,5.1,1.5,8.3,0.6c3.2-1,4.8-2.4,6.1-2.7c1.3-0.3,4.7-0.4,6-0.8
		c1.3-0.4,1.3-1.1,1.3-2.7L979.4,603.3z"/>
	<path class="st0" d="M1002,593.4c0.4,1.2,0.7,2.4,1,3.6c0.3,1.3,0.7,3.6,0.2,4.6c-0.5,1-2.3,1.7-5.1,1.7c-1.8,0-4.7,1.2-6.6,2.3
		c-2,1-4.2,1.3-6.3,0.9c-2.5-0.3-5.1-1.8-5.5-2.8c-0.4-1.1-0.5-1.8,5.4-4.4c0.1,0,6.9-2.6,9.7-5.7L1002,593.4z"/>
	<g class="st13">
		<path d="M1002,593.4c0.4,1.2,0.7,2.4,1,3.6c0.3,1.3,0.7,3.6,0.2,4.6c-0.5,1-2.3,1.7-5.1,1.7c-1.8,0-4.7,1.2-6.6,2.3
			c-2,1-4.2,1.3-6.3,0.9c-2.5-0.3-5.1-1.8-5.5-2.8c-0.4-1.1-0.5-1.8,5.4-4.4c0.1,0,6.9-2.6,9.7-5.7L1002,593.4z"/>
	</g>
	<path class="st8" d="M990.7,606c0,0-0.5-5.1-4.6-6.6c-3.7-1.3-7,1.5-6.6,3.9C979.6,604.9,984.2,608.6,990.7,606z"/>
	<path class="st8" d="M987.1,598.5c1.1,0.1,2,0.5,2.8,1.3c1.2,1,1.2,1.7,1.2,1.7c0.1,0.1,0.2,0.2,0.3,0.2c0.1,0,0.3,0,0.4-0.1
		s0.2-0.2,0.3-0.3c0.1-0.1,0.1-0.3,0.1-0.4c0,0-0.3-2.6-3.7-3.1c-0.3-0.1-0.6,0-0.9,0.1S987.2,598.2,987.1,598.5z"/>
	<path class="st8" d="M989.4,597.3c1.1,0,2.1,0.4,2.8,1.1c1.2,1,1.2,1.8,1.2,1.8c0.1,0.1,0.2,0.2,0.3,0.2c0.1,0,0.3,0,0.4-0.1
		c0.1-0.1,0.2-0.2,0.3-0.3c0.1-0.1,0.1-0.3,0.1-0.4c0,0-0.3-2.6-3.6-3.1c-0.3-0.1-0.6,0-0.8,0.1
		C989.8,596.9,989.6,597.1,989.4,597.3z"/>
	<path class="st8" d="M991.8,596c1.1-0.1,2.1,0.3,2.9,0.9c1.3,0.9,1.3,1.7,1.3,1.7c0.1,0.1,0.2,0.1,0.4,0.2c0.1,0,0.3,0,0.4-0.1
		c0.1-0.1,0.2-0.2,0.3-0.3c0.1-0.1,0.1-0.3,0-0.4c0,0-0.5-2.6-3.9-2.9c-0.3,0-0.6,0-0.8,0.2C992.1,595.5,991.9,595.7,991.8,596z"/>
	<path class="st20" d="M1002,589.1c0,0,0,3.6,0,4.5c0,0.9-1.1,2.3-4,2.2c-2-0.1-3.4-0.6-3.3-2.3v-4.1L1002,589.1z"/>
	<path class="st6" d="M1005,576.5c-0.2,1.3-0.1,2.6,0.2,3.9c0.7,2.1,2.2,3,3.1,3.8c1,0.9,1.9,2,2.6,3.2c0.7,1.3,1.6,2.4,2.7,3.4
		c0.8,0.7,3.2,0.8,4.4,0.3c1.1-0.5,1.5-0.9,1.5-2.8c-0.1-1.8-5.6-2.5-5.6-2.5L1005,576.5z"/>
	<path class="st0" d="M1018.8,582.8c0.5,0.2,0.6,1.1,0.7,2.9c0,1.4,0.6,3.4-1.2,4.2c-0.8,0.3-1.8,0.4-2.6,0.2
		c-0.9-0.2-1.7-0.6-2.3-1.3c-1.2-1.7-2.5-3.4-4-5c-1.6-1.7-3.2-2.3-3.9-5.7c-0.5-2.2-0.1-3.1,1.4-3.7c2-0.8,5.2,2,6.8,2.4
		C1014.8,577.3,1018.3,582.7,1018.8,582.8z"/>
	<path class="st12" d="M1018.8,582.8c0.5,0.2,0.6,1.1,0.7,2.9c0,1.4,0.6,3.4-1.2,4.2c-0.8,0.3-1.8,0.4-2.6,0.2
		c-0.9-0.2-1.7-0.6-2.3-1.3c-1.2-1.7-2.5-3.4-4-5c-1.6-1.7-3.2-2.3-3.9-5.7c-0.5-2.2-0.1-3.1,1.4-3.7c2-0.8,5.2,2,6.8,2.4
		C1014.8,577.3,1018.3,582.7,1018.8,582.8z"/>
	<path class="st8" d="M1013.5,576.9l-0.3-0.1c-0.9,0-1.8,0.3-2.6,0.8c-0.8,0.5-1.4,1.2-1.8,2c-0.3,0.6,0.6,1.1,1.1,0.6
		c0.4-0.8,1.1-1.5,1.8-2c0.8-0.5,1.6-0.8,2.5-0.9C1014,577.2,1013.8,577,1013.5,576.9z"/>
	<path class="st8" d="M1014.8,578c-0.9,0.1-1.7,0.4-2.4,0.9c-0.7,0.5-1.3,1.2-1.7,1.9c-0.3,0.6,0.6,1.1,1,0.6
		c0.4-0.7,0.9-1.3,1.5-1.8c0.6-0.5,1.4-0.8,2.1-1C1015.2,578.4,1015,578.2,1014.8,578z"/>
	<path class="st20" d="M1019,579.6l-0.3,3.8c-0.8,0.5-1.8,0.8-2.8,0.9c-1,0-2-0.2-2.8-0.7c-0.1-0.2-0.4-3.6-0.4-3.6L1019,579.6z"/>
	<path class="st8" d="M1006.3,580.8c0,0,0.2-4.1,5.6-4.6l0.3,0.2c-0.6-1-1.6-1.8-2.7-2.1c-0.7-0.3-1.5-0.3-2.3-0.1
		c-0.8,0.2-1.4,0.7-1.9,1.3C1004.4,576.7,1005.3,580,1006.3,580.8z"/>
	<path class="st4" d="M1020.6,554.1c-0.4-3.6-1.1-7.2-2.2-10.7c0,0,0.9-9.1,1.5-17.8c0.6-9.4,0.5-21.2,0.7-23.5
		c0,0-28.9-6.7-29.6,4.1c-0.9,12.2,0,39,0.2,42.4c0.2,4.8,0.3,9.7,1.1,17.5c0.8,7.7,2.1,24.8,2.1,24.8c3.8,1.4,8,0,8,0
		s2.2-20.8,2.1-26.3c-0.1-4.1-0.7-8.1-1.8-12l3.6-30.2c0,0,0.4,13.4,0.6,18.2c0.2,4.8,0.9,7.7,2.1,16.6c1,7.7,3.6,23.2,3.6,23.2
		c2,0.8,4.3,0.8,6.4,0C1019.1,580.5,1021.4,560.8,1020.6,554.1z"/>
	<path class="st16" d="M1016.8,516.2c0,0-3.5,4.7-8,6.8c0,0-2,16.6-1.9,16.3l-0.5-16.7C1006.4,522.5,1013.1,519.3,1016.8,516.2z"/>
	<path class="st20" d="M1000.6,459.3l1.6,9.9l9.7-0.5l-1.4-11.5L1000.6,459.3z"/>
	<path class="st6" d="M1020.8,468.2c-0.8-2.7-3.8-5.7-7.2-5.2c-0.8,0.1-1.5,0.2-2.3,0.3c-0.4,1.7-5.4,3.1-9.7,2.1l-5.7,0.7
		c-3.1,1-3.9,4.1-4.4,14.3c0,0-0.8,23.7-0.7,30c7.7,3.3,14.6,3.3,19.1,2.5c9.3-1.8,10.9-5.9,10.9-5.9l-0.7-16.5
		c0-3.6,1.3-8.4,1.6-10.7C1022.6,472.8,1021.3,470.1,1020.8,468.2z"/>
	<path class="st20" d="M996.6,466.4c-7.2,0.2-7.3,1.7-9.7,9.1c-1.1,3.5-2.8,9.1-4.3,14c-0.9,0.9-8.3,6-10.9,7.8
		c-2.6,1.8-4.1,1.4-6.6,3.4c-1.7,1.3-2.3,3-3.1,5c-0.8,1.7-1.1,3.7-0.8,5.5l2-2.6c0,0,2.6-0.2,3.8-0.3c2.3-0.2,4.2-3.1,6.4-4.3
		c4.3-2.3,10.3-4.8,14.3-6.6c2-0.9,2.5-1.6,3-3.1c1.8-6.1,3.4-12.1,3.4-12.1C997.4,477.7,998.5,468.8,996.6,466.4z"/>
	<path class="st0" d="M996.8,466c-1.6-0.1-3.1,0-4.6,0.4c-2,0.6-3.2,1.7-4.6,5.4c-1.4,3.7-4.3,14.9-4.3,14.9s0.5,1.6,3.7,2.9
		c3.3,1.4,5.2,0.7,5.2,0.7l2.7-8.1c0,0,2.5-4.2,3-6.9C998.2,472.5,998.3,469,996.8,466z"/>
	<path class="st22" d="M994,447.2c0,0-2.3,3.5-2.1,3.9c0.3,0.3,2,0.7,2,0.7L994,447.2z"/>
	<path class="st20" d="M1000.5,437.4c-4.7,1-6.1,3.1-6.5,10.6c-0.5,7.9,0.3,10.3,1.4,11.4c0.7,0.7,4.5,0.8,6.5,0.3
		c2.5-0.7,7.9-2.6,10.5-6.6c3-4.6,3.8-10.9,0.6-13.5C1008.3,435.9,1002.4,436.9,1000.5,437.4z"/>
	<path class="st4" d="M993,440.3c0.4,0.4,0.8,0.7,1.2,1c0.6,0.4,1.3,0.8,2,1.1c0.7,0.2,1.3,0.5,1.9,0.9c0.4,0.3,0.6,0.7,0.8,1.1
		c0.2,0.4,0.2,0.9,0.2,1.3c0,0.6,0,1.4,0,2.3c0,1.3,0.8,2.3,1.3,0.6c0,0,0.7-2.9,3.2-2.5c2.4,0.4,2.6,3.1,1.5,5.3
		c-0.7,1.3-2.6,1-2.6,1c-0.1,1.2,0.1,2.4,0.6,3.6c0.4,1.1,1.1,2.2,2,3c0,0,1.9,1,5.8,0.2c2.6-3.6,4.3-5.4,5.7-8.5
		c3-6.6,1.5-10.8-0.8-12.5c-0.5-3.1-2.8-4.4-5.6-5.1c-4.1-0.9-7.9,1.5-11.9,0.6c-0.6-0.1-1.3-0.3-2-0.5c-0.1-0.1-0.3-0.1-0.4-0.1
		c-0.1,0-0.3,0-0.4,0.1c-0.1,0.1-0.3,0.2-0.3,0.4c-0.1,0.2-0.1,0.3-0.1,0.5c0,0.4,0.1,0.8,0.4,1.1c0.2,0.3,0.5,0.6,0.8,0.8
		c-0.1-0.1-0.5,0.1-0.6,0.1h-0.7c-0.4,0-0.9-0.1-1.3-0.1c-0.3-0.1-0.6-0.1-0.9,0c-0.3,0.1-0.6,0.4-0.8,0.7c-0.2,0.3-0.3,0.6-0.3,1
		c0.1,0.7,0.3,1.4,0.7,2c0.1,0.2,0.3,0.5,0.5,0.7L993,440.3z"/>
	<path class="st22" d="M995.4,459.3c0.6,0.6,3.2,0.8,5.2,0.5h0.1l-0.3-1.1C1000.3,458.8,997.3,459.7,995.4,459.3z"/>
</g>
</svg>
