<svg width="27" height="27" viewBox="0 0 27 27" fill="none" xmlns="http://www.w3.org/2000/svg">
<path d="M25.4664 11.4594L22.275 10.9378C22.0881 10.2973 21.8327 9.68174 21.513 9.09908L23.376 6.4439C23.5267 6.22952 23.5008 5.93738 23.3156 5.75162L21.2155 3.65264C21.0281 3.4658 20.7333 3.4415 20.5184 3.59648L17.9031 5.47622C17.3151 5.15114 16.6941 4.89302 16.0499 4.70564L15.4931 1.5272C15.4478 1.26908 15.2237 1.08008 14.9612 1.08008H11.9912C11.7266 1.08008 11.5009 1.27178 11.4582 1.53314L10.942 4.6943C10.294 4.8806 9.67192 5.13602 9.08601 5.45678L6.47782 3.59378C6.26236 3.43988 5.96913 3.46472 5.78175 3.65102L3.68277 5.75C3.49755 5.93522 3.47163 6.22682 3.62229 6.4412L5.45776 9.06722C5.13105 9.65852 4.87077 10.2844 4.68123 10.9356L1.53249 11.46C1.27221 11.5032 1.08105 11.7289 1.08105 11.9924V14.9624C1.08105 15.2243 1.26897 15.4484 1.52655 15.4943L4.67529 16.0527C4.86375 16.7023 5.12403 17.3281 5.45181 17.9211L3.59367 20.5201C3.44031 20.7345 3.46461 21.0288 3.65091 21.2161L5.75043 23.3173C5.93566 23.5025 6.2278 23.5284 6.44217 23.3778L9.07197 21.5358C9.66219 21.8604 10.2859 22.1179 10.9323 22.3048L11.4593 25.4697C11.502 25.7295 11.7272 25.9201 11.9912 25.9201H14.9612C15.2231 25.9201 15.4472 25.7322 15.4926 25.4746L16.0569 22.294C16.7043 22.1034 17.3248 21.8442 17.9091 21.5191L20.5578 23.3772C20.7727 23.529 21.0643 23.5025 21.2501 23.3173L23.3496 21.2161C23.5364 21.0288 23.5607 20.7334 23.4057 20.5185L21.5168 17.8957C21.837 17.3125 22.0914 16.6958 22.2766 16.0554L25.4723 15.4943C25.731 15.4489 25.9189 15.2243 25.9189 14.9624V11.9924C25.9194 11.7278 25.7277 11.5021 25.4664 11.4594ZM13.5 17.2801C11.4123 17.2801 9.71998 15.5877 9.71998 13.5001C9.71998 11.4124 11.4123 9.72008 13.5 9.72008C15.5876 9.72008 17.28 11.4124 17.28 13.5001C17.28 15.5877 15.5876 17.2801 13.5 17.2801Z" fill="white"/>
</svg>
