<svg width="160" height="32" viewBox="0 0 160 32" fill="none" xmlns="http://www.w3.org/2000/svg">
<path d="M22.0477 18.6172C22.0346 18.4349 22.1583 18.2721 22.4187 18.1289C22.6792 17.9727 23.1805 17.8945 23.9227 17.8945C24.6648 17.8945 25.3289 18.0573 25.9148 18.3828C27.7117 17.6276 29.3263 16.2734 30.7586 14.3203C32.1779 12.3802 32.8615 10.6094 32.8094 9.00781C32.7703 7.96615 32.3602 7.07422 31.5789 6.33203C28.3758 8.49349 25.0685 12.0547 21.657 17.0156C16.3706 24.4115 11.7677 28.8516 7.84843 30.3359C6.6375 30.8047 5.59583 31.0391 4.72343 31.0391C3.83802 31.0391 3.13489 30.974 2.61406 30.8438C2.09323 30.7005 1.65703 30.5052 1.30547 30.2578C0.641403 29.776 0.309372 29.1445 0.309372 28.3633C0.309372 27.556 0.706507 27.0417 1.50078 26.8203C1.72213 26.7682 1.93698 26.7422 2.14531 26.7422C2.35364 26.7422 2.56849 26.8138 2.78984 26.957C2.99817 27.1003 3.10234 27.3151 3.10234 27.6016C3.10234 27.888 2.99817 28.1289 2.78984 28.3242C2.56849 28.5195 2.28203 28.6172 1.93047 28.6172C1.5789 28.6172 1.29896 28.5456 1.09062 28.4023V28.5195C1.09062 29.1055 1.36406 29.5807 1.91093 29.9453C2.45781 30.3099 3.12187 30.4922 3.90312 30.4922C4.67135 30.4922 5.31588 30.4336 5.83672 30.3164C6.35755 30.1992 6.89791 29.9844 7.45781 29.6719C8.01771 29.3464 8.61015 28.9036 9.23515 28.3438C9.86015 27.7708 10.5633 27.0352 11.3445 26.1367C12.1258 25.2383 13.0112 24.151 14.0008 22.875L17.3797 18.3438C20.1661 14.4375 23.3172 11.1562 26.8328 8.5C28.7078 7.08073 30.049 6.16927 30.8562 5.76562C29.2807 4.71094 26.9565 4.18359 23.8836 4.18359C21.019 4.18359 18.2195 4.8151 15.4852 6.07812C12.9982 7.23698 10.9799 8.72135 9.43047 10.5312C7.89401 12.3411 7.15182 14.0599 7.2039 15.6875C7.22994 16.638 7.59453 17.3802 8.29765 17.9141C8.84453 18.3307 9.50208 18.5391 10.2703 18.5391C11.0385 18.5391 11.8198 18.3307 12.6141 17.9141C13.4214 17.4974 14.1961 16.957 14.9383 16.293C15.6805 15.6159 16.3771 14.8672 17.0281 14.0469C17.6922 13.2135 18.2781 12.3867 18.7859 11.5664C19.8406 9.86068 20.4266 8.50651 20.5437 7.50391C20.5828 7.0612 20.6674 6.83984 20.7977 6.83984C20.9279 6.83984 20.9995 6.89193 21.0125 6.99609C21.0255 7.08724 21.0385 7.38021 21.0516 7.875C21.0646 8.36979 20.9669 9.05339 20.7586 9.92578C20.5503 10.7982 20.2312 11.6641 19.8016 12.5234C19.3849 13.3828 18.8575 14.2031 18.2195 14.9844C17.5945 15.7656 16.8784 16.4557 16.0711 17.0547C14.3133 18.3828 12.3602 19.0469 10.2117 19.0469C9.31328 19.0469 8.49297 18.7474 7.75078 18.1484C6.96953 17.5104 6.55937 16.6901 6.52031 15.6875C6.49427 14.6719 6.72213 13.6562 7.2039 12.6406C7.68567 11.625 8.34974 10.668 9.19609 9.76953C10.0555 8.87109 11.0646 8.04427 12.2234 7.28906C13.3823 6.53385 14.6193 5.88281 15.9344 5.33594C18.7078 4.20312 21.5268 3.63672 24.3914 3.63672C27.269 3.63672 29.6258 4.23568 31.4617 5.43359C33.3888 4.45703 34.8016 3.96875 35.7 3.96875C35.9474 3.96875 36.0711 4.02083 36.0711 4.125C36.0841 4.22917 36.0516 4.30729 35.9734 4.35938C35.8953 4.41146 35.674 4.47005 35.3094 4.53516C34.5021 4.67839 33.4539 5.14714 32.1648 5.94141C33.6753 7.16536 34.4695 8.73438 34.5477 10.6484C34.6258 12.3151 33.9292 13.9102 32.4578 15.4336C30.9604 16.9961 28.9878 18.1354 26.5398 18.8516C26.9174 19.2422 27.1128 19.7044 27.1258 20.2383C27.1518 20.7721 27.1258 21.2539 27.0477 21.6836C26.9695 22.1133 26.7937 22.5885 26.5203 23.1094C25.9865 24.125 24.8797 25.4727 23.2 27.1523C22.4318 27.7904 22.0607 28.4284 22.0867 29.0664C22.0867 30.0169 22.7703 30.4922 24.1375 30.4922C25.726 30.4922 27.3732 29.6523 29.0789 27.9727C30.8107 26.2409 32.0997 24.125 32.9461 21.625C33.0633 21.2344 33.1544 21.0391 33.2195 21.0391C33.4539 21.0391 33.5711 21.3255 33.5711 21.8984C33.5711 22.4583 33.4214 23.1159 33.1219 23.8711C32.8354 24.6263 32.4448 25.3555 31.95 26.0586C31.4552 26.7617 30.8823 27.4193 30.2312 28.0312C29.5802 28.6302 28.8966 29.151 28.1805 29.5938C26.67 30.5573 25.3354 31.0391 24.1766 31.0391C23.0307 31.0391 22.1714 30.8177 21.5984 30.375C21.0255 29.9193 20.726 29.3398 20.7 28.6367C20.674 27.9206 20.7586 27.2565 20.9539 26.6445C21.1492 26.0326 21.4096 25.4661 21.7352 24.9453C22.0737 24.4115 22.4513 23.9167 22.868 23.4609L24.0789 22.1523C25.0034 21.3971 25.5242 20.7266 25.6414 20.1406C25.6674 19.9714 25.6805 19.7956 25.6805 19.6133C25.6805 19.431 25.6414 19.2617 25.5633 19.1055C24.9643 19.2487 24.3784 19.3203 23.8055 19.3203C23.2325 19.3203 22.8029 19.2487 22.5164 19.1055C22.2299 18.9492 22.0737 18.7865 22.0477 18.6172ZM25.1141 18.6562C24.7495 18.4479 24.2677 18.3438 23.6687 18.3438C23.0698 18.3438 22.7703 18.3958 22.7703 18.5C22.7703 18.7474 23.0372 18.8711 23.5711 18.8711C24.1049 18.8711 24.6193 18.7995 25.1141 18.6562ZM42.9805 29.3203C42.1602 29.8411 41.2682 30.2708 40.3047 30.6094C39.3542 30.9479 38.4492 31.1172 37.5898 31.1172C36.7305 31.1172 36.0729 31.0326 35.6172 30.8633C35.1745 30.681 34.8099 30.4336 34.5234 30.1211C33.2995 28.793 33.306 26.8333 34.543 24.2422C35.0768 23.0964 35.8841 22.0547 36.9648 21.1172C38.0456 20.1667 38.9961 19.457 39.8164 18.9883C41.4049 18.0768 42.8958 17.6211 44.2891 17.6211C45.6693 17.6211 46.3919 18.0508 46.457 18.9102C46.5482 20.3034 44.8555 21.8203 41.3789 23.4609C40.1029 24.0599 38.4948 24.6784 36.5547 25.3164C35.7865 26.5664 35.4023 27.5885 35.4023 28.3828C35.4023 29.1641 35.6042 29.724 36.0078 30.0625C36.4245 30.388 37.0234 30.5508 37.8047 30.5508C38.599 30.5508 39.4518 30.3815 40.3633 30.043C41.2878 29.7044 42.1471 29.2747 42.9414 28.7539C43.7487 28.2331 44.4779 27.6667 45.1289 27.0547C45.7799 26.4427 46.3529 25.8568 46.8477 25.2969C47.3555 24.737 47.7656 24.2552 48.0781 23.8516C48.4036 23.4349 48.625 23.1745 48.7422 23.0703L49.1523 23.4023C48.9831 23.5456 48.7227 23.8385 48.3711 24.2812C48.0325 24.724 47.5964 25.2318 47.0625 25.8047C46.5417 26.3646 45.9362 26.957 45.2461 27.582C44.569 28.207 43.8138 28.7865 42.9805 29.3203ZM37.0039 24.6328C40.9362 23.2526 43.4687 21.8789 44.6016 20.5117C44.9792 20.056 45.168 19.6133 45.168 19.1836C45.168 18.4544 44.8294 18.0898 44.1523 18.0898C42.9544 18.0898 41.457 19.138 39.6602 21.2344C38.4102 22.6927 37.5247 23.8255 37.0039 24.6328ZM49.0891 30.6289C48.7896 30.5638 48.412 30.5312 47.9562 30.5312C47.162 30.5312 46.55 30.5964 46.1203 30.7266L52.8977 21.0391C53.744 19.8542 54.1802 19.151 54.2062 18.9297C54.2583 18.5 54.1216 18.2852 53.7961 18.2852C53.3143 18.2852 52.1164 19.4766 50.2023 21.8594L48.9523 23.4023C48.8482 23.4544 48.7375 23.4284 48.6203 23.3242C48.5161 23.207 48.4901 23.1224 48.5422 23.0703C48.9198 22.6667 49.343 22.1589 49.8117 21.5469C50.2935 20.9219 50.7948 20.3229 51.3156 19.75C52.5917 18.3307 53.6529 17.6211 54.4992 17.6211C55.9315 17.6211 56.3872 18.3568 55.8664 19.8281C55.7622 20.1406 55.5344 20.5443 55.1828 21.0391L51.0812 26.7422L51.1789 26.957C54.6815 22.9076 57.2531 20.2904 58.8937 19.1055C60.1958 18.1159 61.4003 17.6211 62.507 17.6211C63.2622 17.6211 63.8612 17.8294 64.3039 18.2461C64.6555 18.5977 64.8182 18.9688 64.7922 19.3594C64.7792 19.75 64.7531 20.0495 64.7141 20.2578C64.688 20.4531 64.6424 20.6549 64.5773 20.8633C64.4211 21.293 64.1477 21.8138 63.757 22.4258C66.5435 19.5872 68.6529 18.0182 70.0852 17.7188C70.3716 17.6536 70.6841 17.6211 71.0227 17.6211C71.3742 17.6211 71.6932 17.6797 71.9797 17.7969C72.2792 17.9141 72.52 18.0638 72.7023 18.2461C73.0409 18.5846 73.2036 18.9948 73.1906 19.4766C73.1906 19.9453 73.0995 20.4271 72.9172 20.9219C72.7479 21.4167 72.4549 22.0026 72.0383 22.6797C71.1659 24.0729 69.6945 25.8893 67.6242 28.1289C66.7648 29.0273 66.3156 29.5547 66.2766 29.7109C66.2375 29.8542 66.218 29.9648 66.218 30.043L66.0812 30.0625C66.0812 30.375 66.4523 30.5312 67.1945 30.5312C67.9367 30.5312 68.6138 30.3685 69.2258 30.043C69.8508 29.7044 70.4823 29.2812 71.1203 28.7734C71.7583 28.2526 72.3768 27.6862 72.9758 27.0742C73.5878 26.4622 74.1411 25.8828 74.6359 25.3359L75.8859 23.8906C76.2245 23.474 76.4523 23.2005 76.5695 23.0703L76.9797 23.4023C76.8495 23.5326 76.6021 23.819 76.2375 24.2617C75.8859 24.6914 75.4497 25.1927 74.9289 25.7656C74.4211 26.3385 73.8482 26.9375 73.2102 27.5625C72.5721 28.1875 71.9146 28.7604 71.2375 29.2812C69.662 30.4922 68.3404 31.0977 67.2727 31.0977C66.1398 31.0977 65.3391 30.7982 64.8703 30.1992C64.7271 30.0169 64.6555 29.8021 64.6555 29.5547C64.6555 29.3073 64.6945 29.0208 64.7727 28.6953C64.8638 28.3698 65.0591 27.9596 65.3586 27.4648C65.9575 26.4492 66.8299 25.2969 67.9758 24.0078C69.1216 22.7188 69.8638 21.8529 70.2023 21.4102C70.5539 20.9674 70.8404 20.5833 71.0617 20.2578C71.4654 19.6198 71.6672 19.138 71.6672 18.8125C71.6672 18.3438 71.3352 18.1094 70.6711 18.1094C69.369 18.1094 67.1164 19.737 63.9133 22.9922C62.5461 24.3724 61.0227 26.1237 59.343 28.2461L57.5266 30.6289C57.2271 30.5638 56.8495 30.5312 56.3937 30.5312C55.6516 30.5312 55.0396 30.5964 54.5578 30.7266C56.4849 28.3698 57.5461 27.0677 57.7414 26.8203C60.6711 22.9531 62.2922 20.7656 62.6047 20.2578C63.0344 19.5156 63.2492 19.0013 63.2492 18.7148C63.2492 18.3112 62.9302 18.1094 62.2922 18.1094C61.4458 18.1094 60.4562 18.5651 59.3234 19.4766C56.9406 21.3776 54.1346 24.3008 50.9055 28.2461L49.0891 30.6289ZM83.7914 29.3203C82.9711 29.8411 82.0792 30.2708 81.1156 30.6094C80.1651 30.9479 79.2602 31.1172 78.4008 31.1172C77.5414 31.1172 76.8839 31.0326 76.4281 30.8633C75.9854 30.681 75.6208 30.4336 75.3344 30.1211C74.1104 28.793 74.1169 26.8333 75.3539 24.2422C75.8878 23.0964 76.6951 22.0547 77.7758 21.1172C78.8565 20.1667 79.807 19.457 80.6273 18.9883C82.2159 18.0768 83.7068 17.6211 85.1 17.6211C86.4802 17.6211 87.2029 18.0508 87.268 18.9102C87.3591 20.3034 85.6664 21.8203 82.1898 23.4609C80.9138 24.0599 79.3057 24.6784 77.3656 25.3164C76.5974 26.5664 76.2133 27.5885 76.2133 28.3828C76.2133 29.1641 76.4151 29.724 76.8187 30.0625C77.2354 30.388 77.8344 30.5508 78.6156 30.5508C79.4099 30.5508 80.2628 30.3815 81.1742 30.043C82.0987 29.7044 82.9581 29.2747 83.7523 28.7539C84.5596 28.2331 85.2888 27.6667 85.9398 27.0547C86.5909 26.4427 87.1638 25.8568 87.6586 25.2969C88.1664 24.737 88.5766 24.2552 88.8891 23.8516C89.2146 23.4349 89.4359 23.1745 89.5531 23.0703L89.9633 23.4023C89.794 23.5456 89.5336 23.8385 89.182 24.2812C88.8435 24.724 88.4073 25.2318 87.8734 25.8047C87.3526 26.3646 86.7471 26.957 86.057 27.582C85.3799 28.207 84.6247 28.7865 83.7914 29.3203ZM77.8148 24.6328C81.7471 23.2526 84.2797 21.8789 85.4125 20.5117C85.7901 20.056 85.9789 19.6133 85.9789 19.1836C85.9789 18.4544 85.6404 18.0898 84.9633 18.0898C83.7654 18.0898 82.268 19.138 80.4711 21.2344C79.2211 22.6927 78.3357 23.8255 77.8148 24.6328ZM89.9 30.6289C89.6005 30.5638 89.2229 30.5312 88.7672 30.5312C87.9729 30.5312 87.3609 30.5964 86.9312 30.7266L93.7086 21.0391C94.5549 19.8542 94.9911 19.151 95.0172 18.9297C95.0693 18.5 94.9325 18.2852 94.607 18.2852C94.1253 18.2852 92.9273 19.4766 91.0133 21.8594L89.7633 23.4023C89.6591 23.4544 89.5484 23.4284 89.4312 23.3242C89.3271 23.207 89.301 23.1224 89.3531 23.0703C89.7307 22.6667 90.1539 22.1589 90.6227 21.5469C91.1044 20.9219 91.6057 20.3229 92.1266 19.75C93.4026 18.3307 94.4638 17.6211 95.3102 17.6211C96.7424 17.6211 97.1982 18.3568 96.6773 19.8281C96.5732 20.1406 96.3453 20.5443 95.9937 21.0391L91.8922 26.7422L91.9898 26.957C95.4924 22.9076 98.0641 20.2904 99.7047 19.1055C101.007 18.1159 102.211 17.6211 103.318 17.6211C104.073 17.6211 104.672 17.8294 105.115 18.2461C105.466 18.5977 105.629 18.9688 105.603 19.3594C105.59 19.75 105.564 20.0495 105.525 20.2578C105.499 20.4531 105.453 20.6549 105.388 20.8633C105.232 21.293 104.959 21.8138 104.568 22.4258C107.354 19.5872 109.464 18.0182 110.896 17.7188C111.183 17.6536 111.495 17.6211 111.834 17.6211C112.185 17.6211 112.504 17.6797 112.791 17.7969C113.09 17.9141 113.331 18.0638 113.513 18.2461C113.852 18.5846 114.015 18.9948 114.002 19.4766C114.002 19.9453 113.91 20.4271 113.728 20.9219C113.559 21.4167 113.266 22.0026 112.849 22.6797C111.977 24.0729 110.505 25.8893 108.435 28.1289C107.576 29.0273 107.127 29.5547 107.087 29.7109C107.048 29.8542 107.029 29.9648 107.029 30.043L106.892 30.0625C106.892 30.375 107.263 30.5312 108.005 30.5312C108.748 30.5312 109.425 30.3685 110.037 30.043C110.662 29.7044 111.293 29.2812 111.931 28.7734C112.569 28.2526 113.188 27.6862 113.787 27.0742C114.399 26.4622 114.952 25.8828 115.447 25.3359L116.697 23.8906C117.035 23.474 117.263 23.2005 117.38 23.0703L117.791 23.4023C117.66 23.5326 117.413 23.819 117.048 24.2617C116.697 24.6914 116.261 25.1927 115.74 25.7656C115.232 26.3385 114.659 26.9375 114.021 27.5625C113.383 28.1875 112.726 28.7604 112.048 29.2812C110.473 30.4922 109.151 31.0977 108.084 31.0977C106.951 31.0977 106.15 30.7982 105.681 30.1992C105.538 30.0169 105.466 29.8021 105.466 29.5547C105.466 29.3073 105.505 29.0208 105.584 28.6953C105.675 28.3698 105.87 27.9596 106.17 27.4648C106.768 26.4492 107.641 25.2969 108.787 24.0078C109.933 22.7188 110.675 21.8529 111.013 21.4102C111.365 20.9674 111.651 20.5833 111.873 20.2578C112.276 19.6198 112.478 19.138 112.478 18.8125C112.478 18.3438 112.146 18.1094 111.482 18.1094C110.18 18.1094 107.927 19.737 104.724 22.9922C103.357 24.3724 101.834 26.1237 100.154 28.2461L98.3375 30.6289C98.038 30.5638 97.6604 30.5312 97.2047 30.5312C96.4625 30.5312 95.8505 30.5964 95.3687 30.7266C97.2958 28.3698 98.357 27.0677 98.5523 26.8203C101.482 22.9531 103.103 20.7656 103.416 20.2578C103.845 19.5156 104.06 19.0013 104.06 18.7148C104.06 18.3112 103.741 18.1094 103.103 18.1094C102.257 18.1094 101.267 18.5651 100.134 19.4766C97.7516 21.3776 94.9456 24.3008 91.7164 28.2461L89.9 30.6289ZM126.302 26C125.963 26.4427 125.546 26.9049 125.052 27.3867C123.333 29.3268 121.406 30.5312 119.27 31C118.684 31.1302 118.164 31.1953 117.708 31.1953C117.265 31.1953 116.887 31.1302 116.575 31C116.262 30.8568 116.002 30.6745 115.794 30.4531C115.39 30.0104 115.188 29.4505 115.188 28.7734C115.188 28.0833 115.299 27.3932 115.52 26.7031C115.742 26 116.061 25.2448 116.477 24.4375C116.894 23.6172 117.402 22.7383 118.001 21.8008L119.973 18.7344L121.79 16.1562C122.493 15.2188 123.261 14.2422 124.095 13.2266L126.692 10.1602C131.015 5.21224 134.576 2.0612 137.376 0.707031C138.118 0.342448 138.782 0.160156 139.368 0.160156C140.318 0.160156 140.794 0.518229 140.794 1.23438C140.794 1.9375 140.611 2.71224 140.247 3.55859C139.895 4.40495 139.381 5.29688 138.704 6.23438C138.04 7.15885 137.22 8.10938 136.243 9.08594C135.266 10.0495 134.16 10.9935 132.923 11.918C130.292 13.8841 127.337 15.5117 124.055 16.8008C121.152 20.3555 119.251 22.862 118.352 24.3203C117.454 25.7656 116.881 26.8073 116.634 27.4453C116.386 28.0833 116.262 28.6172 116.262 29.0469C116.262 30.1536 116.751 30.707 117.727 30.707C119.837 30.707 121.79 29.763 123.587 27.875C124.199 27.25 124.746 26.5078 125.227 25.6484C125.891 24.8281 126.321 23.6107 126.516 21.9961C126.555 21.6706 126.575 21.4688 126.575 21.3906L126.341 19.6914C126.419 18.7018 126.822 18.207 127.552 18.207C128.45 18.207 128.808 18.9818 128.626 20.5312C128.548 21.2214 128.326 22.0352 127.962 22.9727C127.597 23.9102 127.226 24.6719 126.848 25.2578C126.822 25.349 126.809 25.4466 126.809 25.5508C126.822 25.6419 126.829 25.7396 126.829 25.8438C126.829 26.4948 127.193 26.8398 127.923 26.8789C128.639 26.8789 129.576 26.3516 130.735 25.2969C131.503 24.5938 132.18 23.8516 132.766 23.0703L133.177 23.4023C132.955 23.6367 132.649 23.9753 132.259 24.418C131.881 24.8607 131.451 25.2969 130.97 25.7266C129.798 26.8203 128.749 27.3672 127.825 27.3672C126.901 27.3672 126.393 26.9115 126.302 26ZM140.13 1.3125C140.13 0.817708 139.876 0.570312 139.368 0.570312C138.287 0.570312 136.503 1.97656 134.016 4.78906L131.673 7.5625L124.7 16.0195C127.252 15.0299 129.811 13.513 132.376 11.4688C134.602 9.67188 136.464 7.77083 137.962 5.76562C139.407 3.82552 140.13 2.34115 140.13 1.3125ZM139.988 29.3203C139.168 29.8411 138.276 30.2708 137.312 30.6094C136.362 30.9479 135.457 31.1172 134.598 31.1172C133.738 31.1172 133.081 31.0326 132.625 30.8633C132.182 30.681 131.818 30.4336 131.531 30.1211C130.307 28.793 130.314 26.8333 131.551 24.2422C132.085 23.0964 132.892 22.0547 133.973 21.1172C135.053 20.1667 136.004 19.457 136.824 18.9883C138.413 18.0768 139.904 17.6211 141.297 17.6211C142.677 17.6211 143.4 18.0508 143.465 18.9102C143.556 20.3034 141.863 21.8203 138.387 23.4609C137.111 24.0599 135.503 24.6784 133.562 25.3164C132.794 26.5664 132.41 27.5885 132.41 28.3828C132.41 29.1641 132.612 29.724 133.016 30.0625C133.432 30.388 134.031 30.5508 134.812 30.5508C135.607 30.5508 136.46 30.3815 137.371 30.043C138.296 29.7044 139.155 29.2747 139.949 28.7539C140.757 28.2331 141.486 27.6667 142.137 27.0547C142.788 26.4427 143.361 25.8568 143.855 25.2969C144.363 24.737 144.773 24.2552 145.086 23.8516C145.411 23.4349 145.633 23.1745 145.75 23.0703L146.16 23.4023C145.991 23.5456 145.73 23.8385 145.379 24.2812C145.04 24.724 144.604 25.2318 144.07 25.8047C143.549 26.3646 142.944 26.957 142.254 27.582C141.577 28.207 140.822 28.7865 139.988 29.3203ZM134.012 24.6328C137.944 23.2526 140.477 21.8789 141.609 20.5117C141.987 20.056 142.176 19.6133 142.176 19.1836C142.176 18.4544 141.837 18.0898 141.16 18.0898C139.962 18.0898 138.465 19.138 136.668 21.2344C135.418 22.6927 134.533 23.8255 134.012 24.6328ZM148.792 29.4766C148.792 30.0755 149.046 30.375 149.554 30.375C150.075 30.375 150.641 30.2188 151.253 29.9062C151.878 29.5938 152.51 29.1966 153.148 28.7148C153.799 28.2331 154.437 27.6992 155.062 27.1133L156.761 25.4141C157.282 24.8802 157.731 24.3984 158.109 23.9688L158.909 23.0703L159.3 23.4023C159.053 23.6237 158.721 23.9688 158.304 24.4375L156.898 26C153.721 29.3594 150.986 31.0391 148.695 31.0391C147.952 31.0391 147.353 30.8568 146.898 30.4922C146.455 30.1276 146.234 29.6393 146.234 29.0273C146.234 27.0872 149.059 24.2227 154.71 20.4336C151.95 19.9779 150.042 19.5156 148.988 19.0469C148.128 20.8177 146.807 22.6211 145.023 24.457C144.606 24.8867 144.352 25.1211 144.261 25.1602C144.157 25.1992 144.092 25.2318 144.066 25.2578C144.04 25.2708 144.02 25.2318 144.007 25.1406C143.994 25.0495 143.994 24.9844 144.007 24.9453C144.02 24.8932 144.046 24.8411 144.085 24.7891C144.697 24.099 145.264 23.4349 145.784 22.7969C146.995 21.2865 147.887 19.9453 148.46 18.7734C147.991 18.474 147.724 18.1549 147.659 17.8164C147.594 17.4779 147.594 17.1654 147.659 16.8789C147.738 16.5794 147.855 16.3125 148.011 16.0781C148.349 15.5703 148.74 15.3164 149.183 15.3164C150.003 15.3164 150.413 15.6159 150.413 16.2148C150.413 16.5143 150.355 16.7682 150.238 16.9766L149.886 17.582C149.652 17.8815 149.534 18.2266 149.534 18.6172C149.534 18.8516 150.029 19.0729 151.019 19.2812C152.021 19.4896 152.731 19.6328 153.148 19.7109C154.059 19.8802 154.782 19.9779 155.316 20.0039C155.68 20.0169 155.863 20.1146 155.863 20.2969C155.863 20.4141 155.648 20.6419 155.218 20.9805C154.801 21.319 154.339 21.7292 153.831 22.2109C153.323 22.6927 152.829 23.2005 152.347 23.7344C151.865 24.2552 151.409 24.7891 150.98 25.3359C150.55 25.8828 150.172 26.4102 149.847 26.918C149.144 28.0117 148.792 28.8646 148.792 29.4766Z" fill="white"/>
</svg>
